<svg width="108" height="24" viewBox="0 0 108 24" fill="none" xmlns="http://www.w3.org/2000/svg">
<rect x="4" width="100" height="24" rx="12" fill="#2C6D95"/>
<path d="M20.4754 12.2128C20.4754 15.0688 22.461 17.068 25.2762 17.068C27.5474 17.068 29.261 15.8032 29.805 13.736H27.2482C26.8538 14.552 26.133 14.96 25.249 14.96C23.821 14.96 22.8418 13.8992 22.8418 12.2128C22.8418 10.5264 23.821 9.4656 25.249 9.4656C26.133 9.4656 26.8538 9.8736 27.2482 10.6896H29.805C29.261 8.6224 27.5474 7.344 25.2762 7.344C22.461 7.344 20.4754 9.3568 20.4754 12.2128ZM38.6547 13.2056C38.6547 10.7984 36.9411 9.3024 34.7107 9.3024C32.4939 9.3024 30.7667 10.7984 30.7667 13.2056C30.7667 15.6128 32.4531 17.1088 34.6835 17.1088C36.9139 17.1088 38.6547 15.6128 38.6547 13.2056ZM33.1331 13.2056C33.1331 11.9136 33.8675 11.3152 34.7107 11.3152C35.5267 11.3152 36.2883 11.9136 36.2883 13.2056C36.2883 14.484 35.5131 15.096 34.6835 15.096C33.8403 15.096 33.1331 14.484 33.1331 13.2056ZM45.1245 17H47.4365V12.5664C47.4365 10.5264 46.2669 9.3296 44.5125 9.3296C43.4925 9.3296 42.6765 9.7784 42.2141 10.4176V9.4112H39.8885V17H42.2141V12.8792C42.2141 11.8456 42.7853 11.2744 43.6693 11.2744C44.5533 11.2744 45.1245 11.8456 45.1245 12.8792V17ZM49.2838 17H51.6094V11.3424H52.8606V9.4112H51.6094V9.3432C51.6094 8.5408 51.9222 8.2688 52.8198 8.3232V6.3512C50.5078 6.2288 49.2838 7.208 49.2838 9.1936V9.4112H48.4406V11.3424H49.2838V17ZM53.9534 17H56.279V9.4112H53.9534V17ZM55.123 8.6224C55.939 8.6224 56.4966 8.0648 56.4966 7.3712C56.4966 6.664 55.939 6.1064 55.123 6.1064C54.2934 6.1064 53.7358 6.664 53.7358 7.3712C53.7358 8.0648 54.2934 8.6224 55.123 8.6224ZM57.5019 13.192C57.5019 15.5856 58.9843 17.1088 60.8339 17.1088C61.9627 17.1088 62.7651 16.592 63.1867 15.9256V17H65.5123V9.4112H63.1867V10.4856C62.7787 9.8192 61.9763 9.3024 60.8475 9.3024C58.9843 9.3024 57.5019 10.7984 57.5019 13.192ZM63.1867 13.2056C63.1867 14.416 62.4115 15.0824 61.5275 15.0824C60.6571 15.0824 59.8683 14.4024 59.8683 13.192C59.8683 11.9816 60.6571 11.3288 61.5275 11.3288C62.4115 11.3288 63.1867 11.9952 63.1867 13.2056ZM69.5204 10.4856V6.936H67.1948V17H69.5204V15.9392C69.942 16.6056 70.7444 17.1088 71.8596 17.1088C73.7228 17.1088 75.2052 15.5856 75.2052 13.192C75.2052 10.7984 73.7364 9.3024 71.8596 9.3024C70.7716 9.3024 69.942 9.8056 69.5204 10.4856ZM72.8388 13.192C72.8388 14.4024 72.05 15.0824 71.166 15.0824C70.2956 15.0824 69.5068 14.416 69.5068 13.2056C69.5068 11.9952 70.2956 11.3288 71.166 11.3288C72.05 11.3288 72.8388 11.9816 72.8388 13.192ZM76.4252 17H78.7508V6.936H76.4252V17ZM83.7818 11.1656C84.557 11.1656 85.2098 11.6416 85.2098 12.4712H82.2994C82.4354 11.628 83.0202 11.1656 83.7818 11.1656ZM87.413 14.484H84.9378C84.7474 14.892 84.3802 15.2184 83.7274 15.2184C82.9794 15.2184 82.3674 14.756 82.2858 13.7632H87.549C87.5762 13.532 87.5898 13.3008 87.5898 13.0832C87.5898 10.7712 86.0258 9.3024 83.809 9.3024C81.5514 9.3024 79.9738 10.7984 79.9738 13.2056C79.9738 15.6128 81.5786 17.1088 83.809 17.1088C85.6994 17.1088 87.0458 15.9664 87.413 14.484Z" fill="white"/>
<path d="M108 12.5L103 16L103 9L108 12.5Z" fill="#2C6D95"/>
</svg>
