<svg width="86" height="29" viewBox="0 0 86 29" fill="none" xmlns="http://www.w3.org/2000/svg">
<rect x="4" width="65" height="24" rx="12" fill="#EB37A0"/>
<path d="M20.8811 17H23.2067V13.1376H26.1171V11.3288H23.2067V9.316H27.0963V7.4528H20.8811V17ZM27.8562 13.192C27.8562 15.5856 29.3386 17.1088 31.1882 17.1088C32.317 17.1088 33.1194 16.592 33.541 15.9256V17H35.8666V9.4112H33.541V10.4856C33.133 9.8192 32.3306 9.3024 31.2018 9.3024C29.3386 9.3024 27.8562 10.7984 27.8562 13.192ZM33.541 13.2056C33.541 14.416 32.7658 15.0824 31.8818 15.0824C31.0114 15.0824 30.2226 14.4024 30.2226 13.192C30.2226 11.9816 31.0114 11.3288 31.8818 11.3288C32.7658 11.3288 33.541 11.9952 33.541 13.2056ZM30.4402 7.2896V8.8944L33.7178 7.5208V5.712L30.4402 7.2896ZM37.0867 13.2056C37.0867 15.6128 38.6643 17.1088 40.8947 17.1088C42.7987 17.1088 44.1451 16.0072 44.5395 14.2528H42.0643C41.8603 14.8104 41.4931 15.1232 40.8539 15.1232C40.0243 15.1232 39.4531 14.4704 39.4531 13.2056C39.4531 11.9408 40.0243 11.288 40.8539 11.288C41.4931 11.288 41.8739 11.628 42.0643 12.1584H44.5395C44.1451 10.3496 42.7987 9.3024 40.8947 9.3024C38.6643 9.3024 37.0867 10.812 37.0867 13.2056ZM45.7834 17H48.109V9.4112H45.7834V17ZM46.953 8.6224C47.769 8.6224 48.3266 8.0648 48.3266 7.3712C48.3266 6.664 47.769 6.1064 46.953 6.1064C46.1234 6.1064 45.5658 6.664 45.5658 7.3712C45.5658 8.0648 46.1234 8.6224 46.953 8.6224ZM49.7944 17H52.12V6.936H49.7944V17Z" fill="white"/>
<path d="M43.5 29L40 24L47 24L43.5 29Z" fill="#1C2833"/>
</svg>
