<svg width="109" height="24" viewBox="0 0 109 24" fill="none" xmlns="http://www.w3.org/2000/svg">
<rect x="4" width="101" height="24" rx="12" fill="#7FDC73"/>
<path d="M23.3833 11.7232V9.3296H24.6481C25.5729 9.3296 25.9673 9.792 25.9673 10.5264C25.9673 11.2608 25.5729 11.7232 24.6481 11.7232H23.3833ZM28.3337 10.5264C28.3337 8.772 27.1641 7.4528 24.8249 7.4528H21.0577V17H23.3833V13.5728H24.8249C27.2593 13.5728 28.3337 12.104 28.3337 10.5264ZM31.87 13.4776C31.87 12.172 32.5092 11.7912 33.6108 11.7912H34.25V9.3296C33.23 9.3296 32.4004 9.8736 31.87 10.676V9.4112H29.5444V17H31.87V13.4776ZM42.7872 13.2056C42.7872 10.7984 41.0736 9.3024 38.8432 9.3024C36.6264 9.3024 34.8992 10.7984 34.8992 13.2056C34.8992 15.6128 36.5856 17.1088 38.816 17.1088C41.0464 17.1088 42.7872 15.6128 42.7872 13.2056ZM37.2656 13.2056C37.2656 11.9136 38 11.3152 38.8432 11.3152C39.6592 11.3152 40.4208 11.9136 40.4208 13.2056C40.4208 14.484 39.6456 15.096 38.816 15.096C37.9728 15.096 37.2656 14.484 37.2656 13.2056ZM44.3881 14.3616C44.3881 16.3336 45.4897 17 47.0673 17H48.2505V15.028H47.4209C46.9041 15.028 46.7137 14.8376 46.7137 14.3888V11.3424H48.2369V9.4112H46.7137V7.5616H44.3881V9.4112H43.4633V11.3424H44.3881V14.3616ZM52.8915 11.1656C53.6667 11.1656 54.3195 11.6416 54.3195 12.4712H51.4091C51.5451 11.628 52.1299 11.1656 52.8915 11.1656ZM56.5227 14.484H54.0475C53.8571 14.892 53.4899 15.2184 52.8371 15.2184C52.0891 15.2184 51.4771 14.756 51.3955 13.7632H56.6587C56.6859 13.532 56.6995 13.3008 56.6995 13.0832C56.6995 10.7712 55.1355 9.3024 52.9187 9.3024C50.6611 9.3024 49.0835 10.7984 49.0835 13.2056C49.0835 15.6128 50.6883 17.1088 52.9187 17.1088C54.8091 17.1088 56.1555 15.9664 56.5227 14.484ZM57.464 13.192C57.464 15.5856 58.9464 17.1088 60.8096 17.1088C61.9248 17.1088 62.7272 16.5784 63.1488 15.912V16.9864C63.1488 18.2648 62.4552 18.7272 61.5712 18.7272C60.7688 18.7272 60.1976 18.36 60.048 17.7888H57.7496C57.9536 19.5976 59.4224 20.74 61.68 20.74C64.3048 20.74 65.4744 19.0128 65.4744 16.9864V9.4112H63.1488V10.4856C62.7408 9.8056 61.9248 9.3024 60.8096 9.3024C58.9464 9.3024 57.464 10.7984 57.464 13.192ZM63.1488 13.2056C63.1488 14.416 62.3736 15.0824 61.4896 15.0824C60.6192 15.0824 59.8304 14.4024 59.8304 13.192C59.8304 11.9816 60.6192 11.3288 61.4896 11.3288C62.3736 11.3288 63.1488 11.9952 63.1488 13.2056ZM67.1569 17H69.4825V9.4112H67.1569V17ZM68.3265 8.6224C69.1425 8.6224 69.7001 8.0648 69.7001 7.3712C69.7001 6.664 69.1425 6.1064 68.3265 6.1064C67.4969 6.1064 66.9393 6.664 66.9393 7.3712C66.9393 8.0648 67.4969 8.6224 68.3265 8.6224ZM70.7054 13.192C70.7054 15.5856 72.1878 17.1088 74.051 17.1088C75.1662 17.1088 75.9686 16.6056 76.3902 15.912V17H78.7158V6.936H76.3902V10.4584C75.9278 9.7648 75.0574 9.3024 74.051 9.3024C72.1878 9.3024 70.7054 10.7984 70.7054 13.192ZM76.3902 13.2056C76.3902 14.416 75.615 15.0824 74.731 15.0824C73.8606 15.0824 73.0718 14.4024 73.0718 13.192C73.0718 11.9816 73.8606 11.3288 74.731 11.3288C75.615 11.3288 76.3902 11.9952 76.3902 13.2056ZM79.9359 13.192C79.9359 15.5856 81.4183 17.1088 83.2679 17.1088C84.3967 17.1088 85.1991 16.592 85.6207 15.9256V17H87.9463V9.4112H85.6207V10.4856C85.2127 9.8192 84.4103 9.3024 83.2815 9.3024C81.4183 9.3024 79.9359 10.7984 79.9359 13.192ZM85.6207 13.2056C85.6207 14.416 84.8455 15.0824 83.9615 15.0824C83.0911 15.0824 82.3023 14.4024 82.3023 13.192C82.3023 11.9816 83.0911 11.3288 83.9615 11.3288C84.8455 11.3288 85.6207 11.9952 85.6207 13.2056Z" fill="#1C2833"/>
<path d="M109 12.5L104 16L104 9L109 12.5Z" fill="#7FDC73"/>
</svg>
