<svg width="94" height="32" viewBox="0 0 94 32" fill="none" xmlns="http://www.w3.org/2000/svg">
<rect x="4" width="90" height="32" rx="16" fill="#115D28"/>
<path d="M26.9671 14.416C26.9671 15.296 26.4871 15.824 25.4631 15.824H23.7671V13.04H25.4631C26.4871 13.04 26.9671 13.584 26.9671 14.416ZM21.0311 10.768V22H23.7671V17.76H24.4231L26.7591 22H29.8471L27.2551 17.552C28.9831 17.04 29.7511 15.712 29.7511 14.304C29.7511 12.352 28.3751 10.768 25.6231 10.768H21.0311ZM30.9246 17.52C30.9246 20.336 32.6686 22.128 34.8446 22.128C36.1726 22.128 37.1166 21.52 37.6126 20.736V22H40.3486V13.072H37.6126V14.336C37.1326 13.552 36.1886 12.944 34.8606 12.944C32.6686 12.944 30.9246 14.704 30.9246 17.52ZM37.6126 17.536C37.6126 18.96 36.7006 19.744 35.6606 19.744C34.6366 19.744 33.7086 18.944 33.7086 17.52C33.7086 16.096 34.6366 15.328 35.6606 15.328C36.7006 15.328 37.6126 16.112 37.6126 17.536ZM33.9646 10.576V12.464L37.8206 10.848V8.72L33.9646 10.576ZM45.0639 14.336V13.072H42.3279V26.256H45.0639V20.752C45.5599 21.504 46.5039 22.128 47.8159 22.128C50.0079 22.128 51.7519 20.336 51.7519 17.52C51.7519 14.704 50.0079 12.944 47.8159 12.944C46.5039 12.944 45.5599 13.552 45.0639 14.336ZM48.9679 17.52C48.9679 18.944 48.0399 19.744 46.9999 19.744C45.9759 19.744 45.0479 18.96 45.0479 17.536C45.0479 16.112 45.9759 15.328 46.9999 15.328C48.0399 15.328 48.9679 16.096 48.9679 17.52ZM53.1873 22H55.9233V13.072H53.1873V22ZM54.5633 12.144C55.5233 12.144 56.1793 11.488 56.1793 10.672C56.1793 9.84 55.5233 9.184 54.5633 9.184C53.5873 9.184 52.9313 9.84 52.9313 10.672C52.9313 11.488 53.5873 12.144 54.5633 12.144ZM57.3621 17.52C57.3621 20.336 59.1061 22.128 61.2981 22.128C62.6101 22.128 63.5541 21.536 64.0501 20.72V22H66.7861V10.16H64.0501V14.304C63.5061 13.488 62.4821 12.944 61.2981 12.944C59.1061 12.944 57.3621 14.704 57.3621 17.52ZM64.0501 17.536C64.0501 18.96 63.1381 19.744 62.0981 19.744C61.0741 19.744 60.1461 18.944 60.1461 17.52C60.1461 16.096 61.0741 15.328 62.0981 15.328C63.1381 15.328 64.0501 16.112 64.0501 17.536ZM77.5014 17.536C77.5014 14.704 75.4854 12.944 72.8614 12.944C70.2534 12.944 68.2214 14.704 68.2214 17.536C68.2214 20.368 70.2054 22.128 72.8294 22.128C75.4534 22.128 77.5014 20.368 77.5014 17.536ZM71.0054 17.536C71.0054 16.016 71.8694 15.312 72.8614 15.312C73.8214 15.312 74.7174 16.016 74.7174 17.536C74.7174 19.04 73.8054 19.76 72.8294 19.76C71.8374 19.76 71.0054 19.04 71.0054 17.536Z" fill="white"/>
<path d="M0 15.5L5 12V19L0 15.5Z" fill="#115D28"/>
</svg>
