<svg width="86" height="29" viewBox="0 0 86 29" fill="none" xmlns="http://www.w3.org/2000/svg">
<rect x="4" width="82" height="24" rx="12" fill="#571DBE"/>
<path d="M27.9698 14.1576C27.9698 10.9616 23.2506 11.7096 23.2506 10.0504C23.2506 9.452 23.6722 9.1664 24.2298 9.18C24.8554 9.1936 25.2906 9.5608 25.3314 10.1728H27.8474C27.7522 8.3504 26.3514 7.3168 24.2706 7.3168C22.2714 7.3168 20.789 8.3232 20.789 10.132C20.7618 13.5184 25.5354 12.5664 25.5354 14.3344C25.5354 14.892 25.1002 15.232 24.4202 15.232C23.7674 15.232 23.305 14.8784 23.237 14.144H20.7618C20.8298 16.0752 22.4346 17.0952 24.4882 17.0952C26.7186 17.0952 27.9698 15.7624 27.9698 14.1576ZM32.7466 11.1656C33.5218 11.1656 34.1746 11.6416 34.1746 12.4712H31.2642C31.4002 11.628 31.985 11.1656 32.7466 11.1656ZM36.3778 14.484H33.9026C33.7122 14.892 33.345 15.2184 32.6922 15.2184C31.9442 15.2184 31.3322 14.756 31.2506 13.7632H36.5138C36.541 13.532 36.5546 13.3008 36.5546 13.0832C36.5546 10.7712 34.9906 9.3024 32.7738 9.3024C30.5162 9.3024 28.9386 10.7984 28.9386 13.2056C28.9386 15.6128 30.5434 17.1088 32.7738 17.1088C34.6642 17.1088 36.0106 15.9664 36.3778 14.484ZM37.3191 13.192C37.3191 15.5856 38.8015 17.1088 40.6647 17.1088C41.7799 17.1088 42.5823 16.5784 43.0039 15.912V16.9864C43.0039 18.2648 42.3103 18.7272 41.4263 18.7272C40.6239 18.7272 40.0527 18.36 39.9031 17.7888H37.6047C37.8087 19.5976 39.2775 20.74 41.5351 20.74C44.1599 20.74 45.3295 19.0128 45.3295 16.9864V9.4112H43.0039V10.4856C42.5959 9.8056 41.7799 9.3024 40.6647 9.3024C38.8015 9.3024 37.3191 10.7984 37.3191 13.192ZM43.0039 13.2056C43.0039 14.416 42.2287 15.0824 41.3447 15.0824C40.4743 15.0824 39.6855 14.4024 39.6855 13.192C39.6855 11.9816 40.4743 11.3288 41.3447 11.3288C42.2287 11.3288 43.0039 11.9952 43.0039 13.2056ZM54.5056 9.4112H52.18V13.532C52.18 14.5656 51.6088 15.1368 50.7112 15.1368C49.8408 15.1368 49.256 14.5656 49.256 13.532V9.4112H46.944V13.8448C46.944 15.8712 48.1272 17.0816 49.8816 17.0816C50.9016 17.0816 51.7176 16.6192 52.18 15.9664V17H54.5056V9.4112ZM58.5016 13.4776C58.5016 12.172 59.1408 11.7912 60.2424 11.7912H60.8816V9.3296C59.8616 9.3296 59.032 9.8736 58.5016 10.676V9.4112H56.176V17H58.5016V13.4776ZM69.4188 13.2056C69.4188 10.7984 67.7052 9.3024 65.4748 9.3024C63.258 9.3024 61.5308 10.7984 61.5308 13.2056C61.5308 15.6128 63.2172 17.1088 65.4476 17.1088C67.678 17.1088 69.4188 15.6128 69.4188 13.2056ZM63.8972 13.2056C63.8972 11.9136 64.6316 11.3152 65.4748 11.3152C66.2908 11.3152 67.0524 11.9136 67.0524 13.2056C67.0524 14.484 66.2772 15.096 65.4476 15.096C64.6044 15.096 63.8972 14.484 63.8972 13.2056Z" fill="white"/>
<path d="M43.5 29L40 24L47 24L43.5 29Z" fill="#1C2833"/>
</svg>
