<svg width="24" height="24" viewBox="0 0 24 24" fill="none" xmlns="http://www.w3.org/2000/svg">
<path fill-rule="evenodd" clip-rule="evenodd" d="M12 2C17.5146 2 22 6.48542 22 12C22 17.5146 17.5146 22 12 22C6.48542 22 2 17.5146 2 12C2 6.48542 6.48542 2 12 2ZM12 3.30841C7.20804 3.30841 3.30841 7.20804 3.30841 12C3.30841 16.792 7.20804 20.6916 12 20.6916C16.792 20.6916 20.6916 16.792 20.6916 12C20.6916 7.20804 16.792 3.30841 12 3.30841ZM15.3355 12.7477C16.1329 12.7477 16.7875 13.3603 16.8542 14.1405L16.8598 14.272V14.5878C16.8598 16.4274 14.7162 17.7944 12 17.7944C9.36368 17.7944 7.26678 16.5066 7.14571 14.7489L7.14019 14.5878V14.272C7.14019 13.4746 7.75284 12.82 8.53299 12.7533L8.66448 12.7477H15.3355ZM15.3355 14.0561H8.66448C8.56526 14.0561 8.48149 14.1233 8.45632 14.2146L8.4486 14.272V14.5878C8.4486 15.5498 9.9166 16.486 12 16.486C14.009 16.486 15.4458 15.6155 15.5458 14.6908L15.5514 14.5878V14.272C15.5514 14.1529 15.4546 14.0561 15.3355 14.0561ZM12 6.20561C13.6515 6.20561 14.9907 7.54477 14.9907 9.19626C14.9907 10.8478 13.6515 12.1869 12 12.1869C10.3485 12.1869 9.00935 10.8478 9.00935 9.19626C9.00935 7.54477 10.3485 6.20561 12 6.20561ZM12 7.51402C11.0711 7.51402 10.3178 8.26738 10.3178 9.19626C10.3178 10.1251 11.0711 10.8785 12 10.8785C12.9289 10.8785 13.6822 10.1251 13.6822 9.19626C13.6822 8.26738 12.9289 7.51402 12 7.51402Z" fill="white"/>
</svg>
