<svg width="93" height="31" viewBox="0 0 93 31" fill="none" xmlns="http://www.w3.org/2000/svg">
<path opacity="0.2" d="M42.0266 7.00439H41.6194H39.3389H14.3347L7.08594 26.0629C7.08594 27.0403 7.90041 27.8548 8.87777 27.8548H41.6194H42.0266L50.9858 26.1444C51.7188 26.1444 52.3703 25.7372 52.6147 25.0856C52.7776 24.7598 52.859 24.3526 52.6147 24.0268C52.5332 23.9453 52.5332 23.9453 52.4518 23.8639C52.3703 23.7824 52.2889 23.701 52.2075 23.701C51.8817 23.5381 51.5559 23.6195 51.2301 23.5381C50.3342 23.4566 49.3568 23.2938 48.4609 23.2123C47.565 23.0494 46.5876 22.968 45.6917 22.8051C45.5288 22.8051 45.3659 22.7236 45.1216 22.8051C45.0401 22.8051 44.8772 22.8865 44.7958 22.8865C44.6329 22.8865 44.6329 22.7236 44.6329 22.5607C44.5515 22.0721 44.47 21.6648 44.3886 21.1761C44.2257 20.4431 44.1442 19.6287 43.9813 18.8956C43.8184 17.9997 43.6555 17.0224 43.4927 16.1264C43.3298 15.1491 43.1669 14.1717 43.004 13.1944C42.8411 12.2984 42.6782 11.4025 42.5967 10.5066C42.5153 9.77359 42.3524 9.12202 42.271 8.389C42.1895 7.98177 42.1081 7.65597 42.1081 7.24874C42.1081 7.08584 42.0266 7.08584 42.0266 7.00439Z" fill="#858C94"/>
<path d="M34.1261 6.43427H7.7373V24.8412C7.7373 25.8186 8.47033 26.5516 9.44769 26.5516H32.0899L34.1261 6.43427Z" fill="#0D9CCA"/>
<path d="M43.0854 24.9227L31.8457 26.5516V6.43427H44.7957V23.2123C44.7957 24.1897 44.0627 24.9227 43.0854 24.9227Z" fill="#2C6D95"/>
<path d="M52.4518 0H28.0992L20.2803 6.59719H44.6329L52.4518 0Z" fill="#0D9CCA"/>
<path d="M0 0H24.434L32.1715 6.59719H7.81889L0 0Z" fill="#2C6D95"/>
<path opacity="0.2" d="M81.2834 9.69214H80.8762H78.5957H53.5915L46.3428 28.7507C46.3428 29.7281 47.1573 30.5425 48.1346 30.5425H80.8762H81.2834L90.2426 28.8321C90.9756 28.8321 91.6272 28.4249 91.8715 27.7733C92.0344 27.4475 92.1159 27.0403 91.8715 26.7145C91.7901 26.6331 91.7901 26.6331 91.7086 26.5516C91.6272 26.4702 91.5457 26.3887 91.4643 26.3887C91.1385 26.2258 90.8127 26.3073 90.4869 26.2258C89.591 26.1444 88.6137 25.9815 87.7177 25.9001C86.8218 25.7372 85.8445 25.6557 84.9486 25.4928C84.7857 25.4928 84.6228 25.4114 84.3784 25.4928C84.297 25.4928 84.1341 25.5743 84.0526 25.5743C83.8897 25.5743 83.8897 25.4114 83.8897 25.2485C83.8083 24.7598 83.7268 24.3526 83.6454 23.8639C83.4825 23.1309 83.4011 22.3164 83.2382 21.5834C83.0753 20.6875 82.9124 19.7101 82.7495 18.8142C82.5866 17.8368 82.4237 16.8595 82.2608 15.8821C82.0979 14.9862 81.935 14.0903 81.8536 13.1944C81.7721 12.4613 81.6092 11.8098 81.5278 11.0767C81.4463 10.6695 81.3649 10.3437 81.3649 9.93648C81.2834 9.77359 81.2834 9.69214 81.2834 9.69214Z" fill="#858C94"/>
<path d="M73.0572 9.44775H46.6685V27.8547C46.6685 28.8321 47.4015 29.5651 48.3788 29.5651H70.9396L73.0572 9.44775Z" fill="#0D9CCA"/>
<path d="M82.0165 27.9362L70.7769 29.5651V9.44775H83.7269V26.2258C83.7269 27.1217 82.9939 27.9362 82.0165 27.9362Z" fill="#2C6D95"/>
<path d="M91.3829 3.01349H67.0303L59.2114 9.61068H83.564L91.3829 3.01349Z" fill="#0D9CCA"/>
<path d="M39.0127 3.01349H63.3653L71.1842 9.61068H46.7501L39.0127 3.01349Z" fill="#2C6D95"/>
</svg>
