<svg width="73" height="91" viewBox="0 0 73 91" fill="none" xmlns="http://www.w3.org/2000/svg">
<g opacity="0.4">
<path fill-rule="evenodd" clip-rule="evenodd" d="M7.56003 89.7128C7.56003 90.1479 16.433 90.5007 27.3782 90.5007C38.3235 90.5007 47.1963 90.1479 47.1963 89.7128C47.1963 89.2776 38.3235 88.9249 27.3782 88.9249C16.433 88.9249 7.56003 89.2776 7.56003 89.7128Z" fill="#E7E7E7"/>
<path fill-rule="evenodd" clip-rule="evenodd" d="M56.9767 88.1708C56.9767 88.606 60.4337 88.9588 64.6981 88.9588C68.9625 88.9588 72.4194 88.606 72.4194 88.1708C72.4194 87.7357 68.9625 87.3829 64.6981 87.3829C60.4337 87.3829 56.9767 87.7357 56.9767 88.1708Z" fill="#E7E7E7"/>
</g>
<path fill-rule="evenodd" clip-rule="evenodd" d="M65.9818 71.2201H6.31149V55.8866H65.9818V71.2201ZM66.9131 72.1459H5.38016V55.3182H66.9131V72.1459Z" fill="#D0D2D3"/>
<path opacity="0.49486" fill-rule="evenodd" clip-rule="evenodd" d="M58.2598 71.683H14.0331V55.2656H58.2598V71.683Z" fill="#D0D2D3"/>
<path fill-rule="evenodd" clip-rule="evenodd" d="M57.1605 52.251H37.6893V30.2737H57.1605V52.251ZM58.0918 53.1765H36.758V29.3478H58.0918V53.1765Z" fill="#222E41"/>
<path fill-rule="evenodd" clip-rule="evenodd" d="M65.9818 71.2202H6.31149V19.6395H65.9818V71.2202ZM66.9131 72.1461H5.38016V18.7136H66.9131V72.1461Z" fill="#D0D2D3"/>
<path fill-rule="evenodd" clip-rule="evenodd" d="M64.5097 82.4875L53.9089 71.9495L54.4556 71.4058L65.0566 81.9438L64.5097 82.4875Z" fill="#D0D2D3"/>
<path fill-rule="evenodd" clip-rule="evenodd" d="M45.7055 74.5968C45.7055 82.1234 39.5459 88.247 31.9748 88.247C24.4034 88.247 18.2438 82.1234 18.2438 74.5968C18.2438 67.07 24.4034 60.9467 31.9748 60.9467C39.5459 60.9467 45.7055 67.07 45.7055 74.5968ZM47.5679 74.5968C47.5679 66.0492 40.5728 59.0953 31.9748 59.0953C23.3765 59.0953 16.3812 66.0492 16.3812 74.5968C16.3812 83.1445 23.3765 90.0984 31.9748 90.0984C40.5728 90.0984 47.5679 83.1445 47.5679 74.5968Z" fill="#222E41"/>
<path fill-rule="evenodd" clip-rule="evenodd" d="M68.7301 82.4154C68.7301 84.6093 66.9346 86.3943 64.7277 86.3943C62.5205 86.3943 60.7253 84.6093 60.7253 82.4154C60.7253 80.2215 62.5205 78.4365 64.7277 78.4365C66.9346 78.4365 68.7301 80.2215 68.7301 82.4154ZM70.5928 82.4154C70.5928 79.2003 67.9618 76.5848 64.7277 76.5848C61.4939 76.5848 58.8626 79.2003 58.8626 82.4154C58.8626 85.6302 61.4939 88.246 64.7277 88.246C67.9618 88.246 70.5928 85.6302 70.5928 82.4154Z" fill="#222E41"/>
<path fill-rule="evenodd" clip-rule="evenodd" d="M67.4141 82.4153C67.4141 83.8899 66.2114 85.0852 64.7281 85.0852C63.2448 85.0852 62.0427 83.8899 62.0427 82.4153C62.0427 80.9407 63.2448 79.7454 64.7281 79.7454C66.2114 79.7454 67.4141 80.9407 67.4141 82.4153Z" fill="#222E41"/>
<path opacity="0.218482" fill-rule="evenodd" clip-rule="evenodd" d="M57.1605 40.7994H37.6893V30.2737H57.1605V40.7994ZM58.0918 41.7252H36.758V29.3478H58.0918V41.7252Z" fill="#222E41"/>
<path fill-rule="evenodd" clip-rule="evenodd" d="M66.9136 0H5.379L-0.000106812 16.3667V21.1154C-0.000106812 23.6985 2.10622 25.7927 4.70461 25.7927C6.81425 25.7927 8.59928 24.4123 9.19632 22.5109C9.79363 24.4123 11.5787 25.7927 13.688 25.7927C15.7974 25.7927 17.5824 24.4123 18.1795 22.5109C18.777 24.4123 20.5621 25.7927 22.6712 25.7927C24.7808 25.7927 26.5658 24.4123 27.1629 22.5109C27.7602 24.4123 29.5452 25.7927 31.6546 25.7927C33.7642 25.7927 35.5493 24.4123 36.1463 22.5109C36.7436 24.4123 38.5286 25.7927 40.638 25.7927C42.7474 25.7927 44.5324 24.4123 45.1294 22.5109C45.7267 24.4123 47.5118 25.7927 49.6211 25.7927C51.7308 25.7927 53.5158 24.4123 54.1128 22.5109C54.7102 24.4123 56.4952 25.7927 58.6046 25.7927C60.7142 25.7927 62.499 24.4123 63.0963 22.5109C63.6936 24.4123 65.4786 25.7927 67.5877 25.7927C70.1864 25.7927 72.293 23.6985 72.293 21.1154V16.3667L66.9136 0Z" fill="#2C6D95"/>
<path fill-rule="evenodd" clip-rule="evenodd" d="M20.8486 0H13.0952L9.19611 16.3667V22.5109C9.79342 24.4123 11.5784 25.7927 13.6878 25.7927C15.7975 25.7927 17.5825 24.4123 18.1795 22.5109V16.3667L20.8486 0Z" fill="#7CCCF8"/>
<path fill-rule="evenodd" clip-rule="evenodd" d="M28.4627 0L27.1631 16.3667V22.5109C27.7604 24.4123 29.5454 25.7927 31.6548 25.7927C33.7642 25.7927 35.5492 24.4123 36.1465 22.5109V0H28.4627Z" fill="#7CCCF8"/>
<path fill-rule="evenodd" clip-rule="evenodd" d="M45.1299 16.3667V22.5109C45.7272 24.4123 47.5122 25.7927 49.6216 25.7927C51.7312 25.7927 53.516 24.4123 54.1133 22.5109V16.3667L51.5141 0H43.8305L45.1299 16.3667Z" fill="#7CCCF8"/>
<path fill-rule="evenodd" clip-rule="evenodd" d="M72.293 21.1154V16.3667L66.9139 0H59.1977L63.0963 16.3667V22.5109C63.6936 24.4126 65.4786 25.7927 67.588 25.7927C70.1864 25.7927 72.293 23.6985 72.293 21.1154Z" fill="#7CCCF8"/>
<g style="mix-blend-mode:multiply" opacity="0.295717">
<path fill-rule="evenodd" clip-rule="evenodd" d="M9.19632 22.511C9.79363 24.4127 11.5787 25.7928 13.688 25.7928C15.7974 25.7928 17.5824 24.4127 18.1795 22.511C18.777 24.4127 20.5618 25.7928 22.6712 25.7928C24.7808 25.7928 26.5658 24.4127 27.1629 22.511C27.7602 24.4127 29.5452 25.7928 31.6546 25.7928C33.7642 25.7928 35.5493 24.4127 36.1463 22.511C36.7436 24.4127 38.5286 25.7928 40.6377 25.7928C42.7474 25.7928 44.5324 24.4127 45.1294 22.511C45.7267 24.4127 47.5118 25.7928 49.6211 25.7928C51.7308 25.7928 53.5158 24.4127 54.1128 22.511C54.7102 24.4127 56.4952 25.7928 58.6046 25.7928C60.7139 25.7928 62.499 24.4127 63.0963 22.511C63.6936 24.4127 65.4786 25.7928 67.5877 25.7928C70.1864 25.7928 72.293 23.6986 72.293 21.1155V16.3668H-0.000106812V21.1155C-0.000106812 23.6986 2.10622 25.7928 4.70461 25.7928C6.81425 25.7928 8.59928 24.4127 9.19632 22.511Z" fill="#05ADD0"/>
</g>
<path opacity="0.247694" fill-rule="evenodd" clip-rule="evenodd" d="M32.127 88.3519H31.834V60.8528H32.127V88.3519Z" fill="#222E41"/>
<path opacity="0.247694" fill-rule="evenodd" clip-rule="evenodd" d="M45.8115 74.7478H18.1497V74.4565H45.8115V74.7478Z" fill="#222E41"/>
<path opacity="0.247694" fill-rule="evenodd" clip-rule="evenodd" d="M32.127 88.3519H31.834V60.8528H32.127V88.3519Z" fill="#222E41"/>
<path opacity="0.247694" fill-rule="evenodd" clip-rule="evenodd" d="M45.8115 74.7478H18.1497V74.4565H45.8115V74.7478Z" fill="#222E41"/>
<path opacity="0.247694" fill-rule="evenodd" clip-rule="evenodd" d="M22.3042 84.4275L22.097 84.2218L41.6568 64.777L41.8638 64.9827L22.3042 84.4275Z" fill="#222E41"/>
<path opacity="0.247694" fill-rule="evenodd" clip-rule="evenodd" d="M41.6568 84.4275L22.097 64.9827L22.3042 64.777L41.8638 84.2218L41.6568 84.4275Z" fill="#222E41"/>
<path opacity="0.247694" fill-rule="evenodd" clip-rule="evenodd" d="M26.5642 87.2546L26.296 87.1377L37.3966 61.9502L37.665 62.067L26.5642 87.2546Z" fill="#222E41"/>
<path opacity="0.247694" fill-rule="evenodd" clip-rule="evenodd" d="M44.59 80.2533L19.2531 69.218L19.3701 68.9514L44.707 79.9867L44.59 80.2533Z" fill="#222E41"/>
<path opacity="0.247694" fill-rule="evenodd" clip-rule="evenodd" d="M19.1507 79.7416L19.0446 79.4703L44.8097 69.4631L44.916 69.7343L19.1507 79.7416Z" fill="#222E41"/>
<path opacity="0.247694" fill-rule="evenodd" clip-rule="evenodd" d="M36.8773 87.4622L26.8106 61.8488L27.0834 61.7428L37.1499 87.356L36.8773 87.4622Z" fill="#222E41"/>
<path fill-rule="evenodd" clip-rule="evenodd" d="M34.6602 74.5968C34.6602 76.0714 33.4575 77.2666 31.9745 77.2666C30.4911 77.2666 29.2888 76.0714 29.2888 74.5968C29.2888 73.1222 30.4911 71.9269 31.9745 71.9269C33.4575 71.9269 34.6602 73.1222 34.6602 74.5968Z" fill="#222E41"/>
</svg>
