<svg width="62" height="62" viewBox="0 0 62 62" fill="none" xmlns="http://www.w3.org/2000/svg">
<g filter="url(#filter0_d_1862_414)">
<path d="M31 57C46.464 57 59 44.464 59 29C59 13.536 46.464 1 31 1C15.536 1 3 13.536 3 29C3 44.464 15.536 57 31 57Z" fill="white"/>
</g>
<path fill-rule="evenodd" clip-rule="evenodd" d="M26.6 17C26.4398 17 26.2796 17.0423 26.1371 17.1258L23.6258 18.596L21.3992 17.1475C21.1232 16.9678 20.7692 16.9518 20.4758 17.104C20.1836 17.2568 20 17.5543 20 17.878V38.3659C20 38.6896 20.1836 38.9871 20.4758 39.1399C20.7692 39.2926 21.1232 39.2761 21.3992 39.0964L23.6258 37.6479L26.1371 39.1181C26.4227 39.285 26.7785 39.285 27.0629 39.1181L29.1863 37.8754C28.9211 37.3415 28.7136 36.7763 28.5816 36.1822L26.6 37.3426L24.0629 35.8575C23.7641 35.6824 23.39 35.6919 23.1008 35.8792L21.8 36.7252V19.5187L23.1008 20.3647C23.39 20.5526 23.7641 20.5615 24.0629 20.3864L26.6 18.9013L29.1371 20.3864C29.4221 20.5533 29.7779 20.5533 30.0629 20.3864L32.6 18.9013L35.1371 20.3864C35.4359 20.5615 35.8094 20.5526 36.0992 20.3647L37.4 19.5187V27.0507C38.027 27.1455 38.6318 27.3054 39.2 27.5366V17.878C39.2 17.5543 39.0164 17.2568 38.7242 17.104C38.4314 16.9513 38.0774 16.9678 37.8008 17.1475L35.5742 18.596L33.0629 17.1258C32.7773 16.9589 32.4215 16.9589 32.1371 17.1258L29.6 18.6098L27.0629 17.1258C26.9204 17.0423 26.7602 17 26.6 17ZM24.5 23.439C24.1754 23.4345 23.8735 23.6009 23.7099 23.8744C23.5463 24.1479 23.5463 24.4862 23.7099 24.7597C23.8735 25.0332 24.1754 25.1996 24.5 25.1951H34.7C35.0246 25.1996 35.3265 25.0332 35.4901 24.7597C35.6537 24.4862 35.6537 24.1479 35.4901 23.8744C35.3265 23.6009 35.0246 23.4345 34.7 23.439H24.5ZM24.5 28.122C24.1754 28.1175 23.8735 28.2838 23.7099 28.5574C23.5463 28.8309 23.5463 29.1691 23.7099 29.4426C23.8735 29.7162 24.1754 29.8825 24.5 29.878H29.9C30.2246 29.8825 30.5265 29.7162 30.6901 29.4426C30.8537 29.1691 30.8537 28.8309 30.6901 28.5574C30.5265 28.2838 30.2246 28.1175 29.9 28.122H24.5ZM36.2 28.122C32.555 28.122 29.6 31.0049 29.6 34.561C29.6 38.1171 32.555 41 36.2 41C39.845 41 42.8 38.1171 42.8 34.561C42.8 31.0049 39.845 28.122 36.2 28.122ZM36.2 29.878C36.5318 29.878 36.8 30.1403 36.8 30.4634V31.0579C37.7264 31.1036 38.3173 31.6195 38.5039 31.9017C38.6839 32.1733 38.6042 32.5361 38.3258 32.7111C38.0468 32.885 37.6749 32.809 37.4961 32.5373C37.4943 32.5373 37.2357 32.2195 36.6723 32.2195H35.75C35.2538 32.2195 34.85 32.6135 34.85 33.0976C34.85 33.5817 35.2538 33.9756 35.75 33.9756H36.8C37.958 33.9756 38.9 34.8946 38.9 36.0244C38.9 37.1541 37.958 38.0732 36.8 38.0732V38.6585C36.8 38.9817 36.5318 39.2439 36.2 39.2439C35.8682 39.2439 35.6 38.9817 35.6 38.6585V38.0709C34.8536 38.0656 34.1708 37.7992 33.6758 37.3163C33.4412 37.0874 33.4412 36.7186 33.6758 36.4897C33.9104 36.2608 34.2896 36.2608 34.5242 36.4897C34.7174 36.6776 35.0649 36.9024 35.6223 36.9024H36.8C37.2962 36.9024 37.7 36.5085 37.7 36.0244C37.7 35.5403 37.2962 35.1463 36.8 35.1463H35.75C34.592 35.1463 33.65 34.2273 33.65 33.0976C33.65 32.0181 34.5134 31.1403 35.6 31.0636V30.4634C35.6 30.1403 35.8682 29.878 36.2 29.878ZM24.5 31.6341C24.1754 31.6297 23.8735 31.796 23.7099 32.0695C23.5463 32.3431 23.5463 32.6813 23.7099 32.9548C23.8735 33.2284 24.1754 33.3947 24.5 33.3902H27.5C27.8246 33.3947 28.1265 33.2284 28.2901 32.9548C28.4537 32.6813 28.4537 32.3431 28.2901 32.0695C28.1265 31.796 27.8246 31.6297 27.5 31.6341H24.5Z" fill="#0D9CCA"/>
<defs>
<filter id="filter0_d_1862_414" x="0" y="0" width="62" height="62" filterUnits="userSpaceOnUse" color-interpolation-filters="sRGB">
<feFlood flood-opacity="0" result="BackgroundImageFix"/>
<feColorMatrix in="SourceAlpha" type="matrix" values="0 0 0 0 0 0 0 0 0 0 0 0 0 0 0 0 0 0 127 0" result="hardAlpha"/>
<feOffset dy="2"/>
<feGaussianBlur stdDeviation="1.5"/>
<feColorMatrix type="matrix" values="0 0 0 0 0.021047 0 0 0 0 0.0245972 0 0 0 0 0.0334296 0 0 0 0.115357 0"/>
<feBlend mode="normal" in2="BackgroundImageFix" result="effect1_dropShadow_1862_414"/>
<feBlend mode="normal" in="SourceGraphic" in2="effect1_dropShadow_1862_414" result="shape"/>
</filter>
</defs>
</svg>
