<svg width="23" height="24" viewBox="0 0 23 24" fill="none" xmlns="http://www.w3.org/2000/svg">
<path fill-rule="evenodd" clip-rule="evenodd" d="M6.6 0C6.4398 0 6.27961 0.0423476 6.13711 0.125762L3.62578 1.59604L1.39922 0.147485C1.12322 -0.0322226 0.769181 -0.0481555 0.475781 0.10404C0.183581 0.25682 0 0.554341 0 0.878049V21.3659C0 21.6896 0.183581 21.9871 0.475781 22.1399C0.769181 22.2926 1.12322 22.2761 1.39922 22.0964L3.62578 20.6479L6.13711 22.1181C6.42271 22.285 6.77849 22.285 7.06289 22.1181L9.18633 20.8754C8.92113 20.3415 8.71364 19.7763 8.58164 19.1822L6.6 20.3426L4.06289 18.8575C3.76409 18.6824 3.38998 18.6919 3.10078 18.8792L1.8 19.7252V2.51867L3.10078 3.36471C3.38998 3.55261 3.76409 3.56146 4.06289 3.38643L6.6 1.9013L9.13711 3.38643C9.42211 3.55326 9.77789 3.55326 10.0629 3.38643L12.6 1.9013L15.1371 3.38643C15.4359 3.56146 15.8094 3.55261 16.0992 3.36471L17.4 2.51867V10.0507C18.027 10.1455 18.6318 10.3054 19.2 10.5366V0.878049C19.2 0.554341 19.0164 0.25682 18.7242 0.10404C18.4314 -0.0487408 18.0774 -0.0322226 17.8008 0.147485L15.5742 1.59604L13.0629 0.125762C12.7773 -0.0410671 12.4215 -0.041067 12.1371 0.125762L9.6 1.60976L7.06289 0.125762C6.92039 0.0423475 6.7602 0 6.6 0ZM4.5 6.43902C4.17543 6.43455 3.87353 6.60091 3.7099 6.87442C3.54628 7.14793 3.54628 7.48621 3.7099 7.75972C3.87353 8.03323 4.17543 8.1996 4.5 8.19512H14.7C15.0246 8.1996 15.3265 8.03323 15.4901 7.75972C15.6537 7.48621 15.6537 7.14793 15.4901 6.87442C15.3265 6.60091 15.0246 6.43455 14.7 6.43902H4.5ZM4.5 11.122C4.17543 11.1175 3.87353 11.2838 3.7099 11.5574C3.54628 11.8309 3.54628 12.1691 3.7099 12.4426C3.87353 12.7162 4.17543 12.8825 4.5 12.878H9.9C10.2246 12.8825 10.5265 12.7162 10.6901 12.4426C10.8537 12.1691 10.8537 11.8309 10.6901 11.5574C10.5265 11.2838 10.2246 11.1175 9.9 11.122H4.5ZM16.2 11.122C12.555 11.122 9.6 14.0049 9.6 17.561C9.6 21.1171 12.555 24 16.2 24C19.845 24 22.8 21.1171 22.8 17.561C22.8 14.0049 19.845 11.122 16.2 11.122ZM16.2 12.878C16.5318 12.878 16.8 13.1403 16.8 13.4634V14.0579C17.7264 14.1036 18.3173 14.6195 18.5039 14.9017C18.6839 15.1733 18.6042 15.5361 18.3258 15.7111C18.0468 15.885 17.6749 15.809 17.4961 15.5373C17.4943 15.5373 17.2357 15.2195 16.6723 15.2195H15.75C15.2538 15.2195 14.85 15.6135 14.85 16.0976C14.85 16.5817 15.2538 16.9756 15.75 16.9756H16.8C17.958 16.9756 18.9 17.8946 18.9 19.0244C18.9 20.1541 17.958 21.0732 16.8 21.0732V21.6585C16.8 21.9817 16.5318 22.2439 16.2 22.2439C15.8682 22.2439 15.6 21.9817 15.6 21.6585V21.0709C14.8536 21.0656 14.1708 20.7992 13.6758 20.3163C13.4412 20.0874 13.4412 19.7186 13.6758 19.4897C13.9104 19.2608 14.2896 19.2608 14.5242 19.4897C14.7174 19.6776 15.0649 19.9024 15.6223 19.9024H16.8C17.2962 19.9024 17.7 19.5085 17.7 19.0244C17.7 18.5403 17.2962 18.1463 16.8 18.1463H15.75C14.592 18.1463 13.65 17.2273 13.65 16.0976C13.65 15.0181 14.5134 14.1403 15.6 14.0636V13.4634C15.6 13.1403 15.8682 12.878 16.2 12.878ZM4.5 14.6341C4.17543 14.6297 3.87353 14.796 3.7099 15.0695C3.54628 15.3431 3.54628 15.6813 3.7099 15.9548C3.87353 16.2284 4.17543 16.3947 4.5 16.3902H7.5C7.82457 16.3947 8.12647 16.2284 8.2901 15.9548C8.45372 15.6813 8.45372 15.3431 8.2901 15.0695C8.12647 14.796 7.82457 14.6297 7.5 14.6341H4.5Z" fill="#0D9CCA"/>
</svg>
