<svg width="27" height="28" viewBox="0 0 27 28" fill="none" xmlns="http://www.w3.org/2000/svg">
<path fill-rule="evenodd" clip-rule="evenodd" d="M7.7 0C7.5131 0 7.32621 0.0494055 7.15996 0.146723L4.23008 1.86204L1.63242 0.172066C1.31042 -0.037593 0.897378 -0.0561814 0.555078 0.12138C0.214178 0.299623 0 0.646732 0 1.02439V24.9268C0 25.3045 0.214178 25.6516 0.555078 25.8298C0.897378 26.0081 1.31042 25.9888 1.63242 25.7792L4.23008 24.0892L7.15996 25.8045C7.49316 25.9991 7.90824 25.9991 8.24004 25.8045L10.7174 24.3546C10.408 23.7318 10.1659 23.0724 10.0119 22.3792L7.7 23.733L4.74004 22.0004C4.39144 21.7962 3.95498 21.8072 3.61758 22.0257L2.1 23.0128V2.93845L3.61758 3.9255C3.95498 4.14471 4.39144 4.15503 4.74004 3.95084L7.7 2.21818L10.66 3.95084C10.9925 4.14547 11.4075 4.14547 11.74 3.95084L14.7 2.21818L17.66 3.95084C18.0086 4.15503 18.4443 4.14471 18.7824 3.9255L20.3 2.93845V11.7258C21.0315 11.8364 21.7371 12.0229 22.4 12.2927V1.02439C22.4 0.646732 22.1858 0.299623 21.8449 0.12138C21.5033 -0.0568643 21.0903 -0.037593 20.7676 0.172066L18.1699 1.86204L15.24 0.146723C14.9068 -0.0479116 14.4918 -0.0479116 14.16 0.146723L11.2 1.87805L8.24004 0.146723C8.07379 0.0494055 7.8869 0 7.7 0ZM5.25 7.5122C4.87133 7.50697 4.51911 7.70107 4.32822 8.02016C4.13732 8.33926 4.13732 8.73391 4.32822 9.05301C4.51911 9.3721 4.87133 9.5662 5.25 9.56098H17.15C17.5287 9.5662 17.8809 9.3721 18.0718 9.05301C18.2627 8.73391 18.2627 8.33926 18.0718 8.02016C17.8809 7.70107 17.5287 7.50697 17.15 7.5122H5.25ZM5.25 12.9756C4.87133 12.9704 4.51911 13.1645 4.32822 13.4836C4.13732 13.8027 4.13732 14.1973 4.32822 14.5164C4.51911 14.8355 4.87133 15.0296 5.25 15.0244H11.55C11.9287 15.0296 12.2809 14.8355 12.4718 14.5164C12.6627 14.1973 12.6627 13.8027 12.4718 13.4836C12.2809 13.1645 11.9287 12.9704 11.55 12.9756H5.25ZM18.9 12.9756C14.6475 12.9756 11.2 16.339 11.2 20.4878C11.2 24.6366 14.6475 28 18.9 28C23.1525 28 26.6 24.6366 26.6 20.4878C26.6 16.339 23.1525 12.9756 18.9 12.9756ZM18.9 15.0244C19.2871 15.0244 19.6 15.3303 19.6 15.7073V16.4009C20.6808 16.4542 21.3702 17.0561 21.5879 17.3853C21.7979 17.7022 21.7049 18.1255 21.3801 18.3296C21.0546 18.5325 20.6207 18.4438 20.4121 18.1269C20.41 18.1269 20.1083 17.7561 19.451 17.7561H18.375C17.7961 17.7561 17.325 18.2157 17.325 18.7805C17.325 19.3453 17.7961 19.8049 18.375 19.8049H19.6C20.951 19.8049 22.05 20.8771 22.05 22.1951C22.05 23.5132 20.951 24.5854 19.6 24.5854V25.2683C19.6 25.6453 19.2871 25.9512 18.9 25.9512C18.5129 25.9512 18.2 25.6453 18.2 25.2683V24.5827C17.3292 24.5766 16.5326 24.2658 15.9551 23.7024C15.6814 23.4353 15.6814 23.005 15.9551 22.738C16.2288 22.471 16.6712 22.471 16.9449 22.738C17.1703 22.9572 17.5757 23.2195 18.226 23.2195H19.6C20.1789 23.2195 20.65 22.7599 20.65 22.1951C20.65 21.6303 20.1789 21.1707 19.6 21.1707H18.375C17.024 21.1707 15.925 20.0985 15.925 18.7805C15.925 17.5212 16.9323 16.497 18.2 16.4076V15.7073C18.2 15.3303 18.5129 15.0244 18.9 15.0244ZM5.25 17.0732C4.87133 17.0679 4.51911 17.262 4.32822 17.5811C4.13732 17.9002 4.13732 18.2949 4.32822 18.614C4.51911 18.9331 4.87133 19.1272 5.25 19.122H8.75C9.12867 19.1272 9.48089 18.9331 9.67178 18.614C9.86268 18.2949 9.86268 17.9002 9.67178 17.5811C9.48089 17.262 9.12867 17.0679 8.75 17.0732H5.25Z" fill="white"/>
</svg>
