<svg width="62" height="62" viewBox="0 0 62 62" fill="none" xmlns="http://www.w3.org/2000/svg">
<g filter="url(#filter0_d_1862_399)">
<path d="M31 57C46.464 57 59 44.464 59 29C59 13.536 46.464 1 31 1C15.536 1 3 13.536 3 29C3 44.464 15.536 57 31 57Z" fill="white"/>
</g>
<path fill-rule="evenodd" clip-rule="evenodd" d="M22.9 17C20.7568 17 19 18.757 19 20.9004V30.5013V34.0724C19 35.2645 20.4593 36.0066 21.4234 35.3065L23.8563 33.5368C24.161 35.3858 25.7663 36.8019 27.7 36.8019H35.207L40.5766 40.707C40.8436 40.9008 41.1568 41 41.473 41C41.7094 41 41.9472 40.9446 42.1668 40.8324C42.681 40.5708 43 40.0496 43 39.4729V26.3009C43 24.1503 41.2504 22.4005 39.1 22.4005H38.2V20.9004C38.2 18.757 36.4432 17 34.3 17H22.9ZM22.9 18.8002H34.3C35.47 18.8002 36.4 19.7302 36.4 20.9004V27.501C36.4 28.6712 35.47 29.6012 34.3 29.6012H26.5C26.3097 29.6012 26.1242 29.6615 25.9703 29.7735L20.8 33.5344V30.5013V20.9004C20.8 19.7302 21.73 18.8002 22.9 18.8002ZM24.7 21.2004C24.3754 21.1958 24.0735 21.3664 23.9099 21.6467C23.7463 21.9271 23.7463 22.2739 23.9099 22.5543C24.0735 22.8346 24.3754 23.0052 24.7 23.0006H32.5C32.8246 23.0052 33.1265 22.8346 33.2901 22.5543C33.4537 22.2739 33.4537 21.9271 33.2901 21.6467C33.1265 21.3664 32.8246 21.1958 32.5 21.2004H24.7ZM38.2 24.2007H39.1C40.258 24.2007 41.2 25.1428 41.2 26.3009V38.935L36.0297 35.174C35.8761 35.0624 35.6902 35.0018 35.5 35.0018H27.7C26.542 35.0018 25.6 34.0597 25.6 32.9016V32.2687L26.793 31.4014H34.3C36.4432 31.4014 38.2 29.6444 38.2 27.501V24.2007ZM24.7 25.4008C24.3754 25.3962 24.0735 25.5668 23.9099 25.8471C23.7463 26.1275 23.7463 26.4743 23.9099 26.7547C24.0735 27.035 24.3754 27.2056 24.7 27.201H30.7C31.0246 27.2056 31.3265 27.035 31.4901 26.7547C31.6537 26.4743 31.6537 26.1275 31.4901 25.8471C31.3265 25.5668 31.0246 25.3962 30.7 25.4008H24.7Z" fill="#0D9CCA"/>
<defs>
<filter id="filter0_d_1862_399" x="0" y="0" width="62" height="62" filterUnits="userSpaceOnUse" color-interpolation-filters="sRGB">
<feFlood flood-opacity="0" result="BackgroundImageFix"/>
<feColorMatrix in="SourceAlpha" type="matrix" values="0 0 0 0 0 0 0 0 0 0 0 0 0 0 0 0 0 0 127 0" result="hardAlpha"/>
<feOffset dy="2"/>
<feGaussianBlur stdDeviation="1.5"/>
<feColorMatrix type="matrix" values="0 0 0 0 0.021047 0 0 0 0 0.0245972 0 0 0 0 0.0334296 0 0 0 0.115357 0"/>
<feBlend mode="normal" in2="BackgroundImageFix" result="effect1_dropShadow_1862_399"/>
<feBlend mode="normal" in="SourceGraphic" in2="effect1_dropShadow_1862_399" result="shape"/>
</filter>
</defs>
</svg>
