<svg width="28" height="28" viewBox="0 0 28 28" fill="none" xmlns="http://www.w3.org/2000/svg">
<path fill-rule="evenodd" clip-rule="evenodd" d="M4.55 0C2.04964 0 0 2.04984 0 4.55044V15.7515V19.9178C0 21.3086 1.70246 22.1744 2.82734 21.3576L5.66563 19.2929C6.02113 21.4501 7.89396 23.1023 10.15 23.1023H18.9082L25.1727 27.6582C25.4842 27.8843 25.8497 28 26.2186 28C26.4944 28 26.7717 27.9354 27.0279 27.8045C27.6278 27.4992 28 26.8911 28 26.2184V10.8511C28 8.34201 25.9588 6.30062 23.45 6.30062H22.4V4.55044C22.4 2.04984 20.3504 0 17.85 0H4.55ZM4.55 2.10021H17.85C19.215 2.10021 20.3 3.18527 20.3 4.55044V12.2512C20.3 13.6164 19.215 14.7014 17.85 14.7014H8.75C8.52794 14.7014 8.31159 14.7718 8.13203 14.9024L2.1 19.2902V15.7515V4.55044C2.1 3.18527 3.18496 2.10021 4.55 2.10021ZM6.65 4.90048C6.27133 4.89512 5.91911 5.09409 5.72822 5.4212C5.53732 5.7483 5.53732 6.15286 5.72822 6.47997C5.91911 6.80707 6.27133 7.00604 6.65 7.00068H15.75C16.1287 7.00604 16.4809 6.80707 16.6718 6.47997C16.8627 6.15286 16.8627 5.7483 16.6718 5.4212C16.4809 5.09409 16.1287 4.89512 15.75 4.90048H6.65ZM22.4 8.40082H23.45C24.801 8.40082 25.9 9.49993 25.9 10.8511V25.5908L19.868 21.203C19.6888 21.0728 19.4719 21.0021 19.25 21.0021H10.15C8.799 21.0021 7.7 19.9029 7.7 18.5518V17.8135L9.0918 16.8016H17.85C20.3504 16.8016 22.4 14.7518 22.4 12.2512V8.40082ZM6.65 9.80096C6.27133 9.7956 5.91911 9.99457 5.72822 10.3217C5.53732 10.6488 5.53732 11.0533 5.72822 11.3804C5.91911 11.7075 6.27133 11.9065 6.65 11.9012H13.65C14.0287 11.9065 14.3809 11.7075 14.5718 11.3804C14.7627 11.0533 14.7627 10.6488 14.5718 10.3217C14.3809 9.99457 14.0287 9.7956 13.65 9.80096H6.65Z" fill="white"/>
</svg>
