<svg width="60" height="60" viewBox="0 0 60 60" fill="none" xmlns="http://www.w3.org/2000/svg">
<g filter="url(#filter0_d_1862_386)">
<path d="M30 56C45.464 56 58 43.464 58 28C58 12.536 45.464 0 30 0C14.536 0 2 12.536 2 28C2 43.464 14.536 56 30 56Z" fill="white"/>
</g>
<path fill-rule="evenodd" clip-rule="evenodd" d="M36.7065 16C38.187 16 39.4065 17.2195 39.4065 18.7V37.3C39.4065 38.7805 38.187 40 36.7065 40H27.7065C26.226 40 25.0065 38.7805 25.0065 37.3L25.006 31.6H26.806L26.8065 37.3C26.8065 37.7656 27.1359 38.1338 27.5821 38.192L27.7065 38.2H36.7065C37.2144 38.2 37.6065 37.8079 37.6065 37.3V18.7C37.6065 18.1921 37.2144 17.8 36.7065 17.8H27.7065C27.1986 17.8 26.8065 18.1921 26.8065 18.7L26.806 25.6H25.006L25.0065 18.7C25.0065 17.2812 26.1264 16.1021 27.5228 16.0063L27.7065 16H36.7065ZM32.2065 34.6C32.7035 34.6 33.1065 35.0029 33.1065 35.5C33.1065 35.9971 32.7035 36.4 32.2065 36.4C31.7094 36.4 31.3065 35.9971 31.3065 35.5C31.3065 35.0029 31.7094 34.6 32.2065 34.6ZM22.6728 24.4871C22.9882 24.4049 23.3234 24.4995 23.5491 24.7343L26.5491 27.7308C26.7148 27.8962 26.8094 28.1196 26.8129 28.3535C26.8162 28.5963 26.7211 28.8302 26.5491 29.0019L23.5491 31.9984C23.3234 32.2332 22.9882 32.3278 22.6728 32.2457C22.3574 32.1636 22.1111 31.9175 22.0289 31.6025C21.9467 31.2875 22.0414 30.9527 22.2765 30.7272L23.7402 29.2653H16.9128C16.5882 29.2699 16.2863 29.0996 16.1227 28.8195C15.9591 28.5395 15.9591 28.1932 16.1227 27.9132C16.2863 27.6332 16.5882 27.4628 16.9128 27.4674H23.7402L22.2765 26.0055C22.0414 25.78 21.9467 25.4452 22.0289 25.1302C22.1111 24.8152 22.3574 24.5692 22.6728 24.4871ZM30.9065 27.2C31.3588 27.2 31.7381 27.5416 31.7982 27.9786L31.8065 28.1V29.5C31.8065 29.9524 31.4649 30.3316 31.0278 30.3917L30.9065 30.4H29.5065C29.0541 30.4 28.6748 30.0584 28.6147 29.6214L28.6065 29.5V28.1C28.6065 27.6476 28.948 27.2684 29.3851 27.2083L29.5065 27.2H30.9065ZM35.8065 29.3V30.4H34.7065V29.3H35.8065ZM33.7065 29.3V30.4H32.6065V29.3H33.7065ZM34.7065 28.3V29.3H33.7065V28.3H34.7065ZM33.7065 27.2V28.3H32.6065V27.2H33.7065ZM35.8065 27.2V28.3H34.7065V27.2H35.8065ZM30.9065 23.2C31.3588 23.2 31.7381 23.5416 31.7982 23.9786L31.8065 24.1V25.5C31.8065 25.9524 31.4649 26.3316 31.0278 26.3917L30.9065 26.4H29.5065C29.0541 26.4 28.6748 26.0584 28.6147 25.6214L28.6065 25.5V24.1C28.6065 23.6476 28.948 23.2684 29.3851 23.2083L29.5065 23.2H30.9065ZM34.9065 23.2C35.3588 23.2 35.7381 23.5416 35.7982 23.9786L35.8065 24.1V25.5C35.8065 25.9524 35.4649 26.3316 35.0278 26.3917L34.9065 26.4H33.5065C33.0541 26.4 32.6748 26.0584 32.6147 25.6214L32.6065 25.5V24.1C32.6065 23.6476 32.948 23.2684 33.3851 23.2083L33.5065 23.2H34.9065Z" fill="#0D9CCA"/>
<defs>
<filter id="filter0_d_1862_386" x="0" y="0" width="60" height="60" filterUnits="userSpaceOnUse" color-interpolation-filters="sRGB">
<feFlood flood-opacity="0" result="BackgroundImageFix"/>
<feColorMatrix in="SourceAlpha" type="matrix" values="0 0 0 0 0 0 0 0 0 0 0 0 0 0 0 0 0 0 127 0" result="hardAlpha"/>
<feOffset dy="2"/>
<feGaussianBlur stdDeviation="1"/>
<feComposite in2="hardAlpha" operator="out"/>
<feColorMatrix type="matrix" values="0 0 0 0 0 0 0 0 0 0 0 0 0 0 0 0 0 0 0.12 0"/>
<feBlend mode="normal" in2="BackgroundImageFix" result="effect1_dropShadow_1862_386"/>
<feBlend mode="normal" in="SourceGraphic" in2="effect1_dropShadow_1862_386" result="shape"/>
</filter>
</defs>
</svg>
