<svg width="28" height="28" viewBox="0 0 28 28" fill="none" xmlns="http://www.w3.org/2000/svg">
<path fill-rule="evenodd" clip-rule="evenodd" d="M24.1575 0C25.8848 0 27.3075 1.42275 27.3075 3.15V24.85C27.3075 26.5773 25.8848 28 24.1575 28H13.6575C11.9303 28 10.5075 26.5773 10.5075 24.85L10.507 18.2H12.607L12.6075 24.85C12.6075 25.3932 12.9919 25.8228 13.5124 25.8907L13.6575 25.9H24.1575C24.7501 25.9 25.2075 25.4426 25.2075 24.85V3.15C25.2075 2.55745 24.7501 2.1 24.1575 2.1H13.6575C13.065 2.1 12.6075 2.55745 12.6075 3.15L12.607 11.2H10.507L10.5075 3.15C10.5075 1.49472 11.8142 0.119091 13.4433 0.00732926L13.6575 0H24.1575ZM18.9075 21.7C19.4874 21.7 19.9575 22.1701 19.9575 22.75C19.9575 23.3299 19.4874 23.8 18.9075 23.8C18.3276 23.8 17.8575 23.3299 17.8575 22.75C17.8575 22.1701 18.3276 21.7 18.9075 21.7ZM7.78495 9.90156C8.15291 9.80575 8.54398 9.9161 8.80734 10.1901L12.3073 13.6859C12.5006 13.8789 12.611 14.1395 12.6151 14.4124C12.6189 14.6957 12.508 14.9686 12.3073 15.1689L8.80734 18.6648C8.54398 18.9387 8.15291 19.0491 7.78495 18.9533C7.41699 18.8575 7.12964 18.5705 7.03372 18.2029C6.93779 17.8354 7.04828 17.4448 7.32257 17.1818L9.03019 15.4762H1.06495C0.686287 15.4815 0.334069 15.2828 0.143173 14.9561C-0.0477242 14.6294 -0.0477242 14.2254 0.143173 13.8987C0.334069 13.572 0.686287 13.3733 1.06495 13.3787H9.03019L7.32257 11.6731C7.04828 11.41 6.93779 11.0194 7.03372 10.6519C7.12964 10.2844 7.41699 9.99737 7.78495 9.90156ZM17.3909 13.0667C17.9186 13.0667 18.3611 13.4652 18.4312 13.9751L18.4409 14.1167V15.75C18.4409 16.2778 18.0424 16.7203 17.5325 16.7903L17.3909 16.8H15.7575C15.2298 16.8 14.7873 16.4015 14.7172 15.8916L14.7075 15.75V14.1167C14.7075 13.5889 15.106 13.1464 15.6159 13.0763L15.7575 13.0667H17.3909ZM23.1075 15.5167V16.8H21.8242V15.5167H23.1075ZM20.6575 15.5167V16.8H19.3742V15.5167H20.6575ZM21.8242 14.35V15.5167H20.6575V14.35H21.8242ZM20.6575 13.0667V14.35H19.3742V13.0667H20.6575ZM23.1075 13.0667V14.35H21.8242V13.0667H23.1075ZM17.3909 8.4C17.9186 8.4 18.3611 8.7985 18.4312 9.30839L18.4409 9.45V11.0833C18.4409 11.6111 18.0424 12.0536 17.5325 12.1237L17.3909 12.1333H15.7575C15.2298 12.1333 14.7873 11.7348 14.7172 11.2249L14.7075 11.0833V9.45C14.7075 8.92223 15.106 8.47975 15.6159 8.40966L15.7575 8.4H17.3909ZM22.0575 8.4C22.5853 8.4 23.0278 8.7985 23.0979 9.30839L23.1075 9.45V11.0833C23.1075 11.6111 22.709 12.0536 22.1991 12.1237L22.0575 12.1333H20.4242C19.8964 12.1333 19.4539 11.7348 19.3839 11.2249L19.3742 11.0833V9.45C19.3742 8.92223 19.7727 8.47975 20.2826 8.40966L20.4242 8.4H22.0575Z" fill="white"/>
</svg>
