<svg width="24" height="24" viewBox="0 0 24 24" fill="none" xmlns="http://www.w3.org/2000/svg">
<path fill-rule="evenodd" clip-rule="evenodd" d="M3.2996 0C2.97653 0 2.67821 0.177464 2.51792 0.465144L0.117803 4.77284C-0.0388487 5.05516 -0.0392937 5.40115 0.116631 5.68389C0.253184 6.6672 0.63696 7.56971 1.1995 8.32091V23.0769C1.19955 23.5867 1.60248 24 2.09954 24H21.9005C22.3976 24 22.8005 23.5867 22.8006 23.0769V8.32332C23.3643 7.57121 23.7483 6.66644 23.8846 5.68149C24.0393 5.39915 24.0384 5.05433 23.8823 4.77284L21.4822 0.465144C21.3219 0.177464 21.0235 0 20.7005 0H3.2996ZM3.82228 1.84615H20.1778L22.1384 5.36418C21.9209 7.19431 20.4483 8.61539 18.6004 8.61539C17.6002 8.61539 16.7049 8.20129 16.0526 7.53125C15.7137 7.18353 15.1685 7.16926 14.8127 7.4988C14.0642 8.19262 13.0866 8.61539 12 8.61539C10.9135 8.61539 9.93587 8.19262 9.1874 7.4988C8.83161 7.16926 8.28642 7.18353 7.94749 7.53125C7.29513 8.2013 6.39985 8.61539 5.39971 8.61539C3.55175 8.61539 2.07913 7.19431 1.86164 5.36418L3.82228 1.84615ZM8.60143 9.26442C9.57638 9.96979 10.7173 10.4615 12 10.4615C13.2828 10.4615 14.4237 9.96979 15.3986 9.26442C16.3049 9.96764 17.3809 10.4615 18.6004 10.4615C19.4676 10.4615 20.2812 10.2455 21.0005 9.86659V22.1538H19.2004V13.2308C19.2003 12.721 18.7974 12.3077 18.3004 12.3077H13.5001C13.0031 12.3077 12.6001 12.721 12.6001 13.2308V22.1538H2.99959V9.86659C3.71889 10.2458 4.53223 10.4615 5.39971 10.4615C6.61923 10.4615 7.6952 9.96764 8.60143 9.26442ZM5.69972 12.3077C5.20266 12.3077 4.79968 12.721 4.79968 13.2308V17.5385C4.79968 18.0482 5.20266 18.4615 5.69972 18.4615H9.89993C10.397 18.4615 10.8 18.0482 10.8 17.5385V13.2308C10.8 12.721 10.397 12.3077 9.89993 12.3077H5.69972ZM6.59977 14.1538H8.99989V16.6154H6.59977V14.1538ZM14.4002 14.1538H17.4003V22.1538H14.4002V14.1538Z" fill="#EBFBFF"/>
</svg>
