<svg width="637" height="222" viewBox="0 0 637 222" fill="none" xmlns="http://www.w3.org/2000/svg">
<path fill-rule="evenodd" clip-rule="evenodd" d="M17.784 170.75C14.8009 170.751 11.9398 171.935 9.82892 174.043C7.71803 176.151 6.52975 179.01 6.52499 181.993C6.52737 184.978 7.71443 187.841 9.82545 189.951C11.9365 192.062 14.7989 193.248 17.784 193.25C20.7664 193.245 23.6249 192.056 25.7322 189.946C27.8396 187.836 29.0238 184.976 29.025 181.993C29.0208 179.013 27.8353 176.156 25.7281 174.048C23.621 171.941 20.7642 170.755 17.784 170.75ZM18 200C8.07075 200 -1.22033e-06 191.918 -7.8651e-07 181.993C-3.53276e-07 172.082 8.07075 164 18 164C27.9293 164 36 172.082 36 181.993C36 191.916 27.9292 200 18 200Z" fill="#D8F6FE"/>
<path fill-rule="evenodd" clip-rule="evenodd" d="M388.41 140.812C387.167 140.813 385.975 141.306 385.095 142.184C384.216 143.063 383.721 144.254 383.719 145.497C383.72 146.741 384.214 147.934 385.094 148.813C385.974 149.692 387.166 150.187 388.41 150.188C389.653 150.185 390.844 149.69 391.722 148.811C392.6 147.932 393.093 146.74 393.094 145.497C393.092 144.255 392.598 143.065 391.72 142.187C390.842 141.309 389.652 140.814 388.41 140.812ZM388.5 153C384.363 153 381 149.633 381 145.497C381 141.368 384.363 138 388.5 138C392.637 138 396 141.368 396 145.497C396 149.632 392.637 153 388.5 153Z" fill="#D8F6FE"/>
<path fill-rule="evenodd" clip-rule="evenodd" d="M406.88 74.75C405.223 74.7503 403.633 75.4082 402.461 76.5793C401.288 77.7504 400.628 79.3389 400.625 80.9963C400.626 82.6547 401.286 84.2447 402.459 85.4173C403.631 86.5898 405.222 87.249 406.88 87.25C408.537 87.247 410.125 86.5869 411.296 85.4145C412.466 84.2421 413.124 82.6531 413.125 80.9963C413.123 79.3406 412.464 77.7533 411.293 76.5825C410.123 75.4116 408.536 74.7526 406.88 74.75ZM407 91C401.484 91 397 86.51 397 80.9963C397 75.49 401.484 71 407 71C412.516 71 417 75.49 417 80.9963C417 86.5088 412.516 91 407 91Z" fill="#D8F6FE"/>
<path fill-rule="evenodd" clip-rule="evenodd" d="M172.422 166.745L178.327 160.851L184.21 166.746L187.75 163.213L181.868 157.319L187.757 151.441L184.226 147.902L178.337 153.78L172.446 147.877L168.906 151.41L174.798 157.313L168.891 163.208L172.422 166.745Z" fill="#D8F6FE"/>
<path fill-rule="evenodd" clip-rule="evenodd" d="M162 13.3368L170.343 13.3368L170.343 21.6654L175.344 21.6654L175.344 13.3386L183.666 13.3386L183.666 8.33935L175.346 8.33935L175.346 -1.40788e-05L170.345 -1.4516e-05L170.345 8.33934L162 8.33934L162 13.3368Z" fill="#D8F6FE"/>
<path fill-rule="evenodd" clip-rule="evenodd" d="M153 212.485C152.987 209.968 151.979 207.558 150.196 205.782C148.414 204.005 146.001 203.005 143.485 203C140.969 203.001 138.558 204.001 136.779 205.779C135.001 207.558 134.001 209.969 134 212.485C133.997 213.732 134.24 214.969 134.715 216.122C135.19 217.276 135.888 218.325 136.769 219.209C137.65 220.093 138.697 220.794 139.849 221.273C141.001 221.752 142.237 221.999 143.485 222C146.006 221.994 148.423 220.989 150.206 219.206C151.989 217.423 152.994 215.006 153 212.485Z" fill="#D8F6FE"/>
<path fill-rule="evenodd" clip-rule="evenodd" d="M443 202.494C443.005 201.567 443.376 200.679 444.033 200.025C444.69 199.37 445.578 199.002 446.506 199C447.432 199 448.321 199.369 448.976 200.024C449.631 200.679 450 201.568 450 202.494C450.001 202.954 449.912 203.409 449.736 203.835C449.561 204.26 449.304 204.646 448.98 204.972C448.655 205.297 448.27 205.556 447.845 205.732C447.421 205.909 446.965 206 446.506 206C445.577 205.998 444.686 205.628 444.029 204.971C443.372 204.314 443.002 203.423 443 202.494Z" fill="#D8F6FE"/>
<path fill-rule="evenodd" clip-rule="evenodd" d="M594.471 93.4778L606.026 81.9229L617.561 93.4578L624.488 86.5313L612.955 74.9988L624.48 63.4739L617.556 56.5499L606.034 68.0724L594.484 56.5225L587.557 63.449L599.107 74.9989L587.55 86.5563L594.471 93.4778Z" fill="#D8F6FE"/>
<path fill-rule="evenodd" clip-rule="evenodd" d="M458 161.852L469.167 161.852L469.167 173L475.862 173L475.862 161.854L487 161.854L487 155.163L475.864 155.163L475.864 144L469.17 144L469.17 155.163L458 155.163L458 161.852Z" fill="#D8F6FE"/>
</svg>
