<svg width="28" height="28" viewBox="0 0 28 28" fill="none" xmlns="http://www.w3.org/2000/svg">
<path fill-rule="evenodd" clip-rule="evenodd" d="M22.7493 0C23.6353 0 24.463 0.416379 24.9949 1.11221L25.1215 1.29191L27.5365 5.00644C27.9362 5.62215 28.0826 6.36456 27.9554 7.07829L27.9445 7.12549L27.9272 7.28043C27.7763 8.40978 27.3791 9.4569 26.7942 10.3658L26.7928 25.1405C26.7928 26.644 25.637 27.8919 24.1519 27.9933L23.9564 27.9999H4.03879C2.5267 27.9999 1.30785 26.8147 1.2089 25.3351L1.20242 25.1405L1.20219 10.3664C0.623752 9.46767 0.228858 8.43396 0.0739032 7.31953L0.0386999 7.03015L0.0288958 6.9691C-0.0461144 6.44104 0.0251341 5.90058 0.240067 5.41107L0.34097 5.20458L0.459422 5.00543L2.87253 1.29369C3.35448 0.550592 4.15111 0.0770515 5.02577 0.00859614L5.24592 0H22.7493ZM3.13345 11.482V25.1405L3.1417 25.2666C3.19616 25.6787 3.51394 26.0046 3.91587 26.0604L4.03879 26.0689H23.9564L24.0794 26.0604C24.4813 26.0046 24.7991 25.6787 24.8535 25.2666L24.8618 25.1405V11.5146L24.6276 11.7042C23.5152 12.5639 22.1336 13.0716 20.6368 13.0716C19.4816 13.0716 18.3736 12.7737 17.388 12.2036C16.3462 12.7737 15.1884 13.0716 13.9976 13.0716C12.8068 13.0716 11.649 12.7737 10.6073 12.2036C9.62166 12.7737 8.51362 13.0716 7.3584 13.0716C5.8746 13.0716 4.48859 12.5484 3.36918 11.6745L3.13345 11.482ZM12.8509 13.9628V25.1776H5.78956V15.8567C5.78956 14.8157 6.62132 13.9628 7.66042 13.9628H12.8509ZM20.3348 13.9628C21.3739 13.9628 22.2057 14.8157 22.2057 15.8567V25.1776H15.1443V13.9628H20.3348ZM10.9188 15.8936H7.72057V23.246H10.9188V15.8936ZM20.2735 15.8936H17.0752V23.246H20.2735V15.8936ZM22.7493 1.93103H5.24592L5.11779 1.94035C4.90714 1.97119 4.71332 2.07726 4.57134 2.24009L4.49265 2.34445L2.07839 6.05796L2.00699 6.19079C1.9276 6.37401 1.91115 6.579 1.95461 6.77359C2.20871 9.62247 4.55605 11.8337 7.3584 11.8337C8.53716 11.8337 9.65835 11.452 10.5872 10.7446C11.5886 11.4514 12.7736 11.8337 13.9976 11.8337C15.2216 11.8337 16.4067 11.4514 17.408 10.7446C18.3369 11.452 19.4581 11.8337 20.6368 11.8337C23.4253 11.8337 25.7637 9.64495 26.0371 6.81711C26.0939 6.60409 26.0744 6.3758 25.9814 6.17488L25.9168 6.05796L23.5026 2.34445L23.4239 2.24009C23.2819 2.07726 23.0881 1.97119 22.8774 1.94035L22.7493 1.93103Z" fill="white"/>
</svg>
