<svg width="62" height="62" viewBox="0 0 62 62" fill="none" xmlns="http://www.w3.org/2000/svg">
<g filter="url(#filter0_d_1862_633)">
<path d="M31 57C46.464 57 59 44.464 59 29C59 13.536 46.464 1 31 1C15.536 1 3 13.536 3 29C3 44.464 15.536 57 31 57Z" fill="white"/>
</g>
<path fill-rule="evenodd" clip-rule="evenodd" d="M38.4994 17C39.2589 17 39.9683 17.3569 40.4242 17.9533L40.5328 18.1074L42.6027 21.2912C42.9453 21.819 43.0708 22.4553 42.9618 23.0671L42.9524 23.1076L42.9376 23.2404C42.8082 24.2084 42.4678 25.1059 41.9664 25.885L41.9653 38.549C41.9653 39.8377 40.9745 40.9073 39.7017 40.9942L39.5341 40.9999H22.4618C21.1657 40.9999 20.121 39.984 20.0362 38.7158L20.0306 38.549L20.0304 25.8855C19.5346 25.1151 19.1962 24.2291 19.0633 23.2739L19.0332 23.0258L19.0248 22.9735C18.9605 22.5209 19.0215 22.0576 19.2058 21.6381L19.2923 21.4611L19.3938 21.2904L21.4622 18.1089C21.8753 17.4719 22.5581 17.066 23.3078 17.0074L23.4965 17H38.4994ZM21.6858 26.8417V38.549L21.6929 38.657C21.7396 39.0103 22.012 39.2896 22.3565 39.3375L22.4618 39.3448H39.5341L39.6395 39.3375C39.984 39.2896 40.2563 39.0103 40.303 38.657L40.3101 38.549V26.8697L40.1094 27.0321C39.1559 27.7691 37.9716 28.2042 36.6887 28.2042C35.6985 28.2042 34.7488 27.9489 33.904 27.4603C33.011 27.9489 32.0187 28.2042 30.998 28.2042C29.9772 28.2042 28.9849 27.9489 28.092 27.4603C27.2471 27.9489 26.2974 28.2042 25.3072 28.2042C24.0354 28.2042 22.8474 27.7558 21.8879 27.0067L21.6858 26.8417ZM30.015 28.9681V38.5808H23.9625V30.5915C23.9625 29.6992 24.6754 28.9681 25.5661 28.9681H30.015ZM36.4298 28.9681C37.3205 28.9681 38.0334 29.6992 38.0334 30.5915V38.5808H31.9809V28.9681H36.4298ZM28.359 30.6231H25.6176V36.9251H28.359V30.6231ZM36.3773 30.6231H33.6359V36.9251H36.3773V30.6231ZM38.4994 18.6552H23.4965L23.3867 18.6632C23.2061 18.6896 23.04 18.7805 22.9183 18.9201L22.8508 19.0095L20.7815 22.1925L20.7203 22.3064C20.6522 22.4634 20.6381 22.6391 20.6754 22.8059C20.8932 25.2478 22.9052 27.1432 25.3072 27.1432C26.3176 27.1432 27.2786 26.816 28.0748 26.2096C28.933 26.8155 29.9488 27.1432 30.998 27.1432C32.0471 27.1432 33.0629 26.8155 33.9211 26.2096C34.7173 26.816 35.6783 27.1432 36.6887 27.1432C39.0788 27.1432 41.0831 25.2671 41.3175 22.8432C41.3662 22.6607 41.3495 22.465 41.2698 22.2928L41.2144 22.1925L39.1451 19.0095L39.0776 18.9201C38.9559 18.7805 38.7898 18.6896 38.6092 18.6632L38.4994 18.6552Z" fill="#0D9CCA"/>
<defs>
<filter id="filter0_d_1862_633" x="0" y="0" width="62" height="62" filterUnits="userSpaceOnUse" color-interpolation-filters="sRGB">
<feFlood flood-opacity="0" result="BackgroundImageFix"/>
<feColorMatrix in="SourceAlpha" type="matrix" values="0 0 0 0 0 0 0 0 0 0 0 0 0 0 0 0 0 0 127 0" result="hardAlpha"/>
<feOffset dy="2"/>
<feGaussianBlur stdDeviation="1.5"/>
<feColorMatrix type="matrix" values="0 0 0 0 0.021047 0 0 0 0 0.0245972 0 0 0 0 0.0334296 0 0 0 0.115357 0"/>
<feBlend mode="normal" in2="BackgroundImageFix" result="effect1_dropShadow_1862_633"/>
<feBlend mode="normal" in="SourceGraphic" in2="effect1_dropShadow_1862_633" result="shape"/>
</filter>
</defs>
</svg>
