<svg width="24" height="24" viewBox="0 0 24 24" fill="none" xmlns="http://www.w3.org/2000/svg">
<path fill-rule="evenodd" clip-rule="evenodd" d="M19.4994 0C20.2589 0 20.9683 0.356897 21.4242 0.953325L21.5328 1.10735L23.6027 4.29124C23.9453 4.81899 24.0708 5.45534 23.9618 6.06711L23.9524 6.10757L23.9376 6.24037C23.8082 7.20839 23.4678 8.10592 22.9664 8.885L22.9653 21.549C22.9653 22.8377 21.9745 23.9073 20.7017 23.9942L20.5341 23.9999H3.46182C2.16574 23.9999 1.12101 22.984 1.0362 21.7158L1.03064 21.549L1.03045 8.88547C0.534644 8.11515 0.196164 7.2291 0.0633456 6.27388L0.0331713 6.02584L0.0247679 5.97351C-0.0395266 5.52089 0.0215435 5.05764 0.205771 4.63806L0.29226 4.46106L0.393791 4.29037L2.46217 1.10887C2.87527 0.471936 3.5581 0.0660442 4.3078 0.00736812L4.49651 0H19.4994ZM2.68581 9.84169V21.549L2.69289 21.657C2.73957 22.0103 3.01195 22.2896 3.35646 22.3375L3.46182 22.3448H20.5341L20.6395 22.3375C20.984 22.2896 21.2563 22.0103 21.303 21.657L21.3101 21.549V9.86966L21.1094 10.0321C20.1559 10.7691 18.9716 11.2042 17.6887 11.2042C16.6985 11.2042 15.7488 10.9489 14.904 10.4603C14.011 10.9489 13.0187 11.2042 11.998 11.2042C10.9772 11.2042 9.98488 10.9489 9.09195 10.4603C8.24713 10.9489 7.29739 11.2042 6.3072 11.2042C5.03537 11.2042 3.84736 10.7558 2.88787 10.0067L2.68581 9.84169ZM11.015 11.9681V21.5808H4.96248V13.5915C4.96248 12.6992 5.67542 11.9681 6.56607 11.9681H11.015ZM17.4298 11.9681C18.3205 11.9681 19.0334 12.6992 19.0334 13.5915V21.5808H12.9809V11.9681H17.4298ZM9.359 13.6231H6.61763V19.9251H9.359V13.6231ZM17.3773 13.6231H14.6359V19.9251H17.3773V13.6231ZM19.4994 1.65517H4.49651L4.38668 1.66316C4.20612 1.68959 4.03999 1.78051 3.91829 1.92007L3.85084 2.00953L1.78147 5.19254L1.72028 5.3064C1.65223 5.46344 1.63813 5.63914 1.67538 5.80593C1.89318 8.24783 3.90518 10.1432 6.3072 10.1432C7.31757 10.1432 8.27859 9.81601 9.07477 9.20964C9.93304 9.81548 10.9488 10.1432 11.998 10.1432C13.0471 10.1432 14.0629 9.81548 14.9211 9.20964C15.7173 9.81601 16.6783 10.1432 17.6887 10.1432C20.0788 10.1432 22.0831 8.2671 22.3175 5.84323C22.3662 5.66065 22.3495 5.46497 22.2698 5.29276L22.2144 5.19254L20.1451 2.00953L20.0776 1.92007C19.9559 1.78051 19.7898 1.68959 19.6092 1.66316L19.4994 1.65517Z" fill="#0D9CCA"/>
</svg>
