<svg width="24" height="11" viewBox="0 0 24 11" fill="none" xmlns="http://www.w3.org/2000/svg">
<path fill-rule="evenodd" clip-rule="evenodd" d="M2.36663 0V4.14732C2.91823 3.65775 3.6151 3.35528 4.44287 3.35528C6.46077 3.35528 8 5.02549 8 7.08468C8 9.14395 6.46077 10.8 4.44287 10.8C3.57164 10.8 2.83108 10.4831 2.27941 9.93592V10.656H0V0H2.36663ZM12.446 3.6C13.3172 3.6 14.0575 3.92022 14.6094 4.43568V3.73927H16.8889V10.6607H14.6094V9.9504C14.0575 10.4798 13.3172 10.8 12.446 10.8C10.4278 10.8 8.88889 9.18469 8.88889 7.19319C8.88889 5.21539 10.4278 3.6 12.446 3.6ZM23.8102 3.6V5.17911L20.7873 8.75747H24V10.8H17.7778V9.3224L20.9499 5.65709H18.0081V3.6H23.8102ZM12.9396 5.5359C12.0104 5.5359 11.299 6.27392 11.299 7.19319C11.299 8.14015 12.0104 8.86418 12.9396 8.86418C13.8689 8.86418 14.5802 8.14015 14.5802 7.19319C14.5802 6.27392 13.8689 5.5359 12.9396 5.5359ZM3.94925 5.3569C3.02004 5.3569 2.30858 6.10554 2.30858 7.08468C2.30858 8.03527 3.02004 8.7983 3.94925 8.7983C4.87845 8.7983 5.58991 8.03527 5.58991 7.08468C5.58991 6.10554 4.87845 5.3569 3.94925 5.3569Z" fill="#0D9CCA"/>
</svg>
