<svg width="28" height="13" viewBox="0 0 28 13" fill="none" xmlns="http://www.w3.org/2000/svg">
<path fill-rule="evenodd" clip-rule="evenodd" d="M2.76107 0V4.83854C3.4046 4.26737 4.21761 3.91449 5.18335 3.91449C7.53756 3.91449 9.33333 5.86307 9.33333 8.26547C9.33333 10.6679 7.53756 12.6 5.18335 12.6C4.16691 12.6 3.30293 12.2302 2.65931 11.5919V12.432H0V0H2.76107ZM14.5204 4.2C15.5367 4.2 16.4004 4.57359 17.0443 5.17496V4.36248H19.7037V12.4375H17.0443V11.6088C16.4004 12.2264 15.5367 12.6 14.5204 12.6C12.1658 12.6 10.3704 10.7155 10.3704 8.39205C10.3704 6.08462 12.1658 4.2 14.5204 4.2ZM27.7786 4.2V6.0423L24.2519 10.217H28V12.6H20.7407V10.8761L24.4415 6.59994H21.0095V4.2H27.7786ZM15.0962 6.45855C14.0121 6.45855 13.1821 7.31957 13.1821 8.39205C13.1821 9.49684 14.0121 10.3415 15.0962 10.3415C16.1803 10.3415 17.0103 9.49684 17.0103 8.39205C17.0103 7.31957 16.1803 6.45855 15.0962 6.45855ZM4.60745 6.24971C3.52338 6.24971 2.69335 7.12313 2.69335 8.26547C2.69335 9.37448 3.52338 10.2647 4.60745 10.2647C5.69153 10.2647 6.52156 9.37448 6.52156 8.26547C6.52156 7.12313 5.69153 6.24971 4.60745 6.24971Z" fill="white"/>
</svg>
