<svg width="75" height="78" viewBox="0 0 75 78" fill="none" xmlns="http://www.w3.org/2000/svg">
<path d="M36.0447 22.1816C34.5392 16.3675 31.6371 10.9882 27.8908 7.1385C24.5979 3.73546 20.9345 1.93707 18.2255 2.35146C8.29279 3.87089 9.58854 25.9338 9.62159 26.1499C9.67668 26.51 9.34452 26.8557 8.95726 26.8412C8.58102 26.8988 8.22494 26.5847 8.24509 26.213C8.17711 25.2652 6.8905 2.75857 18.0162 0.982952C21.2519 0.487988 25.1631 2.3959 28.8121 6.11302C32.7309 10.0837 35.7413 15.6676 37.2798 21.6978C37.5074 22.179 37.2505 22.5131 36.81 22.6542C36.4338 22.7118 36.175 22.5302 36.0447 22.1816Z" fill="#8200FF"/>
<path d="M3.1124 73.2372L16.7075 77.6385L20.8261 53.2938L3.44414 24.1367L0 25.5473L1.42439 70.9913C1.43254 72.0212 2.17053 72.9393 3.1124 73.2372Z" fill="#8200FF"/>
<path d="M20.8325 53.3351L3.54277 24.1216L1.51991 24.9473C1.86959 29.171 2.53251 32.5357 3.06314 35.0356C5.55251 45.4955 8.75621 48.029 8.50469 55.5896C8.28301 61.8919 6.02561 63.1222 6.87117 67.1964C7.77184 71.6308 11.5423 74.9626 15.7598 77.341L16.7673 77.6294L20.8325 53.3351Z" fill="url(#paint0_linear_138_20871)"/>
<path d="M3.09493 24.1901L50.3516 16.9611L73.6012 64.2156L16.3697 77.6902L3.09493 24.1901Z" fill="#E6CCFF"/>
<path d="M51.372 16.8051L28.3129 20.3325C27.3372 21.668 26.7551 23.1657 26.9047 24.6256C27.6305 31.7803 44.1265 31.6293 47.1857 41.0219C49.4025 47.8003 43.7259 56.9723 38.0718 61.4701C32.1627 66.2292 27.4789 65.0181 23.654 69.9033C21.9854 72.0121 21.1871 74.5067 20.8322 77.0076L74.4172 64.2881L51.372 16.8051Z" fill="#8200FF"/>
<path d="M20.3007 26.1857C20.4523 27.1765 19.7929 28.0741 18.802 28.2257C17.8111 28.3773 16.9135 27.7178 16.762 26.727C16.6104 25.7361 17.2698 24.8385 18.2607 24.6869C19.1808 24.5462 20.1491 25.1948 20.3007 26.1857Z" fill="#AC55FF"/>
<path d="M43.1805 24.4965C44.1577 24.347 44.8287 23.4337 44.6792 22.4565C44.5298 21.4792 43.6164 20.8083 42.6392 20.9577C41.662 21.1072 40.991 22.0206 41.1405 22.9978C41.29 23.975 42.2033 24.646 43.1805 24.4965Z" fill="#AC55FF"/>
<defs>
<linearGradient id="paint0_linear_138_20871" x1="30.6673" y1="8.66644" x2="37.6283" y2="90.3571" gradientUnits="userSpaceOnUse">
<stop stop-color="#8200FF"/>
<stop offset="1" stop-color="#FB6FBB"/>
</linearGradient>
</defs>
</svg>
