<svg width="86" height="80" viewBox="0 0 86 80" fill="none" xmlns="http://www.w3.org/2000/svg">
<path d="M62.8665 17.3497C62.6722 17.3507 62.4818 17.2958 62.3183 17.1914C62.1547 17.0871 62.0252 16.9378 61.9452 16.7618C61.8895 16.6416 61.8584 16.5116 61.8537 16.3794C61.8489 16.2471 61.8706 16.1153 61.9175 15.9914C61.9644 15.8676 62.0356 15.7543 62.1269 15.658C62.2182 15.5617 62.3278 15.4844 62.4493 15.4306C64.1045 14.673 70.6976 10.907 73.36 9.30409C76.859 7.2131 81.6518 3.19086 84.0565 0.355547C84.1422 0.254538 84.2471 0.171401 84.3652 0.110932C84.4833 0.0504636 84.6123 0.0138616 84.7448 0.00323896C84.8772 -0.00738367 85.0104 0.00818341 85.1368 0.0490417C85.2631 0.0898999 85.3801 0.15524 85.4809 0.241291C85.9125 0.599588 85.956 1.22855 85.5969 1.65895C83.0337 4.69393 78.1104 8.8027 74.3973 11.0357C71.9925 12.4822 65.1407 16.419 63.2836 17.2643C63.152 17.3213 63.01 17.3503 62.8665 17.3497Z" fill="#BC94FC"/>
<path d="M53.9283 64.6374L71.9507 22.3606C72.2661 21.6199 72.2734 20.7851 71.9711 20.0391C71.6688 19.2931 71.0815 18.6967 70.3378 18.3805L49.0039 9.30437C48.5906 9.12796 48.1461 9.03551 47.6963 9.03243C47.2466 9.02935 46.8008 9.11572 46.3852 9.28645C45.9695 9.45718 45.5923 9.70883 45.2759 10.0266C44.9594 10.3444 44.71 10.7219 44.5423 11.1369L27.3108 53.8286C27.0557 54.4593 27.0607 55.1646 27.3248 55.7916C27.5889 56.4186 28.0908 56.917 28.7217 57.1786L50.1996 66.1549C50.8963 66.4442 51.68 66.4469 52.3788 66.1624C53.0775 65.8779 53.6344 65.3295 53.9272 64.6374H53.9283ZM54.8061 21.6739C53.1933 20.5425 52.891 17.9368 54.244 16.5047C55.5969 15.0737 58.3898 15.0593 59.542 16.6489C60.6072 17.6938 60.7355 19.2113 59.9592 20.528C58.9509 22.2319 56.4178 22.8043 54.8061 21.6739Z" fill="#582ECD"/>
<path d="M56.7492 22.4746C55.9863 22.4746 55.2658 22.2605 54.6757 21.8445C53.8414 21.2577 53.3083 20.2993 53.1934 19.1967C53.0785 18.1085 53.4098 17.0779 54.0857 16.3613C54.8062 15.5882 56.0008 15.1589 57.1809 15.2454C58.2461 15.3164 59.1674 15.7745 59.7005 16.5189C60.8081 17.6215 60.981 19.2399 60.1322 20.6565C59.6135 21.5306 58.7067 22.1451 57.627 22.3892C57.3393 22.4324 57.0515 22.4746 56.7492 22.4746ZM54.9356 21.4873C55.6405 21.9887 56.5908 22.1451 57.5411 21.9455C58.5048 21.7458 59.3112 21.1867 59.7719 20.4135C60.5058 19.1678 60.3631 17.7513 59.3982 16.7917L59.3692 16.7629C58.9086 16.1184 58.1022 15.718 57.1664 15.6459C56.1012 15.5749 55.0505 15.9465 54.4169 16.6331C53.8258 17.2643 53.5391 18.1795 53.6395 19.1246C53.7265 20.1273 54.2006 20.9859 54.9356 21.4873ZM58.4479 24.966C58.3952 24.9665 58.3442 24.9478 58.3043 24.9135C58.2645 24.8792 58.2386 24.8316 58.2316 24.7797C58.2251 24.7228 58.241 24.6657 58.2759 24.6202C58.3109 24.5747 58.3621 24.5444 58.4189 24.5356C59.9303 24.3215 61.2687 23.2622 61.8309 21.8589C61.8733 21.7447 62.0038 21.7014 62.1042 21.7303C62.2191 21.7735 62.2626 21.9022 62.2336 22.002C61.6145 23.5628 60.1467 24.7231 58.4903 24.9527C58.4624 24.966 58.4479 24.966 58.4479 24.966ZM52.4594 17.4784H52.4304C52.4019 17.475 52.3743 17.4659 52.3493 17.4517C52.3243 17.4375 52.3024 17.4185 52.2849 17.3957C52.2674 17.373 52.2547 17.347 52.2475 17.3193C52.2404 17.2915 52.2388 17.2627 52.2431 17.2343C52.3057 16.7048 52.4869 16.1959 52.7734 15.7452C53.0598 15.2944 53.4442 14.9133 53.8983 14.6298C53.9485 14.6021 54.0073 14.594 54.0632 14.6072C54.1191 14.6203 54.1681 14.6537 54.2006 14.7008C54.2284 14.7507 54.2365 14.8092 54.2233 14.8648C54.2101 14.9204 54.1765 14.9691 54.1292 15.0014C53.7304 15.2512 53.3928 15.5865 53.1411 15.9829C52.8894 16.3792 52.7301 16.8265 52.6747 17.292C52.6652 17.3427 52.6388 17.3887 52.5997 17.4225C52.5606 17.4563 52.5112 17.476 52.4594 17.4784Z" fill="#9F75F2"/>
<path d="M58.7644 19.6408C58.158 19.6418 57.5621 19.4838 57.0367 19.1826C55.957 18.567 55.1941 17.3634 54.9922 15.9757C54.8338 14.8731 54.7468 13.4699 55.483 12.3107C56.8783 10.1198 60.2468 7.57183 68.4237 7.82918C73.8355 8.00112 80.1263 9.44762 85.237 11.7094C85.4788 11.8185 85.6684 12.0171 85.7652 12.263C85.8621 12.5089 85.8587 12.7827 85.7556 13.0261C85.646 13.267 85.4461 13.4557 85.1985 13.552C84.951 13.6484 84.6754 13.6448 84.4306 13.542C79.5362 11.38 73.5332 10.0056 68.3657 9.84807C62.7374 9.67613 58.7644 10.9363 57.1951 13.3978C56.8058 14.0145 56.8928 15.0018 56.9943 15.7039C57.1081 16.4771 57.5119 17.1493 58.0584 17.4644C58.3462 17.6219 58.7064 17.694 59.0377 17.6219C59.3011 17.5732 59.5731 17.6302 59.7943 17.7805C60.0154 17.9308 60.1677 18.1622 60.2178 18.4239C60.2668 18.6858 60.2094 18.9564 60.0583 19.1763C59.9071 19.3963 59.6745 19.5477 59.4114 19.5975C59.1961 19.6264 58.9797 19.6552 58.7644 19.6408Z" fill="#BC94FC"/>
<path d="M35.243 50.8648C35.1453 50.8627 35.0495 50.8369 34.9642 50.7895C34.8788 50.7421 34.8064 50.6746 34.7534 50.593C34.7128 50.5293 34.6854 50.4582 34.6729 50.3838C34.6603 50.3094 34.6629 50.2333 34.6803 50.16C34.6978 50.0866 34.7298 50.0174 34.7745 49.9565C34.8193 49.8956 34.8758 49.8442 34.9407 49.8054C39.8205 46.7848 44.4126 43.7931 48.8329 40.9145C53.2665 38.0371 57.8585 35.0453 62.7529 32.0248C62.8168 31.9844 62.8883 31.9571 62.963 31.9445C63.0377 31.932 63.1142 31.9344 63.188 31.9517C63.2618 31.9689 63.3314 32.0007 63.3926 32.045C63.4539 32.0894 63.5056 32.1455 63.5448 32.21C63.5854 32.2737 63.6127 32.3448 63.6253 32.4192C63.6378 32.4936 63.6353 32.5697 63.6178 32.6431C63.6004 32.7164 63.5683 32.7856 63.5236 32.8465C63.4789 32.9074 63.4224 32.9588 63.3574 32.9976C58.6921 35.9075 54.0611 38.8713 49.4653 41.8885C45.0316 44.7659 40.4396 47.7577 35.5453 50.7793C35.455 50.8354 35.3506 50.865 35.2441 50.8648H35.243ZM52.4021 44.909C52.8627 44.909 53.2799 45.0233 53.6402 45.2241C54.1008 45.4958 54.1867 46.7127 53.5833 47.8153C53.0066 48.8891 51.7987 49.7056 50.7759 49.7056H50.6465C50.4415 49.6899 50.2417 49.6338 50.0588 49.5405C49.8759 49.4472 49.7136 49.3185 49.5813 49.162C49.4279 48.9805 49.312 48.7706 49.2402 48.5445C49.1684 48.3184 49.1422 48.0804 49.163 47.8442C49.2355 46.8702 49.9839 45.7965 50.9476 45.2673C51.3976 45.0365 51.8958 44.9138 52.4021 44.909ZM52.4021 43.7643C51.7407 43.7643 51.0491 43.9351 50.4011 44.279C49.1351 44.9667 48.1268 46.3689 48.0253 47.7732C47.897 49.3905 49.0626 50.7505 50.574 50.8648C50.6465 50.8648 50.719 50.8792 50.7904 50.8792C52.2437 50.8792 53.842 49.8198 54.605 48.3733C55.4248 46.8558 55.3969 44.9235 54.2157 44.2357C53.6645 43.92 53.0381 43.7572 52.4021 43.7643ZM46.5006 32.1246C46.9177 32.1246 47.2925 32.21 47.6093 32.3964C48.0108 32.626 48.0833 33.9139 47.3494 35.2317C46.6445 36.5052 45.219 37.5079 44.1103 37.5079H44.0679C43.8757 37.5053 43.6862 37.4618 43.5123 37.3803C43.3384 37.2988 43.184 37.1812 43.0596 37.0354C42.7585 36.6771 42.6135 36.1757 42.686 35.6177C42.8154 34.5151 43.7077 33.255 44.7874 32.626C45.3017 32.3065 45.8942 32.1331 46.5006 32.1246ZM46.5006 30.9787C45.7522 30.9787 44.9457 31.1939 44.1973 31.6376C42.8444 32.4396 41.7212 33.986 41.5338 35.4746C41.3185 37.2073 42.4551 38.5961 44.0244 38.6383H44.0958C45.6507 38.6383 47.4364 37.407 48.3432 35.7752C49.2645 34.1147 49.3359 32.0525 48.1558 31.3936C47.6807 31.1085 47.1051 30.9787 46.5006 30.9787Z" fill="#EDEDED"/>
<path d="M37.8331 32.7257C37.8041 32.7257 37.7762 32.7257 37.7617 32.7113C37.6468 32.668 37.5888 32.5393 37.6468 32.4395L45.6218 12.2673C45.6318 12.2416 45.647 12.2183 45.6662 12.1986C45.6855 12.1789 45.7086 12.1632 45.7341 12.1526C45.7596 12.1419 45.787 12.1365 45.8146 12.1365C45.8423 12.1366 45.8696 12.1422 45.8951 12.153C46.01 12.1963 46.068 12.3249 46.01 12.4248L38.0338 32.597C38.0159 32.635 37.9875 32.6672 37.952 32.69C37.9165 32.7127 37.8753 32.7251 37.8331 32.7257ZM52.9343 62.6329C52.9053 62.6329 52.8763 62.6329 52.8473 62.6185C52.7324 62.5752 52.6889 62.4466 52.7324 62.3323L61.8161 42.1601C61.8585 42.0458 61.989 42.0026 62.1038 42.0458C62.2187 42.0891 62.2622 42.2178 62.2187 42.332L53.1361 62.5042C53.119 62.5428 53.0908 62.5756 53.0551 62.5984C53.0194 62.6213 52.9778 62.6333 52.9354 62.6329H52.9343Z" fill="#6D4EDD"/>
<path d="M3.86151 13.6849L4.75381 16.0898C4.76255 16.1125 4.77601 16.1332 4.7933 16.1504C4.8106 16.1676 4.83135 16.181 4.8542 16.1897L7.27347 17.0771C7.30838 17.0886 7.33876 17.1108 7.36029 17.1404C7.38181 17.1701 7.3934 17.2058 7.3934 17.2424C7.3934 17.2789 7.38181 17.3146 7.36029 17.3443C7.33876 17.3739 7.30838 17.3961 7.27347 17.4076L4.85532 18.2951C4.83247 18.3038 4.81172 18.3171 4.79442 18.3343C4.77712 18.3515 4.76367 18.3722 4.75493 18.3949L3.86151 20.7998C3.84966 20.8341 3.82733 20.8639 3.79764 20.885C3.76794 20.9061 3.73236 20.9174 3.69587 20.9174C3.65938 20.9174 3.62381 20.9061 3.59411 20.885C3.56441 20.8639 3.54208 20.8341 3.53024 20.7998L2.63793 18.3949C2.62919 18.3722 2.61574 18.3515 2.59844 18.3343C2.58115 18.3171 2.5604 18.3038 2.53755 18.2951L0.118278 17.4076C0.083763 17.3959 0.0538105 17.3737 0.032605 17.3441C0.0113994 17.3146 0 17.2792 0 17.2429C0 17.2066 0.0113994 17.1712 0.032605 17.1417C0.0538105 17.1122 0.083763 17.09 0.118278 17.0782L2.53755 16.1908C2.5604 16.1821 2.58115 16.1687 2.59844 16.1515C2.61574 16.1343 2.62919 16.1137 2.63793 16.0909L3.53024 13.6849C3.58824 13.5407 3.80351 13.5407 3.86151 13.6849ZM78.9046 36.9564C78.9191 37.013 78.9626 37.0419 79.0195 37.0707L81.625 38.0302C81.6625 38.0429 81.6952 38.0669 81.7182 38.099C81.7413 38.131 81.7537 38.1694 81.7537 38.2088C81.7537 38.2482 81.7413 38.2867 81.7182 38.3187C81.6952 38.3507 81.6625 38.3748 81.625 38.3874L79.0195 39.3469C78.9916 39.3537 78.9662 39.3679 78.9459 39.388C78.9257 39.4082 78.9113 39.4335 78.9046 39.4612L77.9398 42.0525C77.9271 42.0898 77.9029 42.1222 77.8707 42.1452C77.8385 42.1682 77.7998 42.1805 77.7602 42.1805C77.7206 42.1805 77.6819 42.1682 77.6497 42.1452C77.6175 42.1222 77.5933 42.0898 77.5806 42.0525L76.6158 39.4612C76.6013 39.4035 76.5578 39.3758 76.5009 39.3469L73.8954 38.3874C73.8578 38.3748 73.8253 38.3507 73.8022 38.3187C73.7791 38.2867 73.7666 38.2482 73.7666 38.2088C73.7666 38.1694 73.7791 38.131 73.8022 38.099C73.8253 38.0669 73.8578 38.0429 73.8954 38.0302L76.5009 37.0707C76.5288 37.064 76.5542 37.0498 76.5745 37.0296C76.5948 37.0095 76.6091 36.9841 76.6158 36.9564L77.5806 34.3652C77.6375 34.1932 77.8684 34.1932 77.9398 34.3652L78.9046 36.9564ZM64.9835 68.0872L65.7029 70.034C65.709 70.0545 65.7202 70.0731 65.7354 70.0882C65.7506 70.1033 65.7693 70.1144 65.7899 70.1205L67.7474 70.836C67.8768 70.8793 67.8768 71.0645 67.7474 71.1078L65.7899 71.8233C65.7693 71.8294 65.7506 71.8405 65.7354 71.8556C65.7202 71.8707 65.709 71.8893 65.7029 71.9098L64.9835 73.8566C64.94 73.9853 64.7537 73.9853 64.7102 73.8566L63.9908 71.9098C63.9846 71.8893 63.9735 71.8707 63.9583 71.8556C63.9431 71.8405 63.9244 71.8294 63.9038 71.8233L61.9463 71.1078C61.8169 71.0645 61.8169 70.8793 61.9463 70.836L63.9038 70.1205C63.9244 70.1144 63.9431 70.1033 63.9583 70.0882C63.9735 70.0731 63.9846 70.0545 63.9908 70.034L64.7102 68.0872C64.7537 67.9586 64.9255 67.9586 64.9835 68.0872ZM44.3845 63.7355C44.2903 63.7339 44.1989 63.7025 44.1238 63.6458C44.0486 63.5892 43.9934 63.5103 43.9663 63.4205L35.8474 32.4384C35.8193 32.3284 35.8351 32.2119 35.8915 32.1133C35.9478 32.0147 36.0403 31.9416 36.1497 31.9092C36.2604 31.881 36.3778 31.8966 36.4772 31.9526C36.5766 32.0087 36.6503 32.1009 36.6828 32.2098L44.8017 63.192C44.8298 63.3019 44.814 63.4184 44.7576 63.517C44.7013 63.6157 44.6088 63.6888 44.4994 63.7211C44.4559 63.7211 44.4124 63.7355 44.3845 63.7355Z" fill="#1C2833"/>
<path d="M23.3963 27.7446C23.2358 27.7421 23.0782 27.7026 22.9356 27.6293C22.4449 27.3719 22.2441 26.7707 22.5319 26.2837C23.2803 24.8816 23.6986 21.3164 23.5692 19.14C23.4688 17.4084 23.1654 15.0024 21.7689 14.3013C21.6492 14.2438 21.5423 14.163 21.4547 14.0636C21.3671 13.9642 21.3004 13.8482 21.2588 13.7227C21.2172 13.5971 21.2014 13.4645 21.2124 13.3327C21.2234 13.201 21.2609 13.0728 21.3228 12.9557C21.381 12.8371 21.4626 12.7312 21.5626 12.6444C21.6626 12.5576 21.7791 12.4916 21.9052 12.4502C22.0313 12.4089 22.1644 12.3931 22.2968 12.4037C22.4291 12.4143 22.558 12.4511 22.6757 12.512C25.008 13.6712 25.4542 16.7783 25.5836 19.0113C25.7129 21.2021 25.3382 25.2676 24.3031 27.2C24.2183 27.3659 24.0883 27.5049 23.928 27.601C23.7677 27.6971 23.5835 27.7465 23.3963 27.7435V27.7446Z" fill="#BC94FC"/>
<path d="M45.8078 70.4923L34.3059 26.0114C34.1068 25.2333 33.6054 24.5656 32.9117 24.1548C32.2181 23.744 31.3889 23.6238 30.6062 23.8205L8.07875 29.5189C7.64228 29.6283 7.23215 29.8232 6.87244 30.0923C6.51272 30.3614 6.21066 30.6992 5.98397 31.086C5.75728 31.4727 5.61053 31.9005 5.55232 32.3444C5.4941 32.7883 5.52561 33.2393 5.64498 33.6709L18.0536 77.9799C18.4284 79.3399 19.8539 80.1419 21.2213 79.7836L43.7633 73.9289C44.125 73.8378 44.4651 73.6765 44.764 73.4542C45.0628 73.2319 45.3145 72.9531 45.5045 72.6337C45.6945 72.3143 45.8191 71.9606 45.8712 71.5931C45.9232 71.2256 45.9017 70.8515 45.8078 70.4923ZM20.2565 35.8329C18.2845 35.9039 16.4564 34.0137 16.6583 32.0669C16.8591 30.1201 19.0764 28.4174 20.9481 28.9898C22.4304 29.175 23.4666 30.2921 23.654 31.824C23.8838 33.7852 22.2151 35.7619 20.2565 35.8329Z" fill="#7624F4"/>
<path d="M20.113 36.0612C19.1482 36.0612 18.1834 35.6175 17.4639 34.8443C16.7166 34.0567 16.3419 33.0406 16.4423 32.0667C16.5426 31.0218 17.2342 29.948 18.2124 29.3046C19.0913 28.7167 20.113 28.5314 20.9908 28.7888C22.5456 29.0029 23.6543 30.1776 23.8696 31.8093C24.0001 32.811 23.6543 33.8571 22.9349 34.7012C22.2289 35.5321 21.2507 36.0179 20.2569 36.0612H20.113ZM20.1844 29.0894C19.6088 29.0894 19.0043 29.2758 18.4433 29.6474C17.5654 30.2353 16.9464 31.1649 16.8594 32.0811C16.7735 32.9408 17.1048 33.8282 17.7662 34.5293C18.4578 35.2448 19.3501 35.6463 20.2424 35.6031C21.1057 35.5598 21.9701 35.1305 22.6036 34.3862C23.2372 33.6419 23.5539 32.6968 23.4379 31.8238C23.2651 30.3928 22.2724 29.3323 20.9194 29.1748H20.8904C20.6595 29.1173 20.4224 29.0886 20.1844 29.0894ZM25.1802 36.2331L24.8779 35.9325C25.9286 34.8588 26.3614 33.1837 25.9431 31.7384L26.3603 31.6086C26.8064 33.227 26.3603 35.0451 25.1802 36.2331ZM15.5064 33.8715C14.9454 32.9685 14.8595 31.7949 15.2332 30.7932L15.6358 30.9508C15.3046 31.8238 15.3904 32.8543 15.8812 33.6419L15.5064 33.8715Z" fill="#582ECD"/>
<path d="M20.0274 32.5545C18.9332 32.5545 17.81 32.0675 16.9322 31.2233C16.1983 30.5078 15.6361 29.5627 15.132 28.2738C13.5481 23.9931 15.2625 15.9763 18.3855 13.1987C19.6961 12.0395 21.222 11.781 22.6608 12.5109C24.9931 13.6712 25.4392 16.7783 25.5686 19.0113C25.5772 19.142 25.5599 19.2731 25.5175 19.3971C25.4751 19.5211 25.4086 19.6356 25.3216 19.734C25.2347 19.8324 25.1291 19.9128 25.0109 19.9705C24.8927 20.0283 24.7642 20.0623 24.6328 20.0706C24.5014 20.0792 24.3696 20.0619 24.2449 20.0198C24.1202 19.9776 24.0051 19.9115 23.9061 19.825C23.8072 19.7386 23.7264 19.6336 23.6683 19.516C23.6102 19.3985 23.576 19.2707 23.5676 19.14C23.4672 17.4084 23.165 15.0024 21.7685 14.3013C21.2933 14.0717 20.6308 13.9008 19.7385 14.6873C17.2624 16.8926 15.751 24.1228 17.0326 27.5727C17.4074 28.5744 17.8245 29.2765 18.3432 29.7913C18.9042 30.3348 19.6526 30.6365 20.2717 30.55C20.6029 30.5078 20.9186 30.3359 21.1495 30.0774C21.2371 29.9778 21.3441 29.8966 21.4639 29.8389C21.5838 29.7811 21.7141 29.748 21.8471 29.7413C21.9801 29.7347 22.113 29.7548 22.2381 29.8003C22.3631 29.8459 22.4777 29.916 22.5749 30.0065C22.9921 30.3925 23.0356 31.0081 22.6463 31.4241C22.0959 32.0332 21.3462 32.4286 20.5304 32.54C20.3575 32.54 20.1992 32.5545 20.0274 32.5545Z" fill="#BC94FC"/>
<path d="M22.1999 70.9646C22.1285 70.9646 22.0705 70.9502 21.9991 70.9358C21.8575 70.8825 21.7422 70.7766 21.6777 70.6404C21.6132 70.5042 21.6044 70.3484 21.6533 70.2059C23.6833 64.8514 25.5114 59.7265 27.267 54.7447C29.0238 49.7763 30.8374 44.637 32.8819 39.2681C32.9968 38.9686 33.328 38.8244 33.6158 38.9242C33.917 39.0396 34.062 39.3679 33.9616 39.6552C31.9316 45.0086 30.1024 50.1346 28.3467 55.1163C26.5911 60.0981 24.7775 65.2241 22.733 70.6063C22.6605 70.8215 22.4307 70.9646 22.1999 70.9646ZM33.7887 55.2317C34.3207 55.2317 35.0692 56.1324 35.271 57.336C35.4718 58.6095 34.9688 60.056 34.1055 60.5995C33.8601 60.757 33.5589 60.8569 33.2555 60.8569C32.68 60.8569 32.1335 60.5574 31.7877 60.0271C31.2412 59.2107 31.1965 57.9084 31.6293 56.9056C32.032 56.0038 32.8674 55.346 33.7307 55.2306C33.7452 55.245 33.7597 55.2306 33.7887 55.2306M33.7887 54.0858C33.7162 54.0858 33.6437 54.0858 33.5723 54.1002C32.3487 54.2578 31.1687 55.1308 30.5641 56.4475C29.9596 57.7653 30.0455 59.498 30.8095 60.6572C31.3839 61.5302 32.3052 62.0027 33.2265 62.0027C33.7452 62.0027 34.2639 61.8585 34.71 61.5735C35.976 60.757 36.6675 58.8535 36.3942 57.1497C36.1344 55.5456 35.0413 54.1147 33.7887 54.0858ZM21.1358 48.7025C21.351 48.7025 21.6388 48.9177 21.8976 49.2616C22.2579 49.733 22.5021 50.4063 22.6181 51.093C22.8334 52.5683 22.3014 54.2433 21.3945 54.8734C21.1608 55.0454 20.8788 55.1404 20.5881 55.1452C20.0271 55.1452 19.4939 54.8013 19.1493 54.2145C18.5726 53.2694 18.5146 51.7231 18.9898 50.5783C19.3935 49.5622 20.2279 48.8168 21.0923 48.6881C21.1057 48.7025 21.1202 48.7025 21.1347 48.7025M21.1347 47.5577C21.0633 47.5577 20.9908 47.5577 20.9049 47.5721C19.6668 47.743 18.4867 48.7169 17.8956 50.1634C17.3055 51.6088 17.378 53.5279 18.141 54.8157C18.7165 55.7753 19.6378 56.3044 20.5591 56.3044C21.0778 56.3044 21.5964 56.1469 22.0426 55.8318C23.3085 54.93 24.0001 52.8257 23.7268 50.951C23.4669 49.1606 22.3884 47.5566 21.1347 47.5566V47.5577Z" fill="#EDEDED"/>
<path d="M14.3118 59.2251C14.2114 59.2251 14.1244 59.1674 14.1111 59.0676L8.75498 39.0396C8.74167 38.9846 8.75087 38.9266 8.78058 38.8783C8.81028 38.83 8.85805 38.7955 8.91336 38.7822C8.96868 38.769 9.02702 38.7782 9.07555 38.8077C9.12408 38.8372 9.15882 38.8847 9.17213 38.9398L14.5137 58.9389C14.5204 58.9662 14.5215 58.9945 14.5172 59.0221C14.5128 59.0498 14.503 59.0764 14.4882 59.1003C14.4735 59.1242 14.4542 59.145 14.4314 59.1615C14.4086 59.1779 14.3827 59.1898 14.3553 59.1963C14.3553 59.2251 14.3263 59.2251 14.3107 59.2251H14.3118ZM43.8784 69.4039C43.7781 69.4039 43.6922 69.3473 43.6777 69.2463L38.3238 49.2328C38.316 49.2052 38.3138 49.1763 38.3174 49.1478C38.3211 49.1194 38.3304 49.092 38.345 49.0672C38.3595 49.0425 38.379 49.0209 38.4021 49.0038C38.4252 48.9867 38.4516 48.9744 38.4796 48.9677C38.5077 48.9609 38.5368 48.9599 38.5652 48.9646C38.5936 48.9694 38.6208 48.9798 38.6451 48.9952C38.6694 49.0106 38.6903 49.0308 38.7066 49.0544C38.7229 49.0781 38.7342 49.1048 38.7399 49.1329L44.1093 69.1465C44.116 69.1738 44.1171 69.202 44.1128 69.2297C44.1084 69.2574 44.0986 69.284 44.0839 69.3079C44.0691 69.3318 44.0498 69.3526 44.027 69.3691C44.0042 69.3855 43.9784 69.3974 43.9509 69.4039H43.8796H43.8784Z" fill="#9F75F2"/>
</svg>
