<svg width="28" height="23" viewBox="0 0 28 23" fill="none" xmlns="http://www.w3.org/2000/svg">
<path fill-rule="evenodd" clip-rule="evenodd" d="M7.70307 0.333344C5.90845 0.333344 4.53738 1.71267 3.46198 3.45451C2.38659 5.19636 1.5405 7.45176 0.942177 9.80981C0.343853 12.1679 0 14.6201 0 16.7545C0 18.889 0.243407 20.7269 1.33173 21.9401C1.83303 22.4988 2.48891 22.8607 3.16432 22.9333C3.83973 23.0058 4.47717 22.8156 5.04349 22.5217C6.17615 21.934 7.14423 20.9184 8.04992 19.8368C8.9556 18.7551 9.77531 17.5932 10.417 16.7247C10.7379 16.2904 11.0177 15.9272 11.2104 15.7107C11.2554 15.6601 11.266 15.6544 11.2984 15.6224H13.9981H14.0032H16.7029C16.7352 15.6544 16.7461 15.6603 16.7909 15.7107C16.9836 15.9272 17.2634 16.2904 17.5843 16.7247C18.226 17.5932 19.0457 18.7551 19.9514 19.8368C20.8571 20.9184 21.8251 21.934 22.9578 22.5217C23.5241 22.8156 24.1603 23.0058 24.8357 22.9333C25.5111 22.8607 26.167 22.4988 26.6683 21.9401C27.7567 20.7269 28.0004 18.889 28 16.7545C27.9996 14.6201 27.6551 12.1665 27.0565 9.80851C26.4579 7.4505 25.6118 5.19628 24.5367 3.45451C23.4616 1.71275 22.0922 0.333344 20.2982 0.333344C18.4382 0.333344 17.1812 0.959072 16.2758 1.49015C15.3705 2.02123 14.8722 2.37431 14.0032 2.37431H13.9981C13.1291 2.37431 12.6308 2.02123 11.7254 1.49015C10.8201 0.959072 9.56308 0.333344 7.70307 0.333344ZM7.70307 2.32757C9.15622 2.32757 9.88705 2.72243 10.7211 3.21173C11.5552 3.70103 12.5478 4.36854 13.9981 4.36853H14.0032C15.4534 4.36853 16.4448 3.70103 17.2789 3.21173C18.113 2.72243 18.8451 2.32757 20.2982 2.32757C20.9868 2.32757 21.9341 3.02548 22.8465 4.50356C23.7588 5.98164 24.5692 8.08978 25.1308 10.3019C25.6923 12.514 26.0118 14.8382 26.0121 16.7545C26.0125 18.6708 25.5941 20.1567 25.1916 20.6054C24.9474 20.8775 24.7957 20.9311 24.6247 20.9494C24.4537 20.9678 24.2046 20.9243 23.8702 20.7508C23.2013 20.4037 22.3071 19.5497 21.4734 18.554C20.6396 17.5583 19.8442 16.4352 19.1813 15.538C18.8499 15.0894 18.5551 14.6996 18.2741 14.3838C18.1336 14.2259 17.9997 14.0849 17.8302 13.9515C17.6607 13.818 17.4613 13.6282 16.9851 13.6282H14.0032H13.9981H11.0162C10.54 13.6282 10.3406 13.818 10.1711 13.9515C10.0016 14.0849 9.86771 14.2259 9.7272 14.3838C9.44618 14.6996 9.15139 15.0894 8.81997 15.538C8.15712 16.4352 7.36166 17.5583 6.52794 18.554C5.69422 19.5497 4.79866 20.4037 4.12979 20.7508C3.79535 20.9243 3.54756 20.9678 3.37657 20.9494C3.20557 20.9311 3.05386 20.8775 2.80971 20.6054C2.40711 20.1566 1.98789 18.6708 1.98789 16.7545C1.98789 14.8382 2.30667 12.5126 2.86795 10.3006C3.42922 8.08853 4.23971 5.98155 5.15221 4.50356C6.0647 3.02557 7.01283 2.32757 7.70307 2.32757ZM19.6304 5.65128C19.0815 5.65128 18.6365 6.0977 18.6365 6.64839C18.6365 7.19908 19.0815 7.6455 19.6304 7.6455C20.1794 7.6455 20.6244 7.19908 20.6244 6.64839C20.6244 6.0977 20.1794 5.65128 19.6304 5.65128ZM8.35017 6.30174C7.80174 6.31033 7.36389 6.76294 7.37176 7.31313V8.31025H6.37781C6.01936 8.30516 5.68595 8.49409 5.50524 8.80469C5.32454 9.11529 5.32454 9.49943 5.50524 9.81003C5.68595 10.1206 6.01936 10.3096 6.37781 10.3045H7.37176V11.3016C7.36669 11.6612 7.55502 11.9957 7.86463 12.1769C8.17424 12.3582 8.55717 12.3582 8.86678 12.1769C9.17639 11.9957 9.36472 11.6612 9.35965 11.3016V10.3045H10.3536C10.712 10.3096 11.0455 10.1206 11.2262 9.81003C11.4069 9.49943 11.4069 9.11529 11.2262 8.80469C11.0455 8.49409 10.712 8.30516 10.3536 8.31025H9.35965V7.31313C9.3635 7.0435 9.25834 6.7838 9.06815 6.59324C8.87796 6.40269 8.61894 6.29752 8.35017 6.30174ZM16.9799 8.31025C16.431 8.31025 15.9859 8.75667 15.9859 9.30736C15.9859 9.85805 16.431 10.3045 16.9799 10.3045C17.5288 10.3045 17.9738 9.85805 17.9738 9.30736C17.9738 8.75667 17.5288 8.31025 16.9799 8.31025ZM22.2809 8.31025C21.732 8.31025 21.287 8.75667 21.287 9.30736C21.287 9.85805 21.732 10.3045 22.2809 10.3045C22.8299 10.3045 23.2749 9.85805 23.2749 9.30736C23.2749 8.75667 22.8299 8.31025 22.2809 8.31025ZM19.6304 10.9692C19.0815 10.9692 18.6365 11.4156 18.6365 11.9663C18.6365 12.517 19.0815 12.9634 19.6304 12.9634C20.1794 12.9634 20.6244 12.517 20.6244 11.9663C20.6244 11.4156 20.1794 10.9692 19.6304 10.9692Z" fill="white"/>
</svg>
