<svg width="24" height="24" viewBox="0 0 24 24" fill="none" xmlns="http://www.w3.org/2000/svg">
<path fill-rule="evenodd" clip-rule="evenodd" d="M6.60263 2C5.06439 2 3.88918 3.18228 2.96741 4.67529C2.04565 6.1683 1.32043 8.1015 0.80758 10.1227C0.294731 12.1439 0 14.2458 0 16.0753C0 17.9049 0.208634 19.4802 1.14148 20.52C1.57117 20.999 2.13335 21.3092 2.71227 21.3714C3.29119 21.4335 3.83757 21.2705 4.323 21.0186C5.29384 20.5148 6.12363 19.6443 6.89993 18.7172C7.67623 17.7901 8.37883 16.7942 8.92887 16.0497C9.20388 15.6775 9.44374 15.3662 9.60887 15.1806C9.64746 15.1372 9.65661 15.1324 9.68431 15.1049H11.9983H12.0028H14.3168C14.3444 15.1323 14.3538 15.1374 14.3922 15.1806C14.5574 15.3662 14.7972 15.6775 15.0722 16.0497C15.6223 16.7942 16.3249 17.7901 17.1012 18.7172C17.8775 19.6443 18.7073 20.5148 19.6781 21.0186C20.1635 21.2705 20.7088 21.4335 21.2877 21.3714C21.8666 21.3092 22.4288 20.999 22.8585 20.52C23.7914 19.4801 24.0003 17.9049 24 16.0753C23.9997 14.2458 23.7044 12.1427 23.1913 10.1216C22.6782 8.10042 21.953 6.16823 21.0315 4.67529C20.11 3.18235 18.9362 2 17.3985 2C15.8042 2 14.7267 2.53634 13.9507 2.99155C13.1747 3.44676 12.7476 3.7494 12.0028 3.7494H11.9983C11.2535 3.7494 10.8264 3.44676 10.0504 2.99155C9.2744 2.53634 8.19692 2 6.60263 2ZM6.60263 3.70934C7.84819 3.70934 8.47462 4.04779 9.18955 4.46719C9.90449 4.88659 10.7553 5.45874 11.9983 5.45873H12.0028C13.2458 5.45873 14.0955 4.88659 14.8104 4.46719C15.5254 4.04779 16.1529 3.70934 17.3985 3.70934C17.9887 3.70934 18.8007 4.30754 19.5827 5.57447C20.3647 6.8414 21.0593 8.64838 21.5407 10.5445C22.022 12.4405 22.2958 14.4328 22.2961 16.0753C22.2964 17.7179 21.9378 18.9915 21.5928 19.376C21.3835 19.6093 21.2535 19.6552 21.1069 19.6709C20.9603 19.6867 20.7468 19.6494 20.4602 19.5007C19.8869 19.2032 19.1203 18.4712 18.4057 17.6177C17.6911 16.7643 17.0093 15.8016 16.4411 15.0326C16.1571 14.6481 15.9044 14.3139 15.6635 14.0433C15.5431 13.9079 15.4283 13.7871 15.283 13.6727C15.1377 13.5583 14.9669 13.3956 14.5586 13.3956H12.0028H11.9983H9.44248C9.03425 13.3956 8.86339 13.5583 8.7181 13.6727C8.5728 13.7871 8.45804 13.9079 8.3376 14.0433C8.09673 14.3139 7.84405 14.6481 7.55997 15.0326C6.99181 15.8016 6.30999 16.7643 5.59538 17.6177C4.88076 18.4712 4.11314 19.2032 3.53982 19.5007C3.25316 19.6494 3.04077 19.6867 2.8942 19.6709C2.74763 19.6552 2.6176 19.6093 2.40832 19.376C2.06324 18.9914 1.70391 17.7179 1.70391 16.0753C1.70391 14.4328 1.97714 12.4394 2.45824 10.5433C2.93933 8.6473 3.63404 6.84132 4.41618 5.57447C5.19832 4.30762 6.011 3.70934 6.60263 3.70934ZM16.8261 6.55823C16.3555 6.55823 15.9741 6.94088 15.9741 7.4129C15.9741 7.88492 16.3555 8.26757 16.8261 8.26757C17.2966 8.26757 17.678 7.88492 17.678 7.4129C17.678 6.94088 17.2966 6.55823 16.8261 6.55823ZM7.15729 7.11577C6.68721 7.12313 6.31191 7.51108 6.31865 7.98268V8.83735H5.4667C5.15945 8.83299 4.87367 8.99493 4.71878 9.26115C4.56389 9.52738 4.56389 9.85665 4.71878 10.1229C4.87367 10.3891 5.15945 10.551 5.4667 10.5467H6.31865V11.4013C6.3143 11.7096 6.47573 11.9963 6.74111 12.1517C7.00649 12.307 7.33471 12.307 7.6001 12.1517C7.86548 11.9963 8.0269 11.7096 8.02256 11.4013V10.5467H8.87451C9.18175 10.551 9.46754 10.3891 9.62243 10.1229C9.77732 9.85665 9.77732 9.52738 9.62243 9.26115C9.46754 8.99493 9.18175 8.83299 8.87451 8.83735H8.02256V7.98268C8.02586 7.75156 7.93572 7.52896 7.7727 7.36563C7.60968 7.20229 7.38767 7.11215 7.15729 7.11577ZM14.5542 8.83735C14.0837 8.83735 13.7022 9.21999 13.7022 9.69201C13.7022 10.164 14.0837 10.5467 14.5542 10.5467C15.0247 10.5467 15.4061 10.164 15.4061 9.69201C15.4061 9.21999 15.0247 8.83735 14.5542 8.83735ZM19.0979 8.83735C18.6274 8.83735 18.246 9.21999 18.246 9.69201C18.246 10.164 18.6274 10.5467 19.0979 10.5467C19.5685 10.5467 19.9499 10.164 19.9499 9.69201C19.9499 9.21999 19.5685 8.83735 19.0979 8.83735ZM16.8261 11.1165C16.3555 11.1165 15.9741 11.4991 15.9741 11.9711C15.9741 12.4431 16.3555 12.8258 16.8261 12.8258C17.2966 12.8258 17.678 12.4431 17.678 11.9711C17.678 11.4991 17.2966 11.1165 16.8261 11.1165Z" fill="#991EFA"/>
</svg>
