<svg width="24" height="20" viewBox="0 0 24 20" fill="none" xmlns="http://www.w3.org/2000/svg">
<path fill-rule="evenodd" clip-rule="evenodd" d="M2.33194 7.72491e-05C3.50472 7.72491e-05 4.52189 0.824435 4.74168 1.95118L4.77682 2.13347H23.1826C23.4263 2.13362 23.6572 2.24004 23.8125 2.42375C23.9677 2.60746 24.0312 2.84932 23.9855 3.08347L22.2275 12.1157C21.9102 13.7457 20.4418 14.9334 18.7454 14.9334H8.53784C6.84143 14.9334 5.37372 13.7453 5.05581 12.1157L3.29775 3.08347L3.13483 2.25014C3.05963 1.86837 2.72881 1.60014 2.33194 1.60014H0.829446C0.534519 1.60422 0.260192 1.45265 0.111511 1.20345C-0.0371703 0.954253 -0.0371703 0.646049 0.111511 0.396853C0.260192 0.147657 0.534519 -0.0039226 0.829446 7.72491e-05H2.33194ZM22.1944 3.73346H5.08882L6.66265 11.8157C6.83579 12.7018 7.61653 13.3334 8.53784 13.3334H18.7454C19.6671 13.3334 20.4483 12.7019 20.6206 11.8167L22.1944 3.73346ZM9.82523 16C8.92192 16 8.18964 16.7164 8.18964 17.6C8.18964 18.4837 8.92192 19.2 9.82523 19.2C10.7285 19.2 11.4608 18.4837 11.4608 17.6C11.4608 16.7164 10.7285 16 9.82523 16ZM17.458 16C16.5547 16 15.8224 16.7164 15.8224 17.6C15.8224 18.4837 16.5547 19.2 17.458 19.2C18.3613 19.2 19.0936 18.4837 19.0936 17.6C19.0936 16.7164 18.3613 16 17.458 16Z" fill="#F0E7FD"/>
</svg>
