<svg width="24" height="24" viewBox="0 0 24 24" fill="none" xmlns="http://www.w3.org/2000/svg">
<path fill-rule="evenodd" clip-rule="evenodd" d="M5.03267 3C3.16682 3 1.63636 4.54628 1.63636 6.43143V8.11378C0.689215 8.45866 0 9.37064 0 10.4398V16.5018C0 17.7554 0.945088 18.7941 2.14666 18.9506L1.87607 19.224C1.66233 19.4313 1.57623 19.7392 1.65098 20.0289C1.72573 20.3186 1.94964 20.5448 2.23636 20.6203C2.52308 20.6958 2.82781 20.6088 3.03303 20.3929L4.42969 18.9818H19.5703L20.967 20.3929C21.1722 20.6088 21.4769 20.6958 21.7636 20.6203C22.0504 20.5448 22.2743 20.3186 22.349 20.0289C22.4238 19.7392 22.3377 19.4313 22.1239 19.224L21.8533 18.9506C23.0549 18.7941 24 17.7554 24 16.5018V10.4398C24 9.37064 23.3108 8.45866 22.3636 8.11378V6.43143C22.3636 4.54628 20.8332 3 18.9673 3H5.03267ZM5.03267 4.65329H18.9673C19.9488 4.65329 20.7273 5.43986 20.7273 6.43143V8.11378C19.7801 8.45866 19.0909 9.37064 19.0909 10.4398V13.4708H4.90909V10.4398C4.90909 9.37064 4.21988 8.45866 3.27273 8.11378V6.43143C3.27273 5.43986 4.05125 4.65329 5.03267 4.65329ZM2.37678 9.62069C2.4285 9.62567 2.48059 9.62567 2.53232 9.62069C2.95488 9.65931 3.27273 10.0004 3.27273 10.4398V14.2975C3.27277 14.754 3.63906 15.1241 4.09091 15.1241H19.9091C20.3609 15.1241 20.7272 14.754 20.7273 14.2975V10.4398C20.7273 10.0004 21.0451 9.65931 21.4677 9.62069C21.5194 9.62567 21.5715 9.62567 21.6232 9.62069C22.0458 9.65931 22.3636 10.0004 22.3636 10.4398V16.5018C22.3636 16.9684 22.0072 17.3285 21.5455 17.3285H20.0124C19.9754 17.323 19.938 17.3202 19.9006 17.3199C19.8631 17.3202 19.8258 17.323 19.7887 17.3285H4.20064C4.15899 17.3227 4.11696 17.3202 4.07493 17.321C4.0457 17.3219 4.01654 17.3244 3.98757 17.3285H2.45455C1.99282 17.3285 1.63636 16.9684 1.63636 16.5018V10.4398C1.63636 10.0004 1.95421 9.65931 2.37678 9.62069Z" fill="#991EFA"/>
</svg>
