<svg width="28" height="22" viewBox="0 0 28 22" fill="none" xmlns="http://www.w3.org/2000/svg">
<path fill-rule="evenodd" clip-rule="evenodd" d="M5.87145 0.5C3.69462 0.5 1.90909 2.304 1.90909 4.50334V6.46608C0.804084 6.86843 0 7.93242 0 9.17976V16.2522C0 17.7146 1.1026 18.9264 2.50444 19.109L2.18874 19.428C1.93939 19.6698 1.83894 20.029 1.92615 20.367C2.01335 20.705 2.27458 20.9689 2.60909 21.057C2.9436 21.1451 3.29911 21.0436 3.53853 20.7917L5.16797 19.1454H22.832L24.4615 20.7917C24.7009 21.0436 25.0564 21.1451 25.3909 21.057C25.7254 20.9689 25.9866 20.705 26.0739 20.367C26.1611 20.029 26.0606 19.6698 25.8113 19.428L25.4956 19.109C26.8974 18.9264 28 17.7146 28 16.2522V9.17976C28 7.93242 27.1959 6.86843 26.0909 6.46608V4.50334C26.0909 2.304 24.3054 0.5 22.1286 0.5H5.87145ZM5.87145 2.42884H22.1286C23.2735 2.42884 24.1818 3.34651 24.1818 4.50334V6.46608C23.0768 6.86843 22.2727 7.93242 22.2727 9.17976V12.716H5.72727V9.17976C5.72727 7.93242 4.92319 6.86843 3.81818 6.46608V4.50334C3.81818 3.34651 4.72646 2.42884 5.87145 2.42884ZM2.7729 8.22413C2.83326 8.22995 2.89402 8.22995 2.95437 8.22413C3.44736 8.26919 3.81818 8.66714 3.81818 9.17976V13.6804C3.81823 14.213 4.24557 14.6447 4.77273 14.6448H23.2273C23.7544 14.6447 24.1818 14.213 24.1818 13.6804V9.17976C24.1818 8.66714 24.5526 8.26919 25.0456 8.22413C25.106 8.22995 25.1667 8.22995 25.2271 8.22413C25.7201 8.26919 26.0909 8.66714 26.0909 9.17976V16.2522C26.0909 16.7964 25.675 17.2166 25.1364 17.2166H23.3478C23.3046 17.2102 23.261 17.2069 23.2173 17.2065C23.1737 17.2069 23.13 17.2102 23.0868 17.2166H4.90075C4.85215 17.2098 4.80312 17.2069 4.75408 17.2078C4.71998 17.2089 4.68596 17.2118 4.65217 17.2166H2.86364C2.32495 17.2166 1.90909 16.7964 1.90909 16.2522V9.17976C1.90909 8.66714 2.27991 8.26919 2.7729 8.22413Z" fill="white"/>
</svg>
