<svg width="24" height="24" viewBox="0 0 24 24" fill="none" xmlns="http://www.w3.org/2000/svg">
<path fill-rule="evenodd" clip-rule="evenodd" d="M20.9999 0C22.5903 0 23.892 1.23808 23.9936 2.80278L24 3V9.5994C24 10.475 23.6814 11.3173 23.1079 11.972L22.9452 12.1458L12.145 22.9458C11.4424 23.6484 10.5207 24 9.59973 24C8.76244 24 7.92466 23.7094 7.25137 23.1283L7.05448 22.9452L1.05437 16.9452C-0.295224 15.5956 -0.349207 13.441 0.892419 12.027L1.05437 11.8542L11.8546 1.0542C12.4733 0.43545 13.2943 0.0652544 14.1621 0.00785192L14.3998 0H20.9999ZM20.9999 1.92H14.3998C14.01 1.92 13.6342 2.05548 13.3354 2.30031L13.2122 2.41186L2.412 13.2119C1.797 13.8268 1.75856 14.8002 2.29669 15.46L2.412 15.5875L8.41269 21.5881C8.73274 21.9084 9.15565 22.08 9.59973 22.08C9.98041 22.08 10.3458 21.9539 10.644 21.7162L10.7873 21.5881L21.5875 10.7881C21.8636 10.5121 22.0336 10.1505 22.0718 9.7656L22.08 9.5994V3C22.08 2.44966 21.6678 1.9951 21.1354 1.92842L20.9999 1.92ZM17.9999 4.2C18.9941 4.2 19.7999 5.0058 19.7999 6C19.7999 6.9942 18.9941 7.8 17.9999 7.8C17.0057 7.8 16.1999 6.9942 16.1999 6C16.1999 5.0058 17.0057 4.2 17.9999 4.2Z" fill="#991EFA"/>
</svg>
