<svg width="28" height="28" viewBox="0 0 28 28" fill="none" xmlns="http://www.w3.org/2000/svg">
<path fill-rule="evenodd" clip-rule="evenodd" d="M24.4999 0C26.3554 0 27.874 1.44442 27.9926 3.26991L28 3.5V11.1993C28 12.2208 27.6283 13.2035 26.9592 13.9674L26.7694 14.1701L14.1691 26.7701C13.3494 27.5898 12.2742 28 11.1997 28C10.2228 28 9.24543 27.661 8.45993 26.983L8.23023 26.7694L1.2301 19.7694C-0.344428 18.1949 -0.407408 15.6811 1.04116 14.0315L1.2301 13.8299L13.8303 1.2299C14.5522 0.508025 15.51 0.0761301 16.5224 0.00916057L16.7998 0H24.4999ZM24.4999 2.24H16.7998C16.3451 2.24 15.9066 2.39806 15.5579 2.6837L15.4142 2.81383L2.814 15.4138C2.0965 16.1313 2.05166 17.2669 2.67947 18.0366L2.814 18.1855L9.81481 25.1861C10.1882 25.5598 10.6816 25.76 11.1997 25.76C11.6438 25.76 12.07 25.6129 12.418 25.3356L12.5852 25.1862L25.1855 12.5862C25.5075 12.2641 25.7059 11.8422 25.7504 11.3932L25.76 11.1993V3.5C25.76 2.85793 25.2791 2.32761 24.6579 2.24982L24.4999 2.24ZM20.9999 4.9C22.1598 4.9 23.0999 5.8401 23.0999 7C23.0999 8.1599 22.1598 9.1 20.9999 9.1C19.8399 9.1 18.8998 8.1599 18.8998 7C18.8998 5.8401 19.8399 4.9 20.9999 4.9Z" fill="white"/>
</svg>
