<svg width="24" height="24" viewBox="0 0 24 24" fill="none" xmlns="http://www.w3.org/2000/svg">
<path fill-rule="evenodd" clip-rule="evenodd" d="M8.28521 0.00163721C8.41153 0.00569947 8.5358 0.0171385 8.6588 0.034429C9.05238 0.0897584 9.42763 0.204567 9.77501 0.326548L10.7486 0.682119L11.1802 0.831203C11.5197 0.941991 11.8041 1.01458 12 1.01467C12.2161 1.01476 12.5118 0.943067 12.857 0.833712L13.2931 0.686589L14.3757 0.297145C15.125 0.0416734 15.9871 -0.162199 16.8836 0.208927C17.78 0.580196 18.2453 1.33405 18.5945 2.04458L19.0849 3.08549C19.3286 3.59428 19.554 4.01798 19.768 4.23176C19.9065 4.37015 20.1589 4.52011 20.4772 4.682L20.8878 4.88201L21.7567 5.28537L22.1146 5.46249C22.776 5.80808 23.4456 6.28252 23.7908 7.11626C24.1678 8.02575 23.9691 8.90548 23.7122 9.6623L23.5812 10.03L23.3176 10.7485L23.1686 11.1801C23.0578 11.5196 22.9852 11.804 22.9851 11.9999C22.985 12.2592 23.0882 12.6336 23.2359 13.0705L23.3962 13.5262L23.573 14.0119C23.8742 14.8397 24.2238 15.8388 23.7908 16.8847C23.4196 17.7811 22.6657 18.2464 21.9552 18.5956L20.9143 19.0857L20.5019 19.29C20.2448 19.4234 20.0271 19.5514 19.8721 19.6756L19.768 19.768C19.6296 19.9071 19.4797 20.1594 19.3178 20.4776L19.1178 20.888L18.7144 21.7567L18.5373 22.1146C18.1917 22.776 17.7173 23.4456 16.8836 23.7908C15.9741 24.1678 15.0944 23.9691 14.3376 23.7122L13.2514 23.3179L12.8198 23.1691C12.4803 23.0586 12.1959 22.9863 12 22.9863C11.7407 22.9862 11.3663 23.089 10.9294 23.2363L10.4737 23.3963L9.98802 23.573C9.16018 23.8742 8.16115 24.2238 7.11526 23.7908C6.29355 23.4505 5.83407 22.7894 5.49423 22.1345L5.31927 21.7799L4.91421 20.9154C4.7056 20.4793 4.51061 20.1057 4.32438 19.8733L4.23079 19.7692C4.09232 19.6302 3.84022 19.4802 3.52218 19.3185L3.11192 19.1187L2.2433 18.7156L1.88538 18.5384C1.22402 18.1928 0.554373 17.7184 0.209169 16.8847C-0.167795 15.9752 0.0308557 15.0946 0.287841 14.3375L0.4188 13.9697L0.682104 13.2513L0.830853 12.8196C0.941347 12.4802 1.01364 12.1957 1.01373 11.9999C1.01382 11.7838 0.942423 11.488 0.833362 11.1428L0.686573 10.7068L0.297387 9.62414C0.0419173 8.87481 -0.161954 8.01274 0.209169 7.11626C0.549496 6.29454 1.21057 5.83506 1.86548 5.49521L2.22013 5.32025L3.08453 4.91493L3.49688 4.71035C3.75401 4.57673 3.97171 4.44845 4.12669 4.32421L4.23079 4.23176C4.39756 4.06559 4.58014 3.73538 4.77992 3.32402L5.20282 2.41768C5.57503 1.61318 6.05415 0.648283 7.11526 0.208927C7.51316 0.0440036 7.90625 -0.0105497 8.28521 0.00163721ZM8.2235 1.92065C8.08043 1.91604 7.96392 1.93556 7.84977 1.98288C7.62222 2.07709 7.44153 2.26494 7.20471 2.70031L7.03738 3.02891L6.52487 4.12597L6.3932 4.39223C6.12701 4.91617 5.90106 5.27792 5.58924 5.58861L5.35494 5.81067L5.19984 5.93808L5.02955 6.05879L4.83026 6.18122L4.58821 6.31378L4.28958 6.46487L3.20507 6.97889C2.36658 7.37008 2.09996 7.56867 1.98317 7.85065C1.9053 8.03874 1.90081 8.24783 2.00029 8.62425L2.09487 8.94023L2.23132 9.33267L2.57045 10.2769L2.6895 10.627L2.77989 10.9166C2.80566 11.0047 2.82728 11.0853 2.84539 11.1611L2.88975 11.3762L2.91676 11.5774L2.92492 11.6777L2.93294 11.8874C2.93351 11.924 2.93374 11.9617 2.93373 12.0007C2.93357 12.3691 2.86702 12.7183 2.74 13.1466L2.61112 13.5509L2.14819 14.8348C1.90084 15.5435 1.86763 15.8715 1.98312 16.1502C2.07734 16.3777 2.26519 16.5584 2.70055 16.7952L3.02915 16.9626L4.12618 17.4753L4.3925 17.6071L4.64113 17.7374L4.8372 17.8488L5.0266 17.8492L5.66428 18.4871L5.79969 18.6318L5.92055 18.7762L6.03424 18.9323L6.14811 19.1123L6.26953 19.3282L6.40585 19.5924L6.75269 20.3136L6.97792 20.7949L7.15874 21.1685C7.43762 21.7181 7.61469 21.9195 7.84967 22.0168C8.03774 22.0947 8.24682 22.0992 8.62323 21.9997L8.9392 21.9051L9.33163 21.7687L10.2733 21.4305L10.6233 21.3116L10.9133 21.2211L11.1585 21.1554C11.1966 21.1463 11.2334 21.1381 11.2692 21.1307L11.4764 21.0952C11.5435 21.0862 11.6097 21.0797 11.6773 21.0752L11.8875 21.0671C11.9241 21.0665 11.9618 21.0662 12.0008 21.0663C12.3692 21.0664 12.7185 21.133 13.1468 21.26L13.5511 21.3889L14.835 21.8518C15.5437 22.0992 15.8705 22.1323 16.1491 22.0169C16.3766 21.9227 16.5573 21.7348 16.7941 21.2994L16.9615 20.9708L17.4033 20.0223L17.6065 19.607C17.8714 19.0864 18.0963 18.726 18.4096 18.4111L18.5591 18.2657C18.5832 18.2432 18.6069 18.2214 18.6307 18.2003L18.7751 18.0794L18.9312 17.9657L19.1111 17.8519L19.3271 17.7304L19.5912 17.5941L20.3124 17.2473L20.7938 17.022L21.1678 16.841C21.7183 16.5618 21.9197 16.3848 22.0168 16.1503C22.0947 15.9622 22.0992 15.7531 21.9997 15.3767L21.9051 15.0607L21.7687 14.6683L21.5112 13.9555L21.3246 13.418L21.198 13.01L21.1413 12.7874L21.1029 12.5886C21.0979 12.5567 21.0935 12.5252 21.0896 12.4938L21.0726 12.3052L21.0658 12.1065C21.0653 12.0717 21.0651 12.036 21.0651 11.9991C21.0653 11.6301 21.132 11.2808 21.2595 10.8521L21.3888 10.4477L21.779 9.36788C22.092 8.51596 22.1428 8.15461 22.0169 7.85076C21.9227 7.6232 21.7348 7.44251 21.2995 7.20568L20.9709 7.03835L20.0223 6.59657L19.6069 6.39341C19.0846 6.12779 18.7237 5.90254 18.4112 5.59019L18.258 5.43204C18.2343 5.40653 18.2114 5.38124 18.1891 5.35589L18.0617 5.20079C18.0208 5.14733 17.9811 5.09133 17.941 5.0305L17.8186 4.83121L17.686 4.58915L17.5349 4.29053L17.0209 3.206C16.6291 2.36624 16.4306 2.09948 16.1492 1.98292C15.9376 1.89533 15.6994 1.90058 15.2263 2.04228L14.8738 2.15744L13.5767 2.62122L13.2661 2.72456L13.0068 2.80279C12.9671 2.81392 12.9289 2.82415 12.8921 2.83354L12.6839 2.8804L12.4927 2.91054L12.3048 2.92729L12.1065 2.93402L11.9992 2.93467C11.6302 2.93451 11.2809 2.86776 10.8522 2.74023L10.4478 2.61099L9.17884 2.15243L8.86347 2.04694C8.72345 2.0037 8.6066 1.97382 8.49797 1.95329L8.30446 1.92564L8.2235 1.92065ZM16.4971 6.6033C16.7272 6.6033 16.9573 6.69112 17.133 6.86681C17.4844 7.21819 17.4844 7.78728 17.133 8.13866L8.13882 17.1329C7.96313 17.3086 7.73315 17.3965 7.5029 17.3965C7.27265 17.3965 7.04207 17.3086 6.86698 17.1329C6.51561 16.7816 6.51561 16.2125 6.86698 15.8611L15.8612 6.86681C16.0369 6.69112 16.267 6.6033 16.4971 6.6033ZM15.2979 13.1991C16.4569 13.1991 17.3965 14.1387 17.3965 15.2978C17.3965 16.4568 16.4569 17.3965 15.2979 17.3965C14.1388 17.3965 13.1992 16.4568 13.1992 15.2978C13.1992 14.1387 14.1388 13.1991 15.2979 13.1991ZM8.70213 6.6033C9.86118 6.6033 10.8008 7.54291 10.8008 8.70197C10.8008 9.86104 9.86118 10.8006 8.70213 10.8006C7.54308 10.8006 6.60348 9.86104 6.60348 8.70197C6.60348 7.54291 7.54308 6.6033 8.70213 6.6033Z" fill="#991EFA"/>
</svg>
