<svg width="28" height="28" viewBox="0 0 28 28" fill="none" xmlns="http://www.w3.org/2000/svg">
<path fill-rule="evenodd" clip-rule="evenodd" d="M9.66608 0.00191007C9.81345 0.00664938 9.95844 0.0199949 10.1019 0.0401671C10.5611 0.104718 10.9989 0.238662 11.4042 0.380972L12.54 0.795805L13.0436 0.969737C13.4397 1.09899 13.7715 1.18368 14 1.18378C14.2521 1.18388 14.5971 1.10024 14.9999 0.972664L15.5086 0.801021L16.7717 0.346669C17.6459 0.048619 18.6516 -0.189233 19.6975 0.243748C20.7433 0.676895 21.2862 1.55639 21.6936 2.38534L22.2657 3.59974C22.55 4.19333 22.813 4.68764 23.0627 4.93706C23.2243 5.09851 23.5187 5.27346 23.8901 5.46233L24.3691 5.69568L25.3828 6.16627L25.8004 6.3729C26.572 6.77609 27.3532 7.32961 27.756 8.3023C28.1958 9.36337 27.964 10.3897 27.6642 11.2727L27.5114 11.7017L27.2039 12.5399L27.03 13.0435C26.9007 13.4395 26.816 13.7714 26.816 13.9999C26.8158 14.3024 26.9363 14.7392 27.1086 15.2489L27.2956 15.7806L27.5018 16.3472C27.8532 17.313 28.2611 18.4786 27.756 19.6988C27.3228 20.7446 26.4433 21.2875 25.6144 21.6949L24.4 22.2667L23.9189 22.505C23.619 22.6606 23.365 22.81 23.1842 22.9548L23.0627 23.0627C22.9013 23.2249 22.7263 23.5194 22.5374 23.8906L22.3041 24.3693L21.8335 25.3828L21.6269 25.8004C21.2237 26.572 20.6702 27.3532 19.6975 27.756C18.6364 28.1958 17.6101 27.964 16.7271 27.6642L15.46 27.2042L14.9564 27.0307C14.5603 26.9018 14.2285 26.8174 14 26.8173C13.6975 26.8172 13.2606 26.9371 12.751 27.109L12.2193 27.2957L11.6527 27.5018C10.6869 27.8532 9.52134 28.2611 8.30114 27.756C7.34248 27.3589 6.80642 26.5877 6.40994 25.8236L6.20582 25.4098L5.73324 24.4013C5.48986 23.8926 5.26238 23.4567 5.04511 23.1855L4.93593 23.064C4.77437 22.9019 4.48026 22.7269 4.10921 22.5382L3.63058 22.3051L2.61719 21.8348L2.19961 21.6282C1.42802 21.225 0.646769 20.6715 0.244031 19.6988C-0.195761 18.6377 0.0359984 17.6104 0.335814 16.7271L0.488599 16.298L0.795788 15.4598L0.969328 14.9562C1.09824 14.5602 1.18259 14.2284 1.18268 13.9999C1.18279 13.7477 1.09949 13.4027 0.972255 13L0.801002 12.4912L0.346951 11.2282C0.0489035 10.3539 -0.188946 9.3482 0.244031 8.3023C0.641078 7.34363 1.41233 6.80757 2.17639 6.41108L2.59015 6.20696L3.59862 5.73409L4.0797 5.49541C4.37968 5.33952 4.63366 5.18986 4.81447 5.04491L4.93593 4.93706C5.13049 4.74319 5.3435 4.35794 5.57658 3.87803L6.06996 2.82063C6.50421 1.88205 7.06318 0.75633 8.30114 0.243748C8.76535 0.0513376 9.22396 -0.0123079 9.66608 0.00191007ZM9.59408 2.24075C9.42717 2.23539 9.29124 2.25816 9.15807 2.31336C8.89259 2.42328 8.68179 2.64243 8.40549 3.15036L8.21028 3.53373L7.61234 4.81363L7.45874 5.12427C7.14817 5.73553 6.88457 6.15757 6.52078 6.52004L6.24742 6.77912L6.06648 6.92776L5.8678 7.06859L5.63531 7.21142L5.35291 7.36607L5.00451 7.54234L3.73924 8.14204C2.76102 8.59842 2.44995 8.83011 2.3137 9.1591C2.22285 9.37853 2.21761 9.62247 2.33367 10.0616L2.44402 10.4303L2.60321 10.8881L2.99885 11.9897L3.13774 12.3982L3.2432 12.736C3.27327 12.8388 3.2985 12.9329 3.31962 13.0213L3.37138 13.2722L3.40288 13.507L3.41241 13.624L3.42176 13.8687C3.42243 13.9114 3.4227 13.9553 3.42268 14.0008C3.4225 14.4306 3.34486 14.8381 3.19667 15.3377L3.04631 15.8094L2.50622 17.3073C2.21765 18.1341 2.1789 18.5168 2.31364 18.8419C2.42357 19.1073 2.64272 19.3182 3.15064 19.5945L3.53401 19.7897L4.81388 20.3878L5.12459 20.5416L5.41465 20.6936L5.6434 20.8236L5.86437 20.824L6.60833 21.5682L6.7663 21.7372L6.90731 21.9056L7.03994 22.0877L7.17279 22.2977L7.31445 22.5496L7.4735 22.8577L7.87814 23.6991L8.14091 24.2607L8.35186 24.6965C8.67722 25.3378 8.8838 25.5728 9.15795 25.6863C9.37737 25.7771 9.62129 25.7824 10.0604 25.6663L10.4291 25.556L10.8869 25.3968L11.9856 25.0023L12.3939 24.8635L12.7321 24.758L13.0183 24.6813C13.0627 24.6707 13.1056 24.6611 13.1475 24.6525L13.3891 24.6111C13.4675 24.6005 13.5446 24.593 13.6236 24.5878L13.8687 24.5783C13.9115 24.5776 13.9554 24.5773 14.001 24.5773C14.4307 24.5775 14.8382 24.6551 15.3379 24.8033L15.8096 24.9537L17.3075 25.4938C18.1343 25.7824 18.5156 25.821 18.8406 25.6864C19.106 25.5764 19.3169 25.3573 19.5931 24.8494L19.7884 24.466L20.3039 23.3594L20.541 22.8749C20.85 22.2675 21.1123 21.847 21.4779 21.4797L21.6523 21.31C21.6804 21.2837 21.7081 21.2583 21.7358 21.2337L21.9042 21.0927L22.0864 20.96L22.2963 20.8272L22.5483 20.6855L22.8564 20.5265L23.6978 20.1218L24.2594 19.859L24.6958 19.6478C25.338 19.3221 25.573 19.1156 25.6863 18.842C25.7771 18.6225 25.7824 18.3786 25.6663 17.9395L25.556 17.5708L25.3968 17.113L25.0964 16.2814L24.8788 15.6543L24.731 15.1783L24.6648 14.9187L24.6201 14.6867C24.6142 14.6495 24.6091 14.6127 24.6046 14.5761L24.5847 14.3561L24.5767 14.1242C24.5762 14.0837 24.5759 14.042 24.576 13.9989C24.5761 13.5684 24.654 13.161 24.8028 12.6607L24.9536 12.189L25.4088 10.9292C25.774 9.93529 25.8333 9.51371 25.6864 9.15922C25.5764 8.89373 25.3573 8.68292 24.8494 8.40663L24.466 8.21141L23.3594 7.696L22.8747 7.45898C22.2654 7.14909 21.8443 6.8863 21.4797 6.52189L21.301 6.33739C21.2733 6.30761 21.2466 6.27811 21.2206 6.24854L21.072 6.06759C21.0243 6.00522 20.9779 5.93988 20.9312 5.86892L20.7883 5.63642L20.6337 5.35401L20.4574 5.00562L19.8577 3.74034C19.4007 2.76062 19.169 2.4494 18.8407 2.31341C18.5938 2.21121 18.316 2.21735 17.764 2.38266L17.3528 2.51701L15.8395 3.05809L15.4771 3.17865L15.1746 3.26992C15.1283 3.28291 15.0838 3.29484 15.0407 3.3058L14.7979 3.36047L14.5748 3.39562L14.3556 3.41517L14.1243 3.42302L13.999 3.42378C13.5685 3.42359 13.1611 3.34572 12.6609 3.19693L12.1891 3.04616L10.7086 2.51117L10.3407 2.3881C10.1774 2.33765 10.041 2.30279 9.9143 2.27884L9.68854 2.24658L9.59408 2.24075ZM19.2466 7.70386C19.5151 7.70386 19.7836 7.80631 19.9885 8.01128C20.3985 8.42122 20.3985 9.08516 19.9885 9.4951L9.49529 19.9884C9.29032 20.1934 9.02201 20.2959 8.75339 20.2959C8.48476 20.2959 8.21575 20.1934 8.01148 19.9884C7.60155 19.5785 7.60155 18.9146 8.01148 18.5046L18.5047 8.01128C18.7097 7.80631 18.9782 7.70386 19.2466 7.70386ZM17.8475 15.399C19.1997 15.399 20.2959 16.4952 20.2959 17.8474C20.2959 19.1997 19.1997 20.2959 17.8475 20.2959C16.4953 20.2959 15.3991 19.1997 15.3991 17.8474C15.3991 16.4952 16.4953 15.399 17.8475 15.399ZM10.1525 7.70386C11.5047 7.70386 12.6009 8.80006 12.6009 10.1523C12.6009 11.5045 11.5047 12.6007 10.1525 12.6007C8.80026 12.6007 7.70406 11.5045 7.70406 10.1523C7.70406 8.80006 8.80026 7.70386 10.1525 7.70386Z" fill="white"/>
</svg>
