<svg width="665" height="300" viewBox="0 0 665 300" fill="none" xmlns="http://www.w3.org/2000/svg">
<path fill-rule="evenodd" clip-rule="evenodd" d="M21.736 8.75C18.0899 8.75072 14.5931 10.1981 12.0131 12.7745C9.43314 15.3509 7.98081 18.8457 7.97498 22.4918C7.9779 26.1403 9.42875 29.6384 12.0089 32.2181C14.589 34.7977 18.0875 36.2478 21.736 36.25C25.3811 36.2435 28.8748 34.7912 31.4505 32.2119C34.0262 29.6326 35.4735 26.1369 35.475 22.4918C35.4699 18.8493 34.0209 15.3574 31.4455 12.7815C28.8701 10.2056 25.3785 8.75582 21.736 8.75ZM22 44.5C9.86425 44.5 -5.3023e-07 34.622 0 22.4918C5.29509e-07 10.378 9.86425 0.499999 22 0.5C34.1357 0.500001 44 10.378 44 22.4918C44 34.6193 34.1357 44.5 22 44.5Z" fill="#F0E7FD"/>
<path fill-rule="evenodd" clip-rule="evenodd" d="M56.41 104.813C55.167 104.813 53.9749 105.306 53.0954 106.184C52.2158 107.063 51.7207 108.254 51.7187 109.497C51.7197 110.741 52.2143 111.934 53.0939 112.813C53.9735 113.692 55.1662 114.187 56.41 114.188C57.6527 114.185 58.8437 113.69 59.7218 112.811C60.5998 111.932 61.0932 110.74 61.0937 109.497C61.092 108.255 60.598 107.065 59.7201 106.187C58.8421 105.309 57.6518 104.814 56.41 104.813ZM56.5 117C52.3628 117 49 113.633 49 109.497C49 105.368 52.3628 102 56.5 102C60.6372 102 64 105.368 64 109.497C64 113.632 60.6372 117 56.5 117Z" fill="#F0E7FD"/>
<path fill-rule="evenodd" clip-rule="evenodd" d="M506.808 274C504.156 274 501.613 275.053 499.737 276.927C497.86 278.801 496.804 281.342 496.8 283.994C496.802 286.647 497.857 289.191 499.734 291.068C501.61 292.944 504.154 293.998 506.808 294C509.459 293.995 512 292.939 513.873 291.063C515.746 289.187 516.799 286.645 516.8 283.994C516.796 281.345 515.742 278.805 513.869 276.932C511.996 275.059 509.457 274.004 506.808 274ZM507 300C498.174 300 491 292.816 491 283.994C491 275.184 498.174 268 507 268C515.826 268 523 275.184 523 283.994C523 292.814 515.826 300 507 300Z" fill="#F0E7FD"/>
<path fill-rule="evenodd" clip-rule="evenodd" d="M180.422 128.744L186.327 122.851L192.21 128.745L195.75 125.212L189.868 119.319L195.757 113.44L192.226 109.902L186.337 115.779L180.446 109.877L176.906 113.41L182.798 119.312L176.891 125.207L180.422 128.744Z" fill="#F0E7FD"/>
<path fill-rule="evenodd" clip-rule="evenodd" d="M408 161.337H416.343V169.666H421.344V161.339H429.665V156.34H421.346V148.001H416.345V156.34H408V161.337Z" fill="#F0E7FD"/>
<path fill-rule="evenodd" clip-rule="evenodd" d="M111 236.478C110.981 232.902 109.549 229.478 107.016 226.953C104.483 224.428 101.054 223.007 97.4779 223C93.9038 223.001 90.4764 224.422 87.9491 226.949C85.4218 229.476 84.0013 232.904 83.9999 236.478C83.9955 238.251 84.3409 240.008 85.0162 241.648C85.6914 243.287 86.6833 244.778 87.9352 246.034C89.187 247.29 90.6742 248.286 92.3117 248.967C93.9491 249.647 95.7046 249.998 97.4779 250C101.061 249.991 104.496 248.564 107.03 246.03C109.564 243.496 110.991 240.062 111 236.478Z" fill="#F0E7FD"/>
<path fill-rule="evenodd" clip-rule="evenodd" d="M353 65.4943C353.005 64.5671 353.376 63.6794 354.033 63.0248C354.689 62.3702 355.578 62.0018 356.506 62C357.432 62.0003 358.321 62.3686 358.976 63.0238C359.631 63.6791 360 64.5676 360 65.4943C360.001 65.954 359.911 66.4095 359.736 66.8346C359.561 67.2597 359.304 67.6461 358.98 67.9717C358.655 68.2973 358.27 68.5557 357.845 68.7321C357.42 68.9086 356.965 68.9996 356.506 69C355.577 68.9977 354.686 68.6276 354.029 67.9707C353.372 67.3137 353.002 66.4234 353 65.4943Z" fill="#F0E7FD"/>
<path fill-rule="evenodd" clip-rule="evenodd" d="M634.922 236.477L646.477 224.922L658.012 236.457L664.938 229.531L653.405 217.998L664.93 206.473L658.006 199.549L646.484 211.072L634.934 199.522L628.008 206.448L639.558 217.998L628 229.556L634.922 236.477Z" fill="#F0E7FD"/>
<path fill-rule="evenodd" clip-rule="evenodd" d="M562.5 122.352L573.668 122.352V133.5H580.362V122.354H591.5V115.663H580.364V104.5H573.67V115.663H562.5V122.352Z" fill="#F0E7FD"/>
</svg>
