<svg width="24" height="24" viewBox="0 0 24 24" fill="none" xmlns="http://www.w3.org/2000/svg">
<path fill-rule="evenodd" clip-rule="evenodd" d="M12.9852 0.121645L5.08584 2.5306C3.63333 2.97297 2.81214 4.5026 3.26567 5.91771L8.45952 22.1048C8.91365 23.5187 10.4823 24.3202 11.933 23.8785L19.8341 21.4701C21.2854 21.0271 22.106 19.4975 21.6531 18.083L16.4604 1.89536C16.1194 0.834627 15.1518 0.118632 14.0767 0.0137636C13.8957 -0.0041759 13.7134 -0.00457959 13.5324 0.0125582C13.3498 0.0306389 13.1666 0.0668003 12.9852 0.121645ZM13.9061 1.80194C14.2737 1.8324 14.5861 2.08198 14.6959 2.43296L19.8879 18.6212C20.0427 19.1058 19.7791 19.5982 19.2814 19.75L11.3827 22.1584C10.885 22.3103 10.3807 22.0523 10.2247 21.5678L5.03082 5.37951V5.37891C4.87601 4.89435 5.14027 4.40195 5.63734 4.25007L13.5373 1.84172C13.6565 1.80502 13.7818 1.79151 13.9061 1.80194ZM20.2266 3.8535C20.638 3.84358 21.0063 4.1064 21.1294 4.49778L23.9316 13.2295C24.0368 13.5387 23.963 13.8799 23.7381 14.1209C23.5103 14.363 23.1708 14.4665 22.8462 14.3927C22.5202 14.3192 22.2602 14.0799 22.1665 13.7671L19.3648 5.03477C19.2735 4.76296 19.3195 4.46523 19.49 4.23259C19.6624 3.99821 19.935 3.85789 20.2266 3.8535ZM1.9081 9.48624C2.31935 9.47624 2.68758 9.73877 2.81093 10.1299L5.58533 18.7773C5.69125 19.0874 5.61683 19.4305 5.39183 19.6693C5.16393 19.9111 4.82442 20.0144 4.49988 19.9405C4.17678 19.8695 3.9172 19.6304 3.82079 19.3149L1.04639 10.6687C0.954533 10.3967 1.00075 10.0972 1.17035 9.86533C1.34088 9.63209 1.61421 9.49106 1.9081 9.48564V9.48624ZM14.4848 17.9998C14.9855 17.9998 15.3919 18.403 15.3919 18.9003C15.3919 19.3969 14.9855 19.8001 14.4848 19.8001C13.9841 19.8001 13.5778 19.3969 13.5778 18.9003C13.5778 18.403 13.9841 17.9998 14.4848 17.9998Z" fill="#991EFA"/>
</svg>
