<svg width="27" height="28" viewBox="0 0 27 28" fill="none" xmlns="http://www.w3.org/2000/svg">
<path fill-rule="evenodd" clip-rule="evenodd" d="M14.1492 0.141919L4.93332 2.95236C3.23872 3.46847 2.28066 5.25303 2.80978 6.904L8.86927 25.7889C9.3991 27.4384 11.2291 28.3736 12.9216 27.8582L22.1396 25.0485C23.8328 24.5317 24.7902 22.7471 24.2617 21.0968L18.2037 2.21126C17.8058 0.973732 16.677 0.138404 15.4226 0.0160575C15.2115 -0.00487189 14.9989 -0.00534285 14.7877 0.0146513C14.5746 0.0357454 14.3608 0.0779337 14.1492 0.141919ZM15.2237 2.10227C15.6525 2.1378 16.0169 2.42898 16.145 2.83845L22.2024 21.7247C22.383 22.2901 22.0754 22.8645 21.4948 23.0417L12.2796 25.8515C11.699 26.0287 11.1106 25.7277 10.9286 25.1624L4.86912 6.2761V6.27539C4.68852 5.71007 4.99682 5.13561 5.57673 4.95842L14.7933 2.14868C14.9324 2.10585 15.0785 2.0901 15.2237 2.10227ZM22.5975 4.49575C23.0775 4.48418 23.5071 4.7908 23.6508 5.24741L26.92 15.4345C27.0428 15.7952 26.9567 16.1932 26.6943 16.4744C26.4286 16.7568 26.0324 16.8775 25.6537 16.7915C25.2734 16.7057 24.9701 16.4266 24.8607 16.0617L21.5922 5.8739C21.4856 5.55679 21.5392 5.20944 21.7382 4.93802C21.9393 4.66458 22.2573 4.50088 22.5975 4.49575ZM1.22595 11.0673C1.70575 11.0556 2.13535 11.3619 2.27925 11.8182L5.51606 21.9069C5.63963 22.2687 5.55281 22.6689 5.2903 22.9475C5.02442 23.2297 4.62833 23.3501 4.2497 23.2639C3.87275 23.1811 3.56991 22.9021 3.45743 22.5341L0.220622 12.4468C0.113459 12.1295 0.167374 11.7801 0.365248 11.5096C0.564197 11.2374 0.883081 11.0729 1.22595 11.0666V11.0673ZM15.8988 20.9998C16.483 20.9998 16.9571 21.4702 16.9571 22.0503C16.9571 22.6297 16.483 23.1001 15.8988 23.1001C15.3147 23.1001 14.8406 22.6297 14.8406 22.0503C14.8406 21.4702 15.3147 20.9998 15.8988 20.9998Z" fill="white"/>
</svg>
