<svg width="24" height="24" viewBox="0 0 24 24" fill="none" xmlns="http://www.w3.org/2000/svg">
<path d="M2.1573 15.5667C2.36016 15.5489 2.55767 15.5139 2.74873 15.4637C4.17782 19.4849 8.01644 22.3739 12.5245 22.3739C14.5076 22.3739 16.3612 21.8132 17.9381 20.8444C18.0593 21.0045 18.1937 21.154 18.3398 21.2914C16.6509 22.3544 14.661 22.9751 12.5245 22.9751C7.72553 22.9751 3.6422 19.8722 2.1573 15.5667ZM20.7776 17.3395C21.523 17.3395 22.1275 17.9439 22.1275 18.6893C22.1275 19.4332 21.5232 20.0379 20.7776 20.0379C20.0321 20.0379 19.4278 19.4332 19.4278 18.6893C19.4278 17.9439 20.0323 17.3395 20.7776 17.3395ZM11.9774 5.68208C11.902 5.8886 11.8454 6.10366 11.8087 6.32508C8.98442 6.67825 6.78493 9.07464 6.78493 11.9992C6.78493 15.1651 9.35829 17.7385 12.5242 17.7385C15.6902 17.7385 18.2635 15.1651 18.2635 11.9992C18.2635 11.1295 18.0547 10.3189 17.7097 9.59126C17.8747 9.44385 18.0262 9.28146 18.1619 9.106C18.61 9.97359 18.8635 10.9567 18.8635 11.9992C18.8635 15.4943 16.0202 18.3397 12.5242 18.3397C9.02948 18.3397 6.18496 15.4942 6.18496 11.9992C6.18496 8.68839 8.73756 5.96041 11.9774 5.68208ZM12.5245 1.02344C18.5756 1.02344 23.5 5.94781 23.5 11.999C23.5 13.3228 23.2601 14.5912 22.8267 15.7677C22.6611 15.6523 22.4853 15.5508 22.3011 15.4644C22.6872 14.3805 22.9 13.2151 22.9 11.999C22.9 6.27662 18.2453 1.62464 12.5245 1.62464C8.01644 1.62464 4.17782 4.51366 2.74873 8.53484C2.55756 8.48459 2.35993 8.44957 2.15695 8.43181C3.64155 4.12687 7.72513 1.02344 12.5245 1.02344ZM12.5252 10.6494C13.2692 10.6494 13.8738 11.2536 13.8738 11.9992C13.8738 12.7448 13.2692 13.349 12.5252 13.349C11.7798 13.349 11.1754 12.7446 11.1754 11.9992C11.1754 11.2538 11.7798 10.6494 12.5252 10.6494ZM1.84859 10.6494C2.59397 10.6494 3.1984 11.2538 3.1984 11.9992C3.1984 12.7446 2.59397 13.349 1.84859 13.349C1.10465 13.349 0.5 12.7448 0.5 11.9992C0.5 11.2536 1.10465 10.6494 1.84859 10.6494ZM15.3286 5.57488C16.0742 5.57488 16.6784 6.17953 16.6784 6.92346C16.6784 7.66884 16.074 8.27328 15.3286 8.27328C14.5832 8.27328 13.9788 7.66884 13.9788 6.92346C13.9788 6.17953 14.583 5.57488 15.3286 5.57488Z" fill="#01AD35" stroke="#01AD35"/>
</svg>
