<svg width="21" height="24" viewBox="0 0 21 24" fill="none" xmlns="http://www.w3.org/2000/svg">
<mask id="path-1-inside-1_1748_27285" fill="white">
<path fill-rule="evenodd" clip-rule="evenodd" d="M10.1591 16.5292C10.4268 16.3762 10.758 16.3762 11.0257 16.5292C11.2935 16.6822 11.4564 16.9645 11.452 17.268V21.1268L12.85 19.7581C13.0656 19.5383 13.3857 19.4497 13.687 19.5266C13.9882 19.6035 14.2234 19.8338 14.302 20.1287C14.3805 20.4236 14.2901 20.7371 14.0655 20.9482L11.2002 23.7534C11.042 23.9083 10.8284 23.9967 10.6047 23.9999C10.3725 24.0031 10.1488 23.9142 9.98464 23.7534L7.1193 20.9482C6.89475 20.7371 6.80429 20.4236 6.88283 20.1287C6.96136 19.8338 7.1966 19.6035 7.49784 19.5266C7.79907 19.4497 8.11923 19.5383 8.33483 19.7581L9.7328 21.1268V17.268C9.72842 16.9645 9.89129 16.6822 10.1591 16.5292ZM17.2833 0C18.9261 0 20.2871 1.23692 20.3933 2.78163L20.4 2.97625V15.9635C20.4 17.5323 19.1047 18.8319 17.4871 18.9334L17.2833 18.9398L14.5008 18.9396V17.316L17.2833 17.3164C18.0228 17.3164 18.616 16.797 18.6918 16.1126L18.7 15.9635V2.97625C18.7 2.21962 18.0757 1.62341 17.2833 1.62341H3.11667C2.37716 1.62341 1.78399 2.14277 1.70819 2.82719L1.7 2.97625V15.9635C1.7 16.6697 2.24387 17.2362 2.96058 17.3085L3.11667 17.3164L6.468 17.316V18.9396L3.11667 18.9398C1.47391 18.9398 0.112926 17.7029 0.00667591 16.1581L0 15.9635V2.97625C0 1.4075 1.29527 0.107838 2.91286 0.00637493L3.11667 0H17.2833ZM7.99 9.63602C8.77652 9.63602 9.43304 10.2296 9.51203 10.9794L9.52 11.1313V13.4572C9.52 14.2259 8.91263 14.8675 8.14544 14.9447L7.99 14.9525H5.61C4.82348 14.9525 4.16696 14.3589 4.08797 13.6091L4.08 13.4572V11.1313C4.08 10.3626 4.68737 9.72101 5.45456 9.64381L5.61 9.63602H7.99ZM16.32 13.1249V14.9525H14.45V13.1249H16.32ZM12.75 13.1249V14.9525H10.88V13.1249H12.75ZM14.45 11.4635V13.1249H12.75V11.4635H14.45ZM12.75 9.63602V11.4635H10.88V9.63602H12.75ZM16.32 9.63602V11.4635H14.45V9.63602H16.32ZM7.99 2.99049C8.77652 2.99049 9.43304 3.58406 9.51203 4.33383L9.52 4.48573V6.81167C9.52 7.58032 8.91263 8.22193 8.14544 8.29913L7.99 8.30692H5.61C4.82348 8.30692 4.16696 7.71335 4.08797 6.96358L4.08 6.81167V4.48573C4.08 3.71709 4.68737 3.07547 5.45456 2.99827L5.61 2.99049H7.99ZM14.79 2.99049C15.5765 2.99049 16.233 3.58406 16.312 4.33383L16.32 4.48573V6.81167C16.32 7.58032 15.7126 8.22193 14.9454 8.29913L14.79 8.30692H12.41C11.6235 8.30692 10.967 7.71335 10.888 6.96358L10.88 6.81167V4.48573C10.88 3.71709 11.4874 3.07547 12.2546 2.99827L12.41 2.99049H14.79Z"/>
</mask>
<path fill-rule="evenodd" clip-rule="evenodd" d="M10.1591 16.5292C10.4268 16.3762 10.758 16.3762 11.0257 16.5292C11.2935 16.6822 11.4564 16.9645 11.452 17.268V21.1268L12.85 19.7581C13.0656 19.5383 13.3857 19.4497 13.687 19.5266C13.9882 19.6035 14.2234 19.8338 14.302 20.1287C14.3805 20.4236 14.2901 20.7371 14.0655 20.9482L11.2002 23.7534C11.042 23.9083 10.8284 23.9967 10.6047 23.9999C10.3725 24.0031 10.1488 23.9142 9.98464 23.7534L7.1193 20.9482C6.89475 20.7371 6.80429 20.4236 6.88283 20.1287C6.96136 19.8338 7.1966 19.6035 7.49784 19.5266C7.79907 19.4497 8.11923 19.5383 8.33483 19.7581L9.7328 21.1268V17.268C9.72842 16.9645 9.89129 16.6822 10.1591 16.5292ZM17.2833 0C18.9261 0 20.2871 1.23692 20.3933 2.78163L20.4 2.97625V15.9635C20.4 17.5323 19.1047 18.8319 17.4871 18.9334L17.2833 18.9398L14.5008 18.9396V17.316L17.2833 17.3164C18.0228 17.3164 18.616 16.797 18.6918 16.1126L18.7 15.9635V2.97625C18.7 2.21962 18.0757 1.62341 17.2833 1.62341H3.11667C2.37716 1.62341 1.78399 2.14277 1.70819 2.82719L1.7 2.97625V15.9635C1.7 16.6697 2.24387 17.2362 2.96058 17.3085L3.11667 17.3164L6.468 17.316V18.9396L3.11667 18.9398C1.47391 18.9398 0.112926 17.7029 0.00667591 16.1581L0 15.9635V2.97625C0 1.4075 1.29527 0.107838 2.91286 0.00637493L3.11667 0H17.2833ZM7.99 9.63602C8.77652 9.63602 9.43304 10.2296 9.51203 10.9794L9.52 11.1313V13.4572C9.52 14.2259 8.91263 14.8675 8.14544 14.9447L7.99 14.9525H5.61C4.82348 14.9525 4.16696 14.3589 4.08797 13.6091L4.08 13.4572V11.1313C4.08 10.3626 4.68737 9.72101 5.45456 9.64381L5.61 9.63602H7.99ZM16.32 13.1249V14.9525H14.45V13.1249H16.32ZM12.75 13.1249V14.9525H10.88V13.1249H12.75ZM14.45 11.4635V13.1249H12.75V11.4635H14.45ZM12.75 9.63602V11.4635H10.88V9.63602H12.75ZM16.32 9.63602V11.4635H14.45V9.63602H16.32ZM7.99 2.99049C8.77652 2.99049 9.43304 3.58406 9.51203 4.33383L9.52 4.48573V6.81167C9.52 7.58032 8.91263 8.22193 8.14544 8.29913L7.99 8.30692H5.61C4.82348 8.30692 4.16696 7.71335 4.08797 6.96358L4.08 6.81167V4.48573C4.08 3.71709 4.68737 3.07547 5.45456 2.99827L5.61 2.99049H7.99ZM14.79 2.99049C15.5765 2.99049 16.233 3.58406 16.312 4.33383L16.32 4.48573V6.81167C16.32 7.58032 15.7126 8.22193 14.9454 8.29913L14.79 8.30692H12.41C11.6235 8.30692 10.967 7.71335 10.888 6.96358L10.88 6.81167V4.48573C10.88 3.71709 11.4874 3.07547 12.2546 2.99827L12.41 2.99049H14.79Z" fill="#01AD35" stroke="#01AD35" stroke-width="2" mask="url(#path-1-inside-1_1748_27285)"/>
</svg>
