<svg width="22" height="24" viewBox="0 0 22 24" fill="none" xmlns="http://www.w3.org/2000/svg">
<path d="M17.2 3.80488C17.2 4.37006 17.0491 4.90338 16.7849 5.37265L16.6502 5.59241L16.1838 6.35366H17.0766H20.1C20.6231 6.35366 21.0386 6.73723 21.0937 7.20778L21.1 7.33003V10.8293C21.1 11.3135 20.7225 11.7306 20.2151 11.7864L20.0877 11.7927H12.2V6.35358C13.1992 6.35021 14.1937 6.21647 15.1584 5.95572L15.2478 5.93155L15.3226 5.87697L15.3934 5.82529L15.3935 5.82538L15.4019 5.81897C16.0102 5.35518 16.4 4.62827 16.4 3.80488C16.4 2.37567 15.2345 1.2561 13.8 1.2561C12.5921 1.2561 11.5751 2.04827 11.2833 3.15711L11.2832 3.15709L11.2816 3.16386L11.2681 3.21828L11.2546 3.27241L11.2534 3.32816L11.2105 5.35366H10.4V3.9336V3.90793L10.3974 3.8824L10.3305 3.23313L10.3266 3.19458L10.3167 3.15711C10.0249 2.04827 9.00793 1.2561 7.8 1.2561C6.36553 1.2561 5.2 2.37567 5.2 3.80488C5.2 4.62141 5.58336 5.34316 6.18306 5.80743L6.18297 5.80755L6.19297 5.8149L6.27591 5.87589L6.3513 5.93131L6.44162 5.95572C7.40629 6.21647 8.40082 6.35021 9.4 6.35358V11.7927H1.5C0.976866 11.7927 0.561406 11.4091 0.506332 10.9385L0.5 10.8163V7.31707C0.5 6.83288 0.877526 6.41574 1.38492 6.35994L1.51232 6.35366H4.52344H5.45337L4.94053 5.57792C4.59904 5.06137 4.4 4.45382 4.4 3.80488C4.4 2.06622 5.81413 0.607602 7.6006 0.505674L7.80663 0.500007C8.86147 0.502148 9.77843 1.01516 10.4131 1.79043L10.8 2.26303L11.1869 1.79043C11.7759 1.0709 12.6083 0.577688 13.5657 0.508429L13.8084 0.50001C15.6833 0.50447 17.2 2.00438 17.2 3.80488ZM20.18 7.7736V7.2736H19.68H13.62H13.12V7.7736V10.3716V10.8716H13.62H19.68H20.18V10.3716V7.7736ZM8.48 7.7736V7.2736H7.98H1.92H1.42V7.7736V10.3716V10.8716H1.92H7.98H8.48V10.3716V7.7736ZM7.98021 22.5788L8.48 22.5786V22.0788V15.9684V15.4684H7.98H3.12H2.62V15.9684V20.1951C2.62 21.4418 3.62513 22.4612 4.87568 22.5703L4.88654 22.5712L4.89744 22.5717L5.07834 22.5795L5.08927 22.58L5.10021 22.58L7.98021 22.5788ZM18.98 15.9684V15.4684H18.48H13.62H13.12V15.9684V22.0788V22.5786L13.6198 22.5788L16.4998 22.58H16.5C17.7811 22.58 18.8533 21.6301 18.9697 20.4118L18.9708 20.3999L18.9714 20.388L18.9794 20.2189L18.98 20.207V20.1951V15.9684ZM9.4 14.5488V23.5H5.1C3.2845 23.5 1.80867 22.1082 1.70577 20.3886L1.7 20.1879V14.5488H9.4ZM19.9 14.5488V20.1951C19.9 21.9385 18.4902 23.3927 16.7 23.4943L16.4931 23.5H12.2V14.5488H19.9Z" fill="#01AD35" stroke="#01AD35"/>
</svg>
