<svg width="24" height="24" viewBox="0 0 24 24" fill="none" xmlns="http://www.w3.org/2000/svg">
<path fill-rule="evenodd" clip-rule="evenodd" d="M20.7065 0C22.187 0 23.4065 1.2195 23.4065 2.7V21.3C23.4065 22.7805 22.187 24 20.7065 24H11.7065C10.226 24 9.00645 22.7805 9.00645 21.3L9.006 15.6H10.806L10.8065 21.3C10.8065 21.7656 11.1359 22.1338 11.5821 22.192L11.7065 22.2H20.7065C21.2144 22.2 21.6065 21.8079 21.6065 21.3V2.7C21.6065 2.1921 21.2144 1.8 20.7065 1.8H11.7065C11.1986 1.8 10.8065 2.1921 10.8065 2.7L10.806 9.6H9.006L9.00645 2.7C9.00645 1.28119 10.1264 0.102078 11.5228 0.00628223L11.7065 0H20.7065ZM16.2065 18.6C16.7035 18.6 17.1065 19.0029 17.1065 19.5C17.1065 19.9971 16.7035 20.4 16.2065 20.4C15.7094 20.4 15.3065 19.9971 15.3065 19.5C15.3065 19.0029 15.7094 18.6 16.2065 18.6ZM6.67282 8.48705C6.98821 8.40493 7.32341 8.49952 7.54915 8.73435L10.5491 11.7308C10.7148 11.8962 10.8094 12.1196 10.8129 12.3535C10.8162 12.5963 10.7211 12.8302 10.5491 13.0019L7.54915 15.9984C7.32341 16.2332 6.98821 16.3278 6.67282 16.2457C6.35742 16.1636 6.11112 15.9175 6.0289 15.6025C5.94668 15.2875 6.04138 14.9527 6.27649 14.7272L7.74016 13.2653H0.912818C0.588246 13.2699 0.286345 13.0996 0.122719 12.8195C-0.0409064 12.5395 -0.0409064 12.1932 0.122719 11.9132C0.286345 11.6332 0.588246 11.4628 0.912818 11.4674H7.74016L6.27649 10.0055C6.04138 9.78003 5.94668 9.44522 6.0289 9.1302C6.11112 8.81518 6.35742 8.56918 6.67282 8.48705ZM14.9065 11.2C15.3588 11.2 15.7381 11.5416 15.7982 11.9786L15.8065 12.1V13.5C15.8065 13.9524 15.4649 14.3316 15.0278 14.3917L14.9065 14.4H13.5065C13.0541 14.4 12.6748 14.0584 12.6147 13.6214L12.6065 13.5V12.1C12.6065 11.6476 12.948 11.2684 13.3851 11.2083L13.5065 11.2H14.9065ZM19.8065 13.3V14.4H18.7065V13.3H19.8065ZM17.7065 13.3V14.4H16.6065V13.3H17.7065ZM18.7065 12.3V13.3H17.7065V12.3H18.7065ZM17.7065 11.2V12.3H16.6065V11.2H17.7065ZM19.8065 11.2V12.3H18.7065V11.2H19.8065ZM14.9065 7.2C15.3588 7.2 15.7381 7.54157 15.7982 7.97862L15.8065 8.1V9.5C15.8065 9.95238 15.4649 10.3316 15.0278 10.3917L14.9065 10.4H13.5065C13.0541 10.4 12.6748 10.0584 12.6147 9.62138L12.6065 9.5V8.1C12.6065 7.64762 12.948 7.26835 13.3851 7.20828L13.5065 7.2H14.9065ZM18.9065 7.2C19.3588 7.2 19.7381 7.54157 19.7982 7.97862L19.8065 8.1V9.5C19.8065 9.95238 19.4649 10.3316 19.0278 10.3917L18.9065 10.4H17.5065C17.0541 10.4 16.6748 10.0584 16.6147 9.62138L16.6065 9.5V8.1C16.6065 7.64762 16.948 7.26835 17.3851 7.20828L17.5065 7.2H18.9065Z" fill="#01AD35"/>
</svg>
