<svg width="24" height="24" viewBox="0 0 24 24" fill="none" xmlns="http://www.w3.org/2000/svg">
<path d="M11.6856 4.187L11.6932 4.68694C11.8016 4.6853 11.906 4.72759 11.9826 4.80405C12.0592 4.88052 12.1015 4.9847 12.1 5.09283L12.0999 5.09283V5.1V5.75039V6.20552L12.553 6.24819C13.7325 6.35925 14.707 7.16777 15.0044 8.26799L15.0045 8.26815C15.0418 8.4061 15.0027 8.55352 14.9018 8.65487C14.8009 8.75623 14.6535 8.7961 14.5151 8.75937C14.3768 8.72264 14.2687 8.61495 14.2314 8.47697L14.2314 8.47693C14.0027 7.63104 13.2351 7 12.2998 7H11.8438H11.8031L11.7628 7.00661C11.7198 7.01367 11.676 7.01367 11.633 7.00661L11.5927 7H11.5519H11.2495C10.0515 7 9.09902 7.95201 9.09902 9.15C9.09902 10.348 10.0515 11.3 11.2495 11.3H12.4499C14.2348 11.3 15.701 12.7659 15.701 14.55C15.701 16.2816 14.3073 17.697 12.5788 17.77L12.0999 17.7902V18.2695V18.9H12.0999L12.1 18.9071C12.102 19.0513 12.0262 19.1855 11.9015 19.2582C11.7768 19.331 11.6225 19.331 11.4978 19.2582C11.3731 19.1855 11.2973 19.0513 11.2993 18.9071H11.2994V18.9V18.2496V17.7945L10.8463 17.7518C9.65854 17.6398 8.67879 16.8194 8.389 15.7071L8.38918 15.7071L8.38533 15.6938C8.34477 15.5541 8.38332 15.4033 8.48608 15.3001C8.58885 15.1969 8.73963 15.1577 8.87977 15.1977C9.0199 15.2376 9.12715 15.3505 9.15993 15.4923L9.15974 15.4924L9.16323 15.5058C9.38609 16.3611 10.1576 17 11.0995 17H12.4499C13.8135 17 14.9005 15.9135 14.9005 14.55C14.9005 13.1865 13.8135 12.1 12.4499 12.1H11.2495C9.63025 12.1 8.29848 10.7684 8.29848 9.15C8.29848 7.68342 9.41986 6.48681 10.8678 6.2867L11.2994 6.22706V5.79141V5.1H11.2994L11.2993 5.09283C11.2962 4.87225 11.4724 4.69044 11.6935 4.68694L11.6856 4.187ZM11.6856 4.187C11.929 4.18331 12.1636 4.27822 12.3359 4.45022C12.5082 4.62222 12.6034 4.85663 12.5999 5.1H10.7994C10.7923 4.60339 11.1888 4.19487 11.6856 4.187ZM1.89686 4.80703V6.30528L2.79665 5.10731C4.89785 2.30979 8.24133 0.5 11.9997 0.5C18.2324 0.5 23.3243 5.47991 23.4988 11.6707L23.4987 11.6707L23.4994 11.684C23.5074 11.8292 23.4359 11.9674 23.3125 12.0448C23.1892 12.1222 23.0335 12.1265 22.9061 12.0562C22.7786 11.9858 22.6995 11.8518 22.6993 11.7064L22.6995 11.7064L22.6991 11.6929C22.5363 5.91743 17.8188 1.3 11.9997 1.3C8.43563 1.3 5.28718 3.0369 3.34313 5.7056L2.76443 6.5H3.74726H5.09767V6.50005L5.10474 6.49995C5.24918 6.49791 5.38346 6.57378 5.45621 6.69838C5.52894 6.82297 5.52894 6.97703 5.45621 7.10162C5.38346 7.22622 5.24918 7.30209 5.10474 7.30005L5.10474 7.3H5.09767H1.49664C1.49662 7.3 1.49661 7.3 1.49659 7.3C1.27528 7.29995 1.09623 7.12062 1.09623 6.9V3.3H1.09628L1.09618 3.29292C1.09305 3.07223 1.26932 2.8905 1.49033 2.88705C1.59863 2.88536 1.70297 2.92759 1.77956 3.00405L2.13283 2.65022L1.77956 3.00406C1.85615 3.08052 1.89846 3.1847 1.89691 3.29283L1.89686 3.29283V3.3V4.80703ZM0.50063 12.3293L0.500682 12.3293L0.500377 12.3221C0.490994 12.1016 0.662078 11.915 0.882968 11.9054C0.991056 11.9008 1.09638 11.9401 1.17496 12.0144C1.25361 12.0887 1.29878 12.1916 1.30024 12.2997L1.30019 12.2997L1.30039 12.3071C1.46319 18.0826 6.18072 22.7 11.9997 22.7C15.5638 22.7 18.7123 20.9631 20.6563 18.2944L21.235 17.5H20.2522H18.9018V17.5L18.8947 17.5C18.7503 17.5021 18.616 17.4262 18.5433 17.3016C18.4705 17.177 18.4705 17.023 18.5433 16.8984C18.616 16.7738 18.7503 16.6979 18.8947 16.7L18.8947 16.7H18.9018H22.5028C22.5028 16.7 22.5029 16.7 22.5029 16.7C22.7242 16.7001 22.9032 16.8794 22.9032 17.1V20.7H22.9032L22.9033 20.7069C22.9053 20.8512 22.8295 20.9855 22.7048 21.0582C22.58 21.131 22.4257 21.131 22.301 21.0582C22.1763 20.9855 22.1005 20.8513 22.1026 20.7071L22.1026 20.7071V20.7V19.193V17.6947L21.2028 18.8927C19.1016 21.6902 15.7581 23.5 11.9997 23.5C5.76708 23.5 0.675133 18.5201 0.50063 12.3293Z" fill="#01AD35" stroke="#01AD35"/>
</svg>
