<svg width="20" height="20" viewBox="0 0 20 20" fill="none" xmlns="http://www.w3.org/2000/svg">
<path fill-rule="evenodd" clip-rule="evenodd" d="M2.5 0C1.12917 0 0 1.12917 0 2.5V6.38889C0 7.75972 1.12917 8.88889 2.5 8.88889H6.38889C7.75972 8.88889 8.88889 7.75972 8.88889 6.38889V2.5C8.88889 1.12917 7.75972 0 6.38889 0H2.5ZM13.6111 0C12.2403 0 11.1111 1.12917 11.1111 2.5V6.38889C11.1111 7.75972 12.2403 8.88889 13.6111 8.88889H17.5C18.8708 8.88889 20 7.75972 20 6.38889V2.5C20 1.12917 18.8708 0 17.5 0H13.6111ZM2.5 1.66667H6.38889C6.85917 1.66667 7.22222 2.02972 7.22222 2.5V6.38889C7.22222 6.85917 6.85917 7.22222 6.38889 7.22222H2.5C2.02972 7.22222 1.66667 6.85917 1.66667 6.38889V2.5C1.66667 2.02972 2.02972 1.66667 2.5 1.66667ZM13.6111 1.66667H17.5C17.9703 1.66667 18.3333 2.02972 18.3333 2.5V6.38889C18.3333 6.85917 17.9703 7.22222 17.5 7.22222H13.6111C13.1408 7.22222 12.7778 6.85917 12.7778 6.38889V2.5C12.7778 2.02972 13.1408 1.66667 13.6111 1.66667ZM3.33333 3.33333V5.55556H5.55556V3.33333H3.33333ZM14.4444 3.33333V5.55556H16.6667V3.33333H14.4444ZM2.5 11.1111C1.12917 11.1111 0 12.2403 0 13.6111V17.5C0 18.8708 1.12917 20 2.5 20H6.38889C7.75972 20 8.88889 18.8708 8.88889 17.5V13.6111C8.88889 12.2403 7.75972 11.1111 6.38889 11.1111H2.5ZM11.1111 11.1111V14.1667H14.1667V11.1111H11.1111ZM14.1667 14.1667V16.9444H16.9444V14.1667H14.1667ZM16.9444 14.1667H20V11.1111H16.9444V14.1667ZM16.9444 16.9444V20H20V16.9444H16.9444ZM14.1667 16.9444H11.1111V20H14.1667V16.9444ZM2.5 12.7778H6.38889C6.85917 12.7778 7.22222 13.1408 7.22222 13.6111V17.5C7.22222 17.9703 6.85917 18.3333 6.38889 18.3333H2.5C2.02972 18.3333 1.66667 17.9703 1.66667 17.5V13.6111C1.66667 13.1408 2.02972 12.7778 2.5 12.7778ZM3.33333 14.4444V16.6667H5.55556V14.4444H3.33333Z" fill="#01AD35"/>
</svg>
