<svg width="23" height="24" viewBox="0 0 23 24" fill="none" xmlns="http://www.w3.org/2000/svg">
<path d="M18.7 9.83041C18.4379 9.75121 18.1709 9.68487 17.9 9.63079V2.51867V1.59702L17.1274 2.09953L15.8272 2.94518C15.8271 2.94526 15.8269 2.94535 15.8268 2.94543C15.6955 3.03034 15.5253 3.03433 15.3898 2.955L15.3897 2.95493L12.8526 1.46979L12.6 1.32193L12.3474 1.46979L9.8103 2.95493C9.68131 3.03043 9.51869 3.03043 9.3897 2.95493L6.85259 1.46979L6.6 1.32193L6.34741 1.46979L3.8103 2.95493L3.81018 2.955C3.6745 3.03447 3.50374 3.03015 3.37339 2.94557C3.37337 2.94555 3.37334 2.94553 3.37331 2.94551C3.37327 2.94549 3.37323 2.94546 3.3732 2.94544L2.07261 2.09953L1.3 1.59702V2.51867V19.7252V20.6469L2.07261 20.1444L3.3726 19.2989C3.37271 19.2988 3.37283 19.2987 3.37295 19.2986C3.5041 19.2139 3.67511 19.2098 3.81018 19.2889L3.8103 19.289L6.34741 20.7741L6.60005 20.922L6.85266 20.7741L8.26989 19.9442C8.349 20.1929 8.44016 20.436 8.54198 20.6732L6.81033 21.6866L6.8099 21.6869C6.68213 21.7618 6.51965 21.7624 6.38958 21.6866C6.38949 21.6865 6.3894 21.6865 6.3893 21.6864L3.8784 20.2164L3.61194 20.0604L3.35312 20.2288L1.12655 21.6773L1.1264 21.6774C1.00274 21.7579 0.841438 21.7664 0.707013 21.6965C0.575086 21.6274 0.5 21.4978 0.5 21.3659V0.878049C0.5 0.746218 0.574982 0.616719 0.706741 0.547502C0.842051 0.477644 1.00344 0.486433 1.1264 0.566493L1.12655 0.566596L3.35312 2.01515L3.61194 2.18353L3.8784 2.02753L6.3897 0.55727C6.38971 0.557264 6.38972 0.557258 6.38973 0.557252C6.45485 0.519141 6.52772 0.5 6.6 0.5C6.67229 0.5 6.74518 0.519147 6.8103 0.557269L6.81045 0.557354L9.34756 2.04135L9.6 2.18901L9.85244 2.04135L12.3896 0.557355L12.3901 0.557037C12.5179 0.482078 12.6804 0.481495 12.8105 0.557366C12.8105 0.557411 12.8106 0.557456 12.8107 0.557501L15.3216 2.02753L15.5881 2.18353L15.8469 2.01515L18.0732 0.566764L18.7 9.83041ZM18.7 9.83041V0.878049C18.7 0.746015 18.6248 0.616323 18.4927 0.547186C18.3594 0.4778 18.1982 0.485685 18.0734 0.566596L18.7 9.83041ZM4.4931 6.93898L4.4931 6.93902H4.5H14.7V6.93907L14.7069 6.93898C14.8572 6.9369 14.991 7.0141 15.061 7.13112C15.1301 7.24656 15.1301 7.38758 15.061 7.50303C14.991 7.62004 14.8572 7.69724 14.7069 7.69517L14.7069 7.69512H14.7H4.5V7.69508L4.4931 7.69517C4.34276 7.69724 4.20898 7.62004 4.13898 7.50303C4.06992 7.38758 4.06992 7.24656 4.13898 7.13112C4.20898 7.0141 4.34276 6.9369 4.4931 6.93898ZM4.4931 11.6219L4.4931 11.622H4.5H9.9V11.622L9.9069 11.6219C10.0572 11.6198 10.191 11.697 10.261 11.814C10.3301 11.9295 10.3301 12.0705 10.261 12.186C10.191 12.303 10.0572 12.3802 9.9069 12.3781L9.9069 12.378H9.9H4.5V12.378L4.4931 12.3781C4.34276 12.3802 4.20898 12.303 4.13898 12.186C4.06992 12.0705 4.06992 11.9295 4.13898 11.814C4.20898 11.697 4.34276 11.6198 4.4931 11.6219ZM18.5902 16.1355L18.5919 16.1344C19.1045 15.8121 19.2581 15.1346 18.9207 14.6255C18.6939 14.2829 18.1339 13.7932 17.3 13.6191V13.4634C17.3 12.8529 16.7966 12.378 16.2 12.378C15.6034 12.378 15.1 12.8529 15.1 13.4634V13.6395C13.9899 13.9207 13.15 14.9015 13.15 16.0976C13.15 17.515 14.3276 18.6463 15.75 18.6463H16.8C17.0318 18.6463 17.2 18.828 17.2 19.0244C17.2 19.2208 17.0318 19.4024 16.8 19.4024H15.6223C15.2161 19.4024 14.9891 19.2442 14.8733 19.1317C14.4444 18.7135 13.7554 18.7135 13.3266 19.1318C12.8909 19.5569 12.8909 20.2491 13.3266 20.6742C13.8067 21.1426 14.426 21.4343 15.1 21.5332V21.6585C15.1 22.269 15.6034 22.7439 16.2 22.7439C16.7966 22.7439 17.3 22.269 17.3 21.6585V21.5257C18.4881 21.2975 19.4 20.2717 19.4 19.0244C19.4 17.6069 18.2224 16.4756 16.8 16.4756H15.75C15.5182 16.4756 15.35 16.294 15.35 16.0976C15.35 15.9012 15.5182 15.7195 15.75 15.7195H16.6723C16.855 15.7195 16.974 15.7699 17.0416 15.8096C17.0753 15.8294 17.0984 15.8479 17.111 15.859C17.4544 16.3264 18.1052 16.4377 18.5902 16.1355ZM4.4931 15.1341L4.4931 15.1341H4.5H7.5V15.1342L7.5069 15.1341C7.65724 15.132 7.79102 15.2092 7.86102 15.3262C7.93008 15.4417 7.93008 15.5827 7.86102 15.6981C7.79102 15.8152 7.65724 15.8924 7.5069 15.8903L7.5069 15.8902H7.5H4.5V15.8902L4.4931 15.8903C4.34276 15.8924 4.20898 15.8152 4.13898 15.6982C4.06992 15.5827 4.06992 15.4417 4.13898 15.3262C4.20898 15.2092 4.34276 15.132 4.4931 15.1341ZM10.1 17.561C10.1 14.2926 12.8194 11.622 16.2 11.622C19.5806 11.622 22.3 14.2926 22.3 17.561C22.3 20.8294 19.5806 23.5 16.2 23.5C12.8194 23.5 10.1 20.8294 10.1 17.561Z" fill="#01AD35" stroke="#01AD35"/>
</svg>
