<svg width="24" height="24" viewBox="0 0 24 24" fill="none" xmlns="http://www.w3.org/2000/svg">
<path fill-rule="evenodd" clip-rule="evenodd" d="M3.9 0C1.75684 0 0 1.75701 0 3.90038V13.5013V17.0724C0 18.2645 1.45925 19.0066 2.42344 18.3065L4.85625 16.5368C5.16097 18.3858 6.76626 19.8019 8.7 19.8019H16.207L21.5766 23.707C21.8436 23.9008 22.1568 24 22.473 24C22.7094 24 22.9472 23.9446 23.1668 23.8324C23.681 23.5708 24 23.0496 24 22.4729V9.30091C24 7.1503 22.2504 5.40053 20.1 5.40053H19.2V3.90038C19.2 1.75701 17.4432 0 15.3 0H3.9ZM3.9 1.80018H15.3C16.47 1.80018 17.4 2.73023 17.4 3.90038V10.501C17.4 11.6712 16.47 12.6012 15.3 12.6012H7.5C7.30967 12.6012 7.12422 12.6615 6.97031 12.7735L1.8 16.5344V13.5013V3.90038C1.8 2.73023 2.72996 1.80018 3.9 1.80018ZM5.7 4.20041C5.37543 4.19582 5.07353 4.36636 4.9099 4.64674C4.74628 4.92711 4.74628 5.27388 4.9099 5.55426C5.07353 5.83463 5.37543 6.00518 5.7 6.00059H13.5C13.8246 6.00518 14.1265 5.83463 14.2901 5.55426C14.4537 5.27388 14.4537 4.92711 14.2901 4.64674C14.1265 4.36636 13.8246 4.19582 13.5 4.20041H5.7ZM19.2 7.2007H20.1C21.258 7.2007 22.2 8.1428 22.2 9.30091V21.935L17.0297 18.174C16.8761 18.0624 16.6902 18.0018 16.5 18.0018H8.7C7.542 18.0018 6.6 17.0597 6.6 15.9016V15.2687L7.79297 14.4014H15.3C17.4432 14.4014 19.2 12.6444 19.2 10.501V7.2007ZM5.7 8.40082C5.37543 8.39623 5.07353 8.56677 4.9099 8.84715C4.74628 9.12752 4.74628 9.47429 4.9099 9.75467C5.07353 10.035 5.37543 10.2056 5.7 10.201H11.7C12.0246 10.2056 12.3265 10.035 12.4901 9.75467C12.6537 9.47429 12.6537 9.12752 12.4901 8.84715C12.3265 8.56677 12.0246 8.39623 11.7 8.40082H5.7Z" fill="#01AD35"/>
</svg>
