<svg width="23" height="24" viewBox="0 0 23 24" fill="none" xmlns="http://www.w3.org/2000/svg">
<path d="M2.72466 5.76546C2.36505 4.63471 3.00529 3.39787 4.16219 3.02002L4.20084 3.00814L12.0388 0.599667C12.0388 0.599651 12.0389 0.599636 12.0389 0.59962C12.1872 0.554118 12.3362 0.524509 12.4836 0.510248C12.6311 0.495984 12.7792 0.496855 12.9263 0.511338C13.8076 0.598112 14.5902 1.1896 14.8636 2.04735L20.0156 18.2345C20.0157 18.2345 20.0157 18.2345 20.0157 18.2346C20.3792 19.3775 19.7212 20.6289 18.5406 20.992L10.7755 23.378L10.7744 23.378L10.7016 23.4004C9.5175 23.7638 8.24357 23.0998 7.87795 21.9527L2.72469 5.76558C2.72468 5.76554 2.72467 5.7655 2.72466 5.76546ZM14.0656 2.28119L14.0655 2.28098C13.8872 1.72153 13.4031 1.3522 12.8494 1.30357C12.6656 1.28743 12.4766 1.30699 12.2923 1.36355L12.2922 1.3636L4.45409 3.77212L4.45397 3.77216C3.72846 3.99529 3.31379 4.71937 3.49904 5.44784V5.4575L3.5226 5.5315L8.67594 21.7189L8.67599 21.7191C8.91575 22.4713 9.69864 22.8665 10.448 22.6365L10.4481 22.6365L18.2862 20.2279L18.2864 20.2279C19.039 19.9964 19.4571 19.2258 19.218 18.4705L19.2178 18.4698L14.0656 2.28119ZM18.6982 4.88322L18.6983 4.8832L18.6961 4.87678C18.6567 4.75865 18.6763 4.6287 18.751 4.52548C18.8262 4.42159 18.9498 4.35588 19.0858 4.35345C19.2793 4.35008 19.4429 4.47352 19.4941 4.64249L19.494 4.6425L19.4962 4.6493L22.2765 13.3812L22.2764 13.3812L22.2794 13.3902C22.325 13.5244 22.294 13.6734 22.1944 13.7811C22.0938 13.8898 21.9379 13.9391 21.7868 13.9048C21.6363 13.8707 21.5219 13.7608 21.4814 13.6245L21.4815 13.6245L21.4785 13.6151L18.6982 4.88322ZM0.909761 9.98585L0.909883 9.98585C1.10344 9.98243 1.26707 10.1059 1.31823 10.2749L1.31818 10.2749L1.32034 10.2817L4.07316 18.9291L4.07308 18.9291L4.07612 18.9381C4.12165 19.0723 4.09075 19.2214 3.99109 19.329C3.89046 19.4377 3.7346 19.487 3.58353 19.4528L3.47284 19.9403L3.58352 19.4528C3.43299 19.4186 3.31859 19.3088 3.27809 19.1724L3.27818 19.1724L3.27522 19.1631L0.52239 10.5168L0.522443 10.5168L0.520069 10.5097C0.480481 10.3915 0.49991 10.2614 0.574638 10.158C0.649864 10.054 0.773601 9.98822 0.909761 9.98585ZM13.38 18.5C13.6009 18.5 13.78 18.6791 13.78 18.9C13.78 19.1209 13.6009 19.3 13.38 19.3C13.1591 19.3 12.98 19.1209 12.98 18.9C12.98 18.6791 13.1591 18.5 13.38 18.5Z" fill="#01AD35" stroke="#01AD35"/>
</svg>
