<svg width="20" height="24" viewBox="0 0 20 24" fill="none" xmlns="http://www.w3.org/2000/svg">
<path d="M9.72858 14.4786L9.72853 14.4786V14.4857V21.047V22.249L10.581 21.4016L11.9961 19.995L11.9962 19.995L12.0032 19.9877C12.0958 19.8919 12.2344 19.8525 12.3654 19.8864C12.4962 19.9203 12.5964 20.0213 12.6297 20.1481C12.6629 20.2747 12.625 20.4099 12.5288 20.5017L12.5287 20.5017L12.5215 20.5088L9.62112 23.3919L9.62104 23.392C9.55057 23.4621 9.45391 23.5014 9.35293 23.5C9.25578 23.4985 9.16361 23.4594 9.09579 23.392L9.09572 23.3919L6.19535 20.5088L6.19542 20.5087L6.18807 20.5017C6.09187 20.4099 6.05393 20.2747 6.08713 20.1481C6.12039 20.0213 6.22065 19.9203 6.35144 19.8864C6.48246 19.8525 6.62103 19.8919 6.71361 19.9877L6.71353 19.9878L6.72075 19.995L8.13581 21.4016L8.98831 22.249V21.047V14.4857H8.98836L8.98825 14.4786C8.9864 14.3485 9.05516 14.2259 9.17069 14.1589C9.28656 14.0917 9.43027 14.0917 9.54615 14.1589C9.66167 14.2259 9.73043 14.3485 9.72858 14.4786ZM18.19 1.49921V0.999208H17.69H1.50998H1.00998V1.49921V14.3982V14.8982H1.50998H3.05946H3.46157L3.54782 14.5054C4.16319 11.7032 6.6473 9.66708 9.59419 9.66708C12.5487 9.66708 15.0369 11.705 15.651 14.5053L15.7372 14.8982H16.1394H17.69H18.19V14.3982V1.49921ZM1.50998 0.5H17.69C18.2512 0.5 18.7 0.95073 18.7 1.49921V14.3982C18.7 14.9466 18.2512 15.3974 17.69 15.3974H16.1394C15.6618 15.3974 15.2526 15.0672 15.1524 14.61C14.5832 12.0145 12.2824 10.1663 9.59419 10.1663C6.91206 10.1663 4.61651 12.0143 4.04641 14.6103C3.94603 15.0674 3.53698 15.3974 3.05946 15.3974H1.50998C0.948803 15.3974 0.5 14.9466 0.5 14.3982V1.49921C0.5 0.95073 0.948803 0.5 1.50998 0.5Z" fill="#01AD35" stroke="#01AD35"/>
</svg>
