<svg width="24" height="20" viewBox="0 0 24 20" fill="none" xmlns="http://www.w3.org/2000/svg">
<path fill-rule="evenodd" clip-rule="evenodd" d="M11.9995 0.400391C7.74481 0.400391 3.4908 2.04974 0.249385 5.34816C0.0375047 5.55517 -0.0478435 5.86257 0.026255 6.1518C0.100354 6.44103 0.32232 6.6669 0.606552 6.7423C0.890784 6.8177 1.19287 6.73085 1.3963 6.51525C7.25919 0.549247 16.7408 0.549247 22.6037 6.51525C22.8071 6.73085 23.1092 6.8177 23.3934 6.7423C23.6777 6.6669 23.8996 6.44103 23.9737 6.1518C24.0478 5.86257 23.9625 5.55517 23.7506 5.34816C20.5092 2.04974 16.2541 0.400391 11.9995 0.400391ZM11.9995 5.3084C8.97901 5.3084 5.95926 6.47806 3.65951 8.81826C3.44763 9.02527 3.36228 9.33267 3.43637 9.6219C3.51047 9.91113 3.73244 10.137 4.01667 10.2124C4.30091 10.2878 4.60299 10.201 4.80643 9.98535C8.78597 5.9358 15.214 5.9358 19.1936 9.98535C19.397 10.201 19.6991 10.2878 19.9833 10.2124C20.2676 10.137 20.4895 9.91113 20.5636 9.6219C20.6377 9.33267 20.5524 9.02527 20.3405 8.81826C18.0407 6.47806 15.0199 5.3084 11.9995 5.3084ZM11.9995 10.2153C10.2132 10.2153 8.42668 10.9064 7.06858 12.2884C6.75186 12.6109 6.7521 13.1337 7.0691 13.456C7.38611 13.7783 7.89984 13.778 8.21655 13.4554C10.3127 11.3224 13.6873 11.3224 15.7835 13.4554C15.9869 13.6711 16.289 13.7579 16.5732 13.6825C16.8574 13.6071 17.0794 13.3812 17.1535 13.092C17.2276 12.8028 17.1423 12.4954 16.9304 12.2884C15.5723 10.9064 13.7857 10.2153 11.9995 10.2153ZM12.1019 15.1986C10.9074 15.1986 9.93904 16.1839 9.93904 17.3995C9.93904 18.615 10.9074 19.6004 12.1019 19.6004C13.2964 19.6004 14.2648 18.615 14.2648 17.3995C14.2648 16.1839 13.2964 15.1986 12.1019 15.1986Z" fill="#01AD35"/>
</svg>
