<svg width="118" height="78" viewBox="0 0 118 78" fill="none" xmlns="http://www.w3.org/2000/svg">
<g filter="url(#filter0_f_1672_32763)">
<path d="M2.19181 54.6559L107.88 68.0823L107.51 70.8087C107.411 71.5329 106.855 72.1081 106.242 72.1547L75.6434 73.5016C75.291 73.5404 74.9076 73.4882 74.5726 73.3992L2.99421 57.3684C2.36102 57.2389 1.93677 56.5303 2.04111 55.7635L2.19181 54.6559Z" fill="#BBC4D2"/>
<path d="M41.1339 55.441L106.607 69.4696C107.788 69.7171 108.853 68.9074 109.026 67.6294L115.942 16.8084C116.116 15.5305 115.275 14.3748 114.125 14.2183L47.9679 5.21639C46.9881 5.08307 46.0938 5.91592 45.9373 7.0661L39.6888 52.9882C39.4897 54.1326 40.1657 55.2225 41.1339 55.441Z" fill="#BBC4D2"/>
<path d="M40.0695 55.2965L105.542 69.3251C106.723 69.5726 107.788 68.7629 107.962 67.4849L114.877 16.6639C115.051 15.3859 114.21 14.2302 113.06 14.0737L46.9035 5.07186C45.9237 4.93854 45.0294 5.77139 44.8729 6.92157L38.6243 52.8437C38.4252 53.988 39.1013 55.078 40.0695 55.2965Z" fill="white"/>
<path d="M42.5544 52.3389L103.604 65.0715C104.573 65.29 105.45 64.585 105.589 63.5626L111.64 19.0889C111.779 18.0665 111.128 17.1102 110.149 16.9768L48.5421 8.3338C47.7327 8.22367 46.9894 8.90351 46.8619 9.84069L41.3495 50.3527C41.222 51.2899 41.7508 52.1862 42.5544 52.3389Z" fill="#D5DBE4"/>
<path d="M77.469 10.6645C77.4053 11.1331 77.6939 11.5628 78.1199 11.6208C78.5459 11.6788 78.9389 11.3418 79.0026 10.8732C79.0664 10.4046 78.7777 9.9748 78.3518 9.91684C77.9258 9.85887 77.5328 10.1959 77.469 10.6645Z" fill="white"/>
<path opacity="0.48" d="M57.8963 43.535C63.4082 41.2912 66.9083 45.5422 71.2833 42.4061C73.9277 40.5098 73.0093 38.6493 76.3582 35.7207C80.0575 32.4493 81.9767 33.9687 85.6238 31.0807C90.2446 27.414 88.6887 23.8614 92.5934 21.3122C97.3519 18.2283 101.446 22.2564 105.974 19.2713C107.93 17.9754 109.162 15.9304 109.992 13.657L113.954 14.196C114.636 14.2888 115.108 14.9605 115.004 15.7273L107.84 68.3801C107.741 69.1043 107.106 69.6253 106.436 69.4474L39.7027 55.1171C39.3677 55.0281 39.0927 54.8172 38.9687 54.4532C43.9392 54.9126 47.2014 53.5776 49.4102 52.0124C53.6401 48.9868 53.488 45.3215 57.8963 43.535Z" fill="white"/>
<path d="M37.457 54.723L107.709 69.6621L76.0165 71.077C75.6641 71.1159 75.2807 71.0637 74.9457 70.9747L2.2287 54.7022L36.3436 54.6149C36.696 54.576 37.0794 54.6282 37.457 54.723Z" fill="url(#paint0_linear_1672_32763)"/>
<path d="M97.2961 68.3782L38.862 55.8714L20.2449 55.8981L78.1272 68.6336L97.2961 68.3782Z" fill="#D5DBE4"/>
<g opacity="0.75">
<path d="M98.8528 18.9968L105.626 19.9184L105.922 17.7459L99.1484 16.8242L98.8528 18.9968Z" fill="white"/>
<path d="M63.2989 14.0291L94.5552 18.3689L94.8451 16.239L63.5771 11.9844L63.2989 14.0291Z" fill="white"/>
<path d="M87.4964 21.1394L94.0509 22.0746L94.3465 19.902L87.792 18.9668L87.4964 21.1394Z" fill="white"/>
<path d="M53.166 16.1213L83.3284 20.5292L83.6182 18.3992L53.4385 14.1191L53.166 16.1213Z" fill="white"/>
<path d="M87.0041 24.7608L93.547 25.7813L93.8427 23.6087L87.2939 22.6309L87.0041 24.7608Z" fill="white"/>
<path d="M52.6964 19.5721L82.8355 24.1504L83.1254 22.0204L52.9746 17.5273L52.6964 19.5721Z" fill="white"/>
<path d="M97.3401 30.1159L104.09 31.208L104.392 28.9928L97.6357 27.9434L97.3401 30.1159Z" fill="white"/>
<path d="M61.8731 24.5077L93.0483 29.4438L93.3439 27.2713L62.1514 22.4629L61.8731 24.5077Z" fill="white"/>
<path d="M86.0129 32.046L92.5442 33.1516L92.8398 30.9791L86.3027 29.916L86.0129 32.046Z" fill="white"/>
<path d="M51.7627 26.4299L81.8497 31.3916L82.1395 29.2616L52.0352 24.4277L51.7627 26.4299Z" fill="white"/>
<path d="M85.5139 35.71L92.0452 36.8157L92.3408 34.6431L85.8037 33.5801L85.5139 35.71Z" fill="white"/>
<path d="M51.293 29.883L81.3568 35.0151L81.6466 32.8851L51.5654 27.8809L51.293 29.883Z" fill="white"/>
<path d="M85.0159 39.3718L91.5414 40.52L91.837 38.3475L85.3115 37.1992L85.0159 39.3718Z" fill="white"/>
<path d="M50.8233 33.3322L80.8639 38.6347L81.1537 36.5047L51.0957 31.3301L50.8233 33.3322Z" fill="white"/>
<path d="M73.9796 41.0835L80.2864 42.2453L80.5762 40.1154L74.2637 38.9961L73.9796 41.0835Z" fill="white"/>
<path d="M45.7823 35.9416L69.9984 40.3648L70.2824 38.2774L46.0547 33.9395L45.7823 35.9416Z" fill="white"/>
<path d="M94.8128 48.6901L101.54 49.9526L101.841 47.7374L95.1084 46.5176L94.8128 48.6901Z" fill="white"/>
<path d="M59.4913 42.0174L90.539 47.8908L90.8346 45.7182L59.7695 39.9727L59.4913 42.0174Z" fill="white"/>
<path d="M83.5315 50.2784L90.0396 51.5545L90.3352 49.3819L83.8213 48.1484L83.5315 50.2784Z" fill="white"/>
<path d="M49.4209 43.6408L79.3862 49.4971L79.676 47.3671L49.6934 41.6387L49.4209 43.6408Z" fill="white"/>
<path d="M83.0334 53.9425L89.5358 55.2611L89.8314 53.0885L83.3232 51.8125L83.0334 53.9425Z" fill="white"/>
<path d="M48.9512 47.092L78.8933 53.1187L79.1831 50.9887L49.2236 45.0898L48.9512 47.092Z" fill="white"/>
<path d="M93.2991 59.8093L100.009 61.1995L100.304 59.0269L93.5947 57.6367L93.2991 59.8093Z" fill="white"/>
<path d="M58.0645 52.4979L89.0368 58.925L89.3325 56.7525L58.3428 50.4531L58.0645 52.4979Z" fill="white"/>
</g>
</g>
<defs>
<filter id="filter0_f_1672_32763" x="0.0253906" y="3.05859" width="117.939" height="72.4551" filterUnits="userSpaceOnUse" color-interpolation-filters="sRGB">
<feFlood flood-opacity="0" result="BackgroundImageFix"/>
<feBlend mode="normal" in="SourceGraphic" in2="BackgroundImageFix" result="shape"/>
<feGaussianBlur stdDeviation="1" result="effect1_foregroundBlur_1672_32763"/>
</filter>
<linearGradient id="paint0_linear_1672_32763" x1="107.664" y1="69.8324" x2="2.08701" y2="55.4668" gradientUnits="userSpaceOnUse">
<stop offset="0.494" stop-color="#E8EDEF"/>
<stop offset="1" stop-color="white"/>
</linearGradient>
</defs>
</svg>
