<svg width="78" height="60" viewBox="0 0 78 60" fill="none" xmlns="http://www.w3.org/2000/svg">
<g filter="url(#filter0_f_1672_32832)">
<path d="M65.2208 2.55484L10.2261 7.07282C5.73171 7.40119 2.28343 11.0531 2.58139 15.1314L4.6526 43.4803C4.95056 47.5586 8.87848 50.4716 13.3656 50.0438L31.2922 48.034L40.1142 56.0895C40.757 56.6426 41.7558 56.5696 42.3042 55.8295L49.7254 46.0873L68.2513 44.0337C72.4315 43.5283 75.5874 39.9977 75.304 36.1184L73.3272 9.06262C73.0438 5.1833 69.4155 2.24837 65.2208 2.55484Z" fill="#F0F0F1"/>
<path d="M57.6045 20.6116C56.9124 15.2622 52.7048 11.2695 47.889 11.3214C44.0792 11.3997 40.7435 13.8435 39.2001 17.4562C37.1552 14.2056 33.507 12.3722 29.6337 12.9551C24.669 13.7179 21.0011 18.4859 21.1084 24.0781C21.1703 27.6736 22.8084 30.8539 25.2581 32.775L40.0672 41.6931C40.6955 42.0472 41.4945 41.9888 42.0574 41.4477L55.0625 29.7974C57 27.4558 58.0658 24.178 57.6045 20.6116Z" fill="#01AD35"/>
</g>
<defs>
<filter id="filter0_f_1672_32832" x="0.563477" y="0.533203" width="76.7578" height="57.9199" filterUnits="userSpaceOnUse" color-interpolation-filters="sRGB">
<feFlood flood-opacity="0" result="BackgroundImageFix"/>
<feBlend mode="normal" in="SourceGraphic" in2="BackgroundImageFix" result="shape"/>
<feGaussianBlur stdDeviation="1" result="effect1_foregroundBlur_1672_32832"/>
</filter>
</defs>
</svg>
