<svg width="133" height="87" viewBox="0 0 133 87" fill="none" xmlns="http://www.w3.org/2000/svg">
<g filter="url(#filter0_f_1672_33027)">
<path d="M13.4538 40.1052L58.2942 23.8693L111.231 9.17217L63.0879 36.7515L13.4538 40.1052Z" fill="#EE7BCD"/>
<path d="M63.8232 72.4488L23.8807 74.1474C19.8446 74.3025 15.8299 71.573 14.6875 67.9403C13.5717 64.392 15.7003 61.1233 19.6034 60.5457L61.1868 54.6177L63.8232 72.4488Z" fill="#2C6D95"/>
<path d="M122.819 45.7275L65.4418 71.1045C61.8574 72.6958 57.9925 71.0333 56.8501 67.4005L56.0797 64.9506C54.9373 61.3178 56.9691 57.1511 60.6067 55.7287L118.594 32.2949C117.49 37.9339 118.249 42.7085 122.819 45.7275Z" fill="#D5DBE4"/>
<path d="M123.512 46.1586L66.0769 71.6466C61.3629 73.7788 56.303 71.5637 54.8153 66.8326L54.7888 66.7482C53.301 62.0172 56.0278 56.5179 60.7371 54.6656L118.836 31.2897C119.174 31.1834 119.591 31.3306 119.724 31.753C119.857 32.1754 119.71 32.5931 119.288 32.7259L61.2418 56.2708C57.4619 57.8308 55.2298 62.2462 56.4253 66.0479L56.4518 66.1324C57.6473 69.9341 61.7343 71.7124 65.5722 70.0414L123.087 44.8068C123.424 44.7006 123.842 44.8478 123.975 45.2702C124.108 45.6926 123.85 46.0523 123.512 46.1586Z" fill="#0D9CCA"/>
<path d="M60.0888 54.9638L19.6882 60.5199C15.7584 61.013 11.3718 57.1007 9.6715 51.6939L9.64493 51.6094C7.97124 46.287 9.48874 41.0752 13.2591 40.0752L54.4577 28.7908L60.0888 54.9638Z" fill="#EB37A0"/>
<path d="M118.011 30.4347L63.1586 52.3255C57.7156 54.5013 51.8783 51.8808 50.1515 46.3894L48.9826 42.6722C47.2823 37.2654 50.4098 31.2687 55.9325 29.3464L111.635 10.1589C111.269 18.4435 112.83 25.4725 118.011 30.4347Z" fill="#D5DBE4"/>
<path d="M118.863 31.3747L60.7645 54.7507C55.9708 56.6295 50.2999 52.4712 48.0417 45.2903L48.0152 45.2058C45.7836 38.1093 47.9791 30.9203 52.7414 29.2371L111.823 8.98695C112.161 8.88069 112.658 9.28131 112.844 9.87269C113.03 10.4641 112.936 11.0507 112.514 11.1835L53.5118 31.687C49.6522 32.9936 47.8717 38.8452 49.6517 44.5055L49.6782 44.59C51.4848 50.3347 56.0765 53.7183 59.9675 52.2162L118.173 29.1782C118.511 29.0719 118.981 29.3881 119.167 29.9795C119.353 30.5708 119.175 31.184 118.863 31.3747Z" fill="#A2236D"/>
<path opacity="0.5" d="M46.4768 53.3028L37.8304 54.4436C34.2402 49.8167 32.8948 44.9481 32.8624 38.6454L41.2432 36.6598C41.4663 43.2739 43.4466 48.6855 46.4768 53.3028Z" fill="white"/>
</g>
<defs>
<filter id="filter0_f_1672_33027" x="0.96875" y="0.970703" width="131.042" height="81.1836" filterUnits="userSpaceOnUse" color-interpolation-filters="sRGB">
<feFlood flood-opacity="0" result="BackgroundImageFix"/>
<feBlend mode="normal" in="SourceGraphic" in2="BackgroundImageFix" result="shape"/>
<feGaussianBlur stdDeviation="4" result="effect1_foregroundBlur_1672_33027"/>
</filter>
</defs>
</svg>
