<svg width="110" height="67" viewBox="0 0 110 67" fill="none" xmlns="http://www.w3.org/2000/svg">
<g filter="url(#filter0_f_1672_33026)">
<path d="M92.4119 19.5197L45.121 7.21705C44.4224 7.01196 43.6966 7.11504 42.9777 7.40986C35.5838 11.0566 13.3865 32.173 4.66645 40.5523C4.51584 40.6345 4.48166 40.751 4.37217 40.9085C4.22102 39.9157 4.45335 38.9089 5.26784 38.073C13.9879 29.6937 36.1852 8.57739 43.5791 4.93062C44.1815 4.60162 44.9485 4.57384 45.7224 4.73781L93.0133 17.0405C95.3008 17.6488 96.2061 20.3807 94.81 22.1207C94.6519 20.9361 93.768 19.8546 92.4119 19.5197Z" fill="#AE88F0"/>
<path d="M58.3638 61.1852C57.5632 62.4045 56.0432 62.8436 54.7555 62.2758L6.49573 43.3654C5.3656 42.9071 4.63924 41.9351 4.44697 40.8669C4.55645 40.7094 4.63176 40.6682 4.74125 40.5107C13.4613 32.1313 35.6586 11.015 43.0525 7.36825C43.6549 7.03925 44.4219 7.01148 45.1958 7.17544L92.4867 19.4781C93.8428 19.813 94.6514 20.9356 94.8848 22.0791C94.7753 22.2367 94.6247 22.3189 94.5152 22.4765C85.6787 30.8217 65.7198 50.129 58.3638 61.1852Z" fill="#582ECD"/>
<path d="M76.6753 33.49L77.8893 37.3242C77.1699 36.5439 76.2246 35.887 75.2862 35.4218C73.5258 34.5256 71.6218 33.9033 69.7316 33.6646C65.0199 32.9137 60.172 33.7036 55.5639 34.7536C51.3734 35.6733 47.231 36.8601 43.2259 38.6562C38.2759 40.8706 32.5665 44.3796 29.9805 49.3113C29.4603 49.791 28.9059 50.387 28.5432 50.9761L26.4298 42.4515C26.3545 42.4926 26.1628 42.4996 26.0875 42.5407L25.2842 38.3844C25.0027 36.9739 25.2554 35.4672 25.8984 34.1384C27.725 30.5013 34.0972 24.0884 47.7437 21.3288C61.1232 18.6172 68.5753 21.8799 72.5757 24.1925C74.1443 25.0957 75.275 26.629 75.6114 28.4984L76.6753 33.49Z" fill="#7624F4"/>
<path d="M86.9107 27.705C86.9107 27.705 79.7822 14.2935 77.8573 13.0961C77.8573 13.0961 77.5903 13.1441 77.1315 13.1991C77.0904 13.1238 77.0081 12.9732 76.8164 12.9802C75.0769 12.6592 73.4126 12.2971 71.6731 11.9761C75.0491 11.8922 77.7404 11.9868 78.6788 12.452C81.8021 13.8748 87.958 26.9375 87.958 26.9375C97.8227 34.2599 106.052 44.1373 105.947 52.8958C105.947 52.8958 91.0622 44.7953 89.3467 37.7154C87.6654 30.5191 86.9107 27.705 86.9107 27.705Z" fill="#2E1B42"/>
</g>
<defs>
<filter id="filter0_f_1672_33026" x="0.329102" y="0.640625" width="109.618" height="65.8809" filterUnits="userSpaceOnUse" color-interpolation-filters="sRGB">
<feFlood flood-opacity="0" result="BackgroundImageFix"/>
<feBlend mode="normal" in="SourceGraphic" in2="BackgroundImageFix" result="shape"/>
<feGaussianBlur stdDeviation="2" result="effect1_foregroundBlur_1672_33026"/>
</filter>
</defs>
</svg>
