<svg width="116" height="123" viewBox="0 0 116 123" fill="none" xmlns="http://www.w3.org/2000/svg">
<g filter="url(#filter0_f_1672_33025)">
<path d="M57.5337 104.031L76.776 75.3426C78.5135 72.7528 82.0355 71.9885 84.6667 73.717C87.2889 75.4041 88.0946 78.9171 86.4579 81.5718L68.3754 111.007C67.2903 112.804 65.303 113.843 63.1972 113.736L62.4064 113.691C60.3421 113.574 58.4853 112.416 57.5655 110.576L57.1964 109.875C56.2262 108.003 56.3477 105.764 57.5337 104.031ZM64.0489 109.863C65.5406 109.54 66.5229 108.068 66.1902 106.535C65.8575 105.002 64.3952 104.061 62.862 104.394C61.3704 104.717 60.3881 106.189 60.7208 107.722C61.0534 109.255 62.5572 110.187 64.0489 109.863Z" fill="#858C94"/>
<path d="M93.3531 76.5617L99.3035 80.3901L93.1716 89.9208C92.101 91.5848 89.9049 92.0614 88.2823 90.9817C86.6182 89.9111 84.4221 90.3877 83.3929 92.0427L83.1982 92.3453C82.1276 94.0094 79.9315 94.4859 78.3089 93.4063L69.938 88.0206C68.2739 86.95 67.7974 84.7539 68.877 83.1313L69.0717 82.8287C70.1423 81.1646 69.6658 78.9685 68.0107 77.9393C66.3466 76.8687 65.8701 74.6726 66.9497 73.05L73.0816 63.5193L79.0319 67.3477" fill="#F0F0F1"/>
<path d="M97.1557 77.6893L104.618 66.0911C105.104 65.3347 106.14 65.1099 106.897 65.5966C107.653 66.0833 107.878 67.1191 107.391 67.8755L99.9292 79.4737L97.1557 77.6893Z" fill="#CFCFCF"/>
<path d="M93.2319 75.199L100.694 63.6009C101.181 62.8445 102.216 62.6197 102.973 63.1064C103.729 63.593 103.954 64.6289 103.467 65.3853L96.0054 76.9835L93.2319 75.199Z" fill="#CFCFCF"/>
<path d="M89.3481 72.701L96.8102 61.1028C97.2968 60.3464 98.3327 60.1217 99.0891 60.6083C99.8455 61.095 100.07 62.1309 99.5836 62.8873L92.1216 74.4854L89.3481 72.701Z" fill="#CFCFCF"/>
<path d="M85.4653 70.203L92.9274 58.6048C93.414 57.8484 94.4499 57.6236 95.2063 58.1103C95.9627 58.5969 96.1875 59.6328 95.7008 60.3892L88.2388 71.9874L85.4653 70.203Z" fill="#CFCFCF"/>
<path d="M81.5737 67.6639L89.0358 56.0657C89.5224 55.3093 90.5583 55.0846 91.3147 55.5712C92.0711 56.0579 92.2959 57.0937 91.8092 57.8501L84.3471 69.4483L81.5737 67.6639Z" fill="#CFCFCF"/>
<path d="M77.6909 65.1658L85.1529 53.5677C85.6396 52.8113 86.6755 52.5865 87.4319 53.0732C88.1883 53.5598 88.4131 54.5957 87.9264 55.3521L80.4643 66.9503L77.6909 65.1658Z" fill="#CFCFCF"/>
<path d="M73.767 62.6756L81.2291 51.0775C81.7158 50.3211 82.7517 50.0963 83.5081 50.5829C84.2645 51.0696 84.4892 52.1055 84.0026 52.8619L76.5405 64.46L73.767 62.6756Z" fill="#CFCFCF"/>
<path d="M97.1557 77.6893L104.618 66.0911C105.104 65.3347 106.14 65.1099 106.897 65.5966C107.653 66.0833 107.878 67.1191 107.391 67.8755L99.9292 79.4737L97.1557 77.6893Z" fill="#CFCFCF"/>
<path d="M93.2319 75.199L100.694 63.6009C101.181 62.8445 102.216 62.6197 102.973 63.1064C103.729 63.593 103.954 64.6289 103.467 65.3853L96.0054 76.9835L93.2319 75.199Z" fill="#CFCFCF"/>
<path d="M89.3481 72.701L96.8102 61.1028C97.2968 60.3464 98.3327 60.1217 99.0891 60.6083C99.8455 61.095 100.07 62.1309 99.5836 62.8873L92.1216 74.4854L89.3481 72.701Z" fill="#CFCFCF"/>
<path d="M85.4653 70.203L92.9274 58.6048C93.414 57.8484 94.4499 57.6236 95.2063 58.1103C95.9627 58.5969 96.1875 59.6328 95.7008 60.3892L88.2388 71.9874L85.4653 70.203Z" fill="#CFCFCF"/>
<path d="M81.5737 67.6639L89.0358 56.0657C89.5224 55.3093 90.5583 55.0846 91.3147 55.5712C92.0711 56.0579 92.2959 57.0937 91.8092 57.8501L84.3471 69.4483L81.5737 67.6639Z" fill="#CFCFCF"/>
<path d="M77.6909 65.1658L85.1529 53.5677C85.6396 52.8113 86.6755 52.5865 87.4319 53.0732C88.1883 53.5598 88.4131 54.5957 87.9264 55.3521L80.4643 66.9503L77.6909 65.1658Z" fill="#CFCFCF"/>
<path d="M73.767 62.6756L81.2291 51.0775C81.7158 50.3211 82.7517 50.0963 83.5081 50.5829C84.2645 51.0696 84.4892 52.1055 84.0026 52.8619L76.5405 64.46L73.767 62.6756Z" fill="#CFCFCF"/>
<path d="M49.4651 71.9559C48.1564 69.7235 46.2945 67.7413 43.9334 66.2579C41.5129 64.7006 38.804 63.8133 36.1056 63.5745L72.3589 4.51148L83.2788 5.04877L88.2938 14.7637L49.4651 71.9559Z" fill="#F0F0F1"/>
<path d="M39.5993 72.6656L48.5197 72.986L49.803 71.1022C53.0686 76.5544 53.1669 83.6051 49.4683 89.3538C45.8995 94.9007 39.6998 97.7212 33.5717 97.2721L42.9804 82.6484L38.626 74.1784L29.113 73.7263L19.7043 88.3501C16.7557 82.9592 16.7528 76.1482 20.3216 70.6012C23.9229 65.0039 30.2468 62.1564 36.4434 62.7208L35.1961 64.7703L39.5993 72.6656Z" fill="#CFCFCF"/>
<path d="M49.803 71.1022L48.5197 72.986L39.5993 72.6656L35.1961 64.7703L36.4434 62.7208C39.1418 62.9596 41.8096 63.8558 44.2715 65.4041C46.6326 66.8875 48.4942 68.8698 49.803 71.1022Z" fill="#CFCFCF"/>
</g>
<defs>
<filter id="filter0_f_1672_33025" x="15.5635" y="2.51172" width="94.085" height="113.232" filterUnits="userSpaceOnUse" color-interpolation-filters="sRGB">
<feFlood flood-opacity="0" result="BackgroundImageFix"/>
<feBlend mode="normal" in="SourceGraphic" in2="BackgroundImageFix" result="shape"/>
<feGaussianBlur stdDeviation="1" result="effect1_foregroundBlur_1672_33025"/>
</filter>
</defs>
</svg>
