<svg width="24" height="24" viewBox="0 0 24 24" fill="none" xmlns="http://www.w3.org/2000/svg">
<path fill-rule="evenodd" clip-rule="evenodd" d="M11.9756 2.00037C11.8157 2.00597 11.6617 2.06388 11.5361 2.16563L4.42969 7.90771C3.52774 8.63674 3 9.75074 3 10.9285V20.718C3 21.4172 3.5682 22 4.25 22H9.25C9.9318 22 10.5 21.4172 10.5 20.718V15.5899C10.5 15.4386 10.6025 15.3335 10.75 15.3335H13.25C13.3975 15.3335 13.5 15.4386 13.5 15.5899V20.718C13.5 21.4172 14.0682 22 14.75 22H19.75C20.4318 22 21 21.4172 21 20.718V10.9285C21 9.75074 20.4723 8.63674 19.5703 7.90771L12.4639 2.16563C12.3252 2.05326 12.1522 1.99474 11.9756 2.00037ZM12 3.74914L18.6426 9.11663C19.1846 9.55476 19.5 10.2211 19.5 10.9285V20.4616H15V15.5899C15 14.6079 14.2075 13.795 13.25 13.795H10.75C9.79252 13.795 9 14.6079 9 15.5899V20.4616H4.5V10.9285C4.5 10.2211 4.81537 9.55476 5.35742 9.11663L12 3.74914Z" fill="white"/>
</svg>
