<svg width="376" height="320" viewBox="0 0 376 320" fill="none" xmlns="http://www.w3.org/2000/svg">
<path fill-rule="evenodd" clip-rule="evenodd" d="M304.407 98.5481C304.107 98.2314 303.69 98.0981 303.39 97.7315C302.473 96.6148 302.124 95.0482 301.59 93.6482C300.674 91.215 299.69 88.4151 299.507 85.6818C299.49 85.3318 299.49 84.9818 299.507 84.6319L269.358 82.3319C272.558 85.7652 275.908 89.0317 279.691 91.815C286.957 97.1481 295.94 100.915 304.123 105.231C304.357 103.965 304.507 102.865 304.557 101.998L305.423 101.965C305.323 100.598 305.057 99.2647 304.407 98.5481ZM156.311 15.1173C130.895 33.1667 121.112 66.8991 97.3297 87.0484C88.0133 94.9315 77.047 100.348 65.864 105.481C67.1973 109.464 68.6306 113.631 69.9972 117.698C73.4637 127.914 75.8303 137.464 80.0135 141.897C80.2135 141.963 80.3969 141.963 80.5802 141.897H80.5969C82.0635 140.647 93.4298 132.28 96.813 128.247C102.913 120.981 108.896 115.614 114.512 111.664C122.096 94.4316 124.979 74.5655 137.062 60.1159C169.228 21.7004 226.392 38.8666 256.958 68.949L305.94 65.2158C276.458 17.0672 209.826 -22.8816 156.311 15.1173ZM375.288 162.196C373.155 136.597 344.389 123.431 328.223 103.481C324.189 98.4981 320.923 93.0149 317.89 87.3818C317.806 87.8984 317.706 88.3984 317.606 88.8984C317.256 90.6483 316.906 92.5649 315.956 94.0982C315.356 95.0649 314.573 95.7982 314.19 96.9148C313.84 97.9815 313.923 99.0814 314.106 100.148C314.19 100.648 314.306 101.165 314.44 101.648H315.04L316.373 101.581C316.373 101.581 316.406 101.615 316.406 101.631C316.556 102.215 317.906 107.681 319.106 115.731C321.806 118.548 323.973 121.814 325.356 125.731C329.639 137.864 333.289 155.096 331.256 167.813C327.339 192.312 319.756 214.928 293.924 229.911C279.091 238.527 264.558 251.377 249.508 261.61C250.242 263.643 250.808 265.16 251.075 266.526C251.975 271.26 254.342 282.276 248.625 291.809C247.975 292.876 246.042 296.059 242.625 298.742H242.609C241.192 299.859 239.509 300.892 237.559 301.642C234.992 302.642 232.459 302.959 229.892 302.809C228.592 302.742 227.276 302.542 225.926 302.259C225.859 302.242 225.809 302.225 225.742 302.225C225.259 305.925 224.792 309.658 224.343 313.425C249.742 305.542 275.608 291.776 300.157 284.992C338.256 274.459 355.539 248.06 368.771 218.011C375.621 202.428 376.721 179.146 375.288 162.18V162.196ZM175.277 313.542C175.044 311.558 174.811 309.525 174.594 307.442C173.911 311.558 173.211 315.675 172.544 319.791C173.727 319.858 174.927 319.908 176.127 319.925C175.994 319.008 175.861 318.075 175.744 317.141C175.577 315.958 175.427 314.758 175.277 313.542ZM108.079 279.993C107.513 279.843 106.963 279.693 106.446 279.526C106.063 279.409 105.696 279.276 105.329 279.143C104.946 278.993 104.563 278.843 104.213 278.693C103.846 278.543 103.513 278.376 103.18 278.209C102.946 278.076 102.73 277.959 102.513 277.826C102.03 277.543 101.596 277.243 101.213 276.926C101.046 276.793 100.896 276.659 100.746 276.509C100.68 276.459 100.63 276.409 100.58 276.343C100.413 276.193 100.263 276.043 100.13 275.876C99.8796 275.593 99.6463 275.293 99.4463 274.976C99.263 274.709 99.113 274.443 98.963 274.143C97.9963 272.21 97.913 270.243 98.3963 268.076C91.6299 264.56 85.2634 260.293 79.4636 255.177C57.3642 235.744 46.5979 201.662 58.6475 175.529C58.5975 175.462 58.5475 175.412 58.4975 175.346C51.1811 167.096 46.1979 156.496 44.7313 146.23C43.2813 136.114 43.2313 125.531 43.7813 115.998C36.8482 119.664 30.265 123.847 24.4152 129.081C-7.18382 157.38 -6.50051 210.278 17.2154 245.46C38.9148 277.676 74.997 297.092 112.396 308.525C111.996 297.775 112.213 288.759 113.346 281.143C113.629 281.193 113.896 281.243 114.196 281.276C113.013 281.059 111.879 280.859 110.829 280.643C109.846 280.426 108.929 280.226 108.079 279.993Z" fill="#37C800"/>
<path fill-rule="evenodd" clip-rule="evenodd" d="M107.012 245.727C104.296 256.027 99.596 262.643 98.3961 268.077C91.6296 264.56 85.2631 260.293 79.4633 255.177C57.364 235.744 46.5976 201.662 58.6473 175.529C60.2972 177.613 62.2138 179.546 64.4471 181.262C65.6137 182.179 66.8304 182.996 68.0637 183.762C68.9803 184.379 69.8969 184.962 70.8469 185.496L70.8802 185.396C72.4469 186.212 74.0468 186.979 75.6634 187.612C85.2131 191.312 95.7295 191.745 106.113 190.296C106.063 195.562 106.213 200.295 106.412 204.212C106.446 204.695 106.462 205.162 106.479 205.612C106.529 206.395 106.579 207.128 106.629 207.828C106.746 209.728 106.862 211.345 106.962 212.645C108.079 227.528 110.079 234.128 107.012 245.727Z" fill="#D4FB7B"/>
<path fill-rule="evenodd" clip-rule="evenodd" d="M224.375 56.8317C223.125 52.4651 218.959 48.5819 214.542 47.832C209.642 47.0153 207.776 50.5985 202.842 49.4152C198.859 48.4486 198.959 45.8153 194.159 43.9821C192.909 43.4987 187.626 41.4655 183.16 43.7154C176.927 46.8653 177.36 56.415 176.76 61.3315C176.643 62.2148 176.743 62.9815 176.96 63.7315C176.543 63.7815 176.077 63.8981 175.643 64.1315C172.527 65.7647 173.027 70.3646 177.61 75.4811C177.61 75.4811 177.61 75.5311 177.626 75.6311C174.727 81.2309 172.127 91.514 169.627 94.4805C167.66 96.8305 164.527 98.7304 144.477 101.03C141.128 101.397 136.244 101.864 132.261 102.864C127.128 104.38 121.078 107.063 114.512 111.663C122.095 94.4305 124.978 74.5645 137.061 60.1149C169.227 21.6994 226.392 38.8656 256.957 68.948L218.875 71.8479C223.042 68.098 225.892 62.1648 224.375 56.8317Z" fill="#D4FB7B"/>
<path fill-rule="evenodd" clip-rule="evenodd" d="M304.122 105.231C301.506 119.297 288.473 155.296 283.956 153.746C283.856 153.679 283.74 153.579 283.573 153.463H283.556C283.023 153.079 282.123 152.463 281.006 151.696C280.69 151.479 280.34 151.246 279.99 150.996C279.323 150.529 278.59 150.029 277.84 149.496C275.323 147.746 272.523 145.713 270.373 143.946C270.023 143.663 269.673 143.38 269.357 143.096C268.723 142.546 268.174 142.046 267.757 141.596C250.291 118.614 215.908 109.497 205.459 108.481C205.459 107.114 201.009 106.314 196.709 104.048C197.792 103.531 198.926 102.864 200.109 102.048C205.192 98.5477 208.242 83.4815 208.242 83.4815C208.242 83.4815 207.292 84.8314 206.059 86.0147C206.125 85.9314 206.209 85.8481 206.275 85.7647C208.425 83.3648 210.159 80.6482 211.475 77.9316L269.357 82.3315C272.557 85.7647 275.907 89.0313 279.69 91.8146C286.956 97.1477 295.939 100.914 304.122 105.231Z" fill="#D4FB7B"/>
<path fill-rule="evenodd" clip-rule="evenodd" d="M331.256 167.812C327.34 192.311 319.757 214.927 293.924 229.91C279.091 238.527 264.558 251.376 249.509 261.609C249.259 260.876 248.959 260.059 248.659 259.176C245.875 251.043 241.826 236.077 241.742 202.045C241.742 199.295 241.792 196.128 241.876 192.711C243.992 193.778 246.242 194.578 248.675 195.111C253.459 196.161 258.375 196.911 263.258 197.261H263.292C263.475 197.278 263.692 197.295 263.875 197.295C264.258 197.295 264.641 197.345 265.008 197.361C265.391 197.378 265.775 197.411 266.158 197.411C267.675 197.461 269.191 197.495 270.691 197.445H270.991C271.575 197.411 272.158 197.395 272.741 197.361H272.925C278.408 197.095 283.791 196.178 288.874 194.411C290.491 193.845 292.091 193.178 293.657 192.428V192.528C294.624 192.045 295.557 191.528 296.474 190.995C297.69 190.312 298.907 189.578 300.09 188.762C302.374 187.178 304.34 185.412 306.024 183.495C313.323 176.162 318.323 166.729 319.773 157.596C322.156 142.78 320.773 126.813 319.107 115.73C321.806 118.547 323.973 121.814 325.356 125.73C329.64 137.863 333.289 155.096 331.256 167.812Z" fill="#D4FB7B"/>
<path fill-rule="evenodd" clip-rule="evenodd" d="M318.606 64.2494L310.373 64.8827C311.823 63.3994 313.173 62.5161 314.173 62.8161C315.84 63.2994 317.323 63.3161 318.606 64.2494Z" fill="#F09C3C"/>
<path fill-rule="evenodd" clip-rule="evenodd" d="M225.742 302.242C225.259 305.942 224.792 309.676 224.342 313.442C218.376 315.292 212.443 316.825 206.56 317.859C204.276 318.259 201.993 318.592 199.693 318.875C197.227 312.542 194.177 306.842 192.427 300.893C191.51 297.776 190.86 294.276 190.66 290.326C195.56 291.526 200.76 293.076 206.343 295.159C213.793 297.943 219.976 300.976 225.742 302.242Z" fill="#48375A"/>
<path fill-rule="evenodd" clip-rule="evenodd" d="M199.694 318.875C191.877 319.858 183.994 320.158 176.128 319.925C175.994 319.008 175.861 318.075 175.744 317.141C175.578 315.958 175.428 314.758 175.278 313.542C175.044 311.558 174.811 309.525 174.594 307.442C173.911 311.558 173.211 315.675 172.545 319.791C155.778 318.975 139.029 315.808 122.763 311.475C119.296 310.558 115.846 309.558 112.396 308.508C111.996 297.775 112.213 288.759 113.346 281.143C114.78 281.393 116.33 281.643 117.996 281.909C141.379 285.542 149.112 283.992 166.378 286.176C168.545 286.459 170.778 286.742 173.061 287.059C173.678 287.142 174.294 287.226 174.928 287.326C175.411 287.409 175.911 287.476 176.411 287.542C176.911 287.609 177.411 287.692 177.911 287.776C178.911 287.942 179.928 288.109 180.961 288.292C181.994 288.476 183.044 288.659 184.111 288.876C186.144 289.276 188.244 289.742 190.394 290.259C190.477 290.276 190.577 290.309 190.661 290.326C190.861 294.276 191.511 297.775 192.427 300.892C194.177 306.842 197.227 312.542 199.694 318.875Z" fill="#2E1B42"/>
<path fill-rule="evenodd" clip-rule="evenodd" d="M56.3648 83.5991L51.2483 83.3991C51.0649 82.7324 50.765 82.3658 50.415 82.2658C49.615 82.0824 48.8983 82.2991 48.0984 82.3158C46.8484 82.3324 45.6151 81.7991 44.4651 81.3158C42.5485 80.5325 40.7319 79.5325 38.8653 78.6159C36.9987 77.6992 35.1988 77.1326 33.2155 76.5326C31.9489 76.1326 30.5656 74.616 30.1322 73.1994C29.5823 71.4161 30.4156 70.2495 30.8989 68.5995C32.1322 64.3163 43.3152 68.3662 45.2485 69.0995C44.6651 68.8162 43.1818 68.0829 40.9652 66.6329C40.7319 66.4829 40.1819 66.0996 40.3986 65.7996C40.7986 65.233 43.7652 66.0663 44.3318 66.1496C46.1651 66.3996 48.315 66.8162 49.7983 68.0162C51.2816 69.2328 52.4982 70.9995 53.5315 72.5994C54.1148 73.4994 54.8648 74.3493 55.1482 75.416C55.2481 75.766 55.1482 76.0993 55.2148 76.4159C55.4648 77.6492 56.0648 79.7992 56.3648 83.5991Z" fill="#F09C3C"/>
<path fill-rule="evenodd" clip-rule="evenodd" d="M115.312 133.797C114.996 134.797 114.679 135.797 114.362 136.814C114.212 137.331 114.062 137.831 113.912 138.347C113.312 140.364 112.729 142.414 112.146 144.447C107.496 160.663 106.213 177.196 106.113 190.296C95.7295 191.746 85.2132 191.312 75.6635 187.612C74.0469 186.979 72.4469 186.213 70.8803 185.396L70.847 185.496C69.897 184.963 68.9804 184.379 68.0637 183.763C66.8304 182.996 65.6138 182.179 64.4472 181.263C62.1472 179.496 60.1806 177.496 58.4973 175.346C51.1809 167.096 46.1977 156.497 44.7311 146.23C40.5145 116.748 48.131 83.2656 48.131 83.2656L50.5142 83.3656L51.2476 83.399L56.2807 83.5989C56.3641 92.2487 56.7307 100.915 58.1807 109.448C59.6806 118.315 62.3306 127.264 67.7304 134.564C70.1803 137.881 75.6801 142.564 80.0134 141.914C80.2133 141.964 80.3967 141.964 80.58 141.897H80.5967C82.0633 140.647 93.4296 132.281 96.8128 128.248C110.046 112.481 122.745 105.682 132.262 102.865C132.362 103.048 132.612 103.248 132.978 103.448C132.245 104.098 131.528 104.748 130.845 105.432C127.462 108.782 124.745 112.531 122.479 116.548C121.462 118.348 120.545 120.198 119.695 122.081C119.062 123.481 118.479 124.914 117.912 126.381C117.712 126.864 117.529 127.348 117.346 127.848C117.229 128.164 117.112 128.498 116.996 128.831C116.846 129.231 116.696 129.631 116.579 130.014C116.312 130.781 116.046 131.531 115.796 132.297C115.629 132.797 115.462 133.297 115.312 133.797Z" fill="#7624F4"/>
<path fill-rule="evenodd" clip-rule="evenodd" d="M314.941 111.265C315.174 117.131 314.507 123.081 314.124 128.798C313.824 133.064 313.841 137.331 313.691 141.597C313.524 146.131 313.074 150.664 312.207 155.147C310.607 163.53 307.374 171.746 301.841 178.73C273.008 191.163 249.409 170.196 242.143 162.613C241.976 157.48 241.643 152.547 241.026 148.097C240.693 152.097 240.276 156.08 239.843 160.063C239.159 166.313 238.393 172.563 237.776 178.813C237.676 179.913 237.56 180.996 237.46 182.096C236.943 187.996 236.543 193.912 236.493 199.829C236.443 206.995 236.01 228.895 237.71 240.611C240.293 258.344 243.193 262.26 244.826 265.81C249.626 276.177 247.809 288.543 242.626 298.743H242.609C241.193 299.859 239.509 300.893 237.56 301.643C234.993 302.643 232.46 302.959 229.893 302.809C225.443 300.776 221.06 298.143 217.527 294.759C213.294 290.693 210.544 285.41 207.06 280.76C205.161 278.193 202.927 275.893 200.744 273.593C198.527 271.227 196.261 268.894 193.978 266.577C189.394 261.927 184.744 257.344 180.195 252.661C175.145 247.461 170.212 242.111 165.612 236.494C165.328 236.311 165.028 236.128 164.728 235.945C161.345 233.661 157.829 230.945 155.879 227.261C153.912 223.512 153.879 219.345 154.029 215.212C154.112 213.079 154.212 210.945 154.029 208.812C153.845 206.512 153.212 204.329 152.279 202.212C150.546 198.212 147.496 194.946 144.579 191.779C141.629 188.546 138.913 185.196 136.529 181.513C132.146 174.713 129.179 167.147 128.063 159.113C127.463 154.83 127.313 150.464 127.53 146.131C127.78 140.964 128.196 135.798 128.946 130.681C129.679 125.748 130.646 120.715 132.463 116.048C133.696 112.865 135.279 109.682 135.963 106.332C135.929 105.748 135.913 105.148 135.879 104.565C144.346 107.182 165.978 110.615 187.828 111.048C187.828 111.048 205.094 111.382 205.461 108.548C205.511 109.048 205.461 109.348 205.86 109.565C206.027 109.565 225.777 115.898 228.81 117.081C231.66 118.181 234.343 119.648 236.96 121.181C239.576 122.715 242.226 124.231 244.759 125.881C247.093 127.414 249.109 129.381 251.159 131.281C255.709 135.531 261.009 138.964 265.975 142.714C269.175 145.131 273.492 148.514 275.625 149.897C277.758 151.264 282.758 153.58 283.558 153.447H283.575C283.741 153.564 283.858 153.664 283.958 153.73C288.891 155.414 303.924 112.465 304.558 101.982L305.424 101.949L306.974 101.899L313.991 101.649H314.441L315.041 101.615C315.074 104.832 315.091 108.032 314.941 111.248V111.265Z" fill="#7624F4"/>
<path fill-rule="evenodd" clip-rule="evenodd" d="M301.84 178.729C301.69 178.929 301.54 179.113 301.39 179.296C296.307 185.496 289.824 190.612 281.857 193.629C275.991 195.846 269.707 196.879 263.391 197.246C263.358 197.246 263.324 197.262 263.291 197.262H263.258C258.375 196.912 253.458 196.162 248.675 195.112C246.242 194.579 243.992 193.779 241.875 192.712C242.092 183.779 242.458 172.596 242.142 162.613C249.408 170.196 273.007 191.162 301.84 178.729Z" fill="#5F24D5"/>
<path fill-rule="evenodd" clip-rule="evenodd" d="M248.625 291.81C247.975 292.877 246.042 296.06 242.625 298.743C247.808 288.543 249.625 276.177 244.825 265.811C243.192 262.261 240.292 258.344 237.709 240.612C236.009 228.895 236.442 206.996 236.492 199.829C236.542 193.913 236.942 187.996 237.459 182.097C237.559 180.997 237.675 179.913 237.775 178.813C238.392 172.564 239.158 166.314 239.842 160.064C240.275 156.081 240.692 152.098 241.025 148.098C241.642 152.548 241.975 157.481 242.142 162.614C242.158 163.381 242.192 164.13 242.192 164.914C242.342 171.43 242.225 178.33 242.075 184.697C242.025 187.28 241.942 189.796 241.892 192.18C241.875 192.363 241.875 192.546 241.875 192.713C241.792 196.13 241.742 199.296 241.742 202.046C241.825 236.078 245.875 251.045 248.658 259.178C249.791 262.494 250.708 264.661 251.075 266.527C251.975 271.261 254.341 282.277 248.625 291.81Z" fill="#AE88F0"/>
<path fill-rule="evenodd" clip-rule="evenodd" d="M319.773 157.597C318.323 166.73 313.323 176.163 306.023 183.496C304.34 185.413 302.373 187.179 300.09 188.763C298.907 189.579 297.69 190.313 296.473 190.996C295.557 191.529 294.623 192.046 293.673 192.529V192.429C292.09 193.179 290.49 193.846 288.874 194.413C283.79 196.179 278.407 197.096 272.924 197.362H272.741C272.157 197.396 271.574 197.412 270.991 197.446H270.691C269.191 197.496 267.674 197.462 266.158 197.412C265.774 197.412 265.391 197.379 265.008 197.362C264.641 197.346 264.258 197.312 263.874 197.296C263.691 197.296 263.474 197.279 263.291 197.262C263.324 197.262 263.358 197.262 263.391 197.246C269.707 196.879 275.991 195.846 281.857 193.629C289.824 190.613 296.307 185.496 301.39 179.296C301.54 179.113 301.69 178.93 301.84 178.73C307.373 171.747 310.606 163.53 312.206 155.147C313.073 150.664 313.523 146.131 313.69 141.597C313.839 137.331 313.823 133.064 314.123 128.798C314.506 123.081 315.173 117.132 314.939 111.265C315.089 108.049 315.073 104.849 315.039 101.632L316.373 101.582C316.373 101.582 316.406 101.615 316.406 101.632C316.756 103.032 323.889 132.014 319.773 157.597Z" fill="#AE88F0"/>
<path fill-rule="evenodd" clip-rule="evenodd" d="M283.557 153.462C282.757 153.596 277.757 151.279 275.624 149.913C273.49 148.529 269.174 145.146 265.974 142.729C261.007 138.98 255.707 135.546 251.158 131.296C249.108 129.397 247.091 127.43 244.758 125.897C242.225 124.247 239.575 122.73 236.958 121.197C234.341 119.663 231.658 118.197 228.808 117.097C225.775 115.914 206.026 109.58 205.859 109.58C205.459 109.364 205.509 109.064 205.459 108.564V108.48C215.909 109.497 250.291 118.614 267.757 141.596C268.174 142.046 268.724 142.546 269.357 143.096C269.674 143.379 270.024 143.663 270.374 143.946C272.524 145.713 275.324 147.746 277.84 149.496C278.59 150.029 279.323 150.529 279.99 150.996C280.34 151.246 280.69 151.479 281.007 151.696C282.123 152.462 283.023 153.079 283.557 153.462Z" fill="#AE88F0"/>
<path fill-rule="evenodd" clip-rule="evenodd" d="M80.0139 141.896C75.6807 142.563 70.1808 137.879 67.7309 134.563C62.3311 127.263 59.6811 118.313 58.1812 109.447C56.7312 100.914 56.3646 92.2474 56.2812 83.5977L57.5312 83.6477L59.9645 83.7477C60.2811 89.5308 65.4143 104.214 69.9975 117.697C73.4641 127.913 75.8307 137.463 80.0139 141.896Z" fill="#AE88F0"/>
<path fill-rule="evenodd" clip-rule="evenodd" d="M229.892 302.827C228.592 302.76 227.276 302.56 225.926 302.277C225.859 302.26 225.809 302.243 225.742 302.243C222.676 301.56 219.476 300.377 216.043 299.01C213.026 297.81 209.81 296.46 206.343 295.16C205.343 294.793 204.36 294.427 203.377 294.093C202.427 293.76 201.493 293.443 200.56 293.143C199.777 292.893 199.01 292.643 198.243 292.41C196.277 291.81 194.377 291.277 192.51 290.794C191.894 290.627 191.277 290.46 190.66 290.327C188.627 289.81 186.627 289.377 184.694 288.994C183.377 288.727 182.077 288.494 180.811 288.277C179.894 288.11 178.994 287.96 178.111 287.81C173.994 287.144 170.111 286.66 166.378 286.177C162.061 285.627 158.345 285.31 154.828 285.094C153.945 285.044 153.078 284.994 152.211 284.944C151.361 284.894 150.495 284.86 149.645 284.827C146.228 284.66 142.828 284.527 139.028 284.277C138.545 284.244 138.062 284.21 137.578 284.177C135.145 283.994 132.529 283.76 129.662 283.46C129.079 283.394 128.495 283.327 127.895 283.26C124.912 282.91 121.646 282.46 117.996 281.894C116.746 281.694 115.562 281.511 114.446 281.327L114.196 281.277C113.013 281.061 111.879 280.861 110.829 280.644C109.846 280.427 108.929 280.227 108.079 279.994C107.513 279.844 106.963 279.694 106.446 279.527C106.063 279.411 105.696 279.277 105.329 279.144C104.946 278.994 104.563 278.844 104.213 278.694C103.846 278.544 103.513 278.377 103.18 278.211C102.946 278.077 102.73 277.961 102.513 277.827C102.03 277.544 101.596 277.244 101.213 276.927C101.046 276.794 100.896 276.661 100.746 276.511C100.68 276.461 100.63 276.411 100.58 276.344C100.413 276.194 100.263 276.044 100.13 275.877C99.8796 275.594 99.6463 275.294 99.4463 274.977C99.263 274.711 99.113 274.444 98.963 274.144C95.5464 267.311 103.213 260.111 107.013 245.728C110.079 234.129 108.079 227.529 106.963 212.646C106.863 211.346 106.746 209.729 106.629 207.829C106.579 207.129 106.529 206.396 106.479 205.613C106.463 205.163 106.446 204.696 106.413 204.213C106.213 200.296 106.063 195.563 106.113 190.297C106.213 177.197 107.496 160.664 112.146 144.448C112.729 142.415 113.313 140.365 113.913 138.348C114.063 137.832 114.213 137.332 114.363 136.815C114.679 135.798 114.996 134.798 115.312 133.798C115.462 133.298 115.629 132.798 115.796 132.298C116.046 131.532 116.312 130.782 116.579 130.015C116.696 129.632 116.846 129.232 116.996 128.832C117.112 128.498 117.229 128.165 117.346 127.848C117.529 127.348 117.712 126.865 117.912 126.382C118.479 124.915 119.062 123.482 119.696 122.082C120.546 120.199 121.462 118.349 122.479 116.549C124.746 112.532 127.462 108.782 130.845 105.432C131.529 104.749 132.245 104.099 132.979 103.449C133.612 103.783 134.595 104.166 135.879 104.583C135.912 105.166 135.929 105.766 135.962 106.349C135.279 109.699 133.695 112.882 132.462 116.066C130.645 120.732 129.679 125.765 128.945 130.698C128.195 135.815 127.779 140.981 127.529 146.148C127.312 150.481 127.462 154.848 128.062 159.131C129.179 167.164 132.145 174.73 136.529 181.53C138.912 185.213 141.628 188.563 144.578 191.797C147.495 194.963 150.545 198.23 152.278 202.23C153.211 204.346 153.845 206.529 154.028 208.829C154.211 210.963 154.111 213.096 154.028 215.229C153.878 219.362 153.911 223.529 155.878 227.279C157.828 230.962 161.344 233.679 164.728 235.962C165.028 236.145 165.328 236.329 165.611 236.512C170.211 242.128 175.144 247.478 180.194 252.678C184.744 257.361 189.394 261.944 193.977 266.594C196.26 268.911 198.527 271.244 200.743 273.611C202.927 275.911 205.16 278.211 207.06 280.777C210.543 285.427 213.293 290.71 217.526 294.777C221.059 298.16 225.443 300.793 229.892 302.827Z" fill="#5F24D5"/>
<path fill-rule="evenodd" clip-rule="evenodd" d="M205.46 108.481V108.565C205.093 111.398 187.827 111.065 187.827 111.065C165.977 110.631 144.345 107.198 135.878 104.582C134.595 104.165 133.612 103.782 132.978 103.448C132.612 103.248 132.362 103.048 132.262 102.865C136.245 101.865 141.128 101.398 144.478 101.032C164.527 98.7317 167.661 96.8317 169.627 94.4818C172.127 91.5152 174.727 81.2322 177.627 75.6324C177.61 75.5324 177.61 75.4824 177.61 75.4824C173.027 70.3659 172.527 65.766 175.644 64.1327C176.077 63.8994 176.544 63.7828 176.96 63.7328C177.377 63.6828 177.727 63.6828 177.894 63.6994C178.077 63.7161 178.244 63.7494 178.427 63.7994C178.56 63.8327 178.694 63.8827 178.844 63.9327C178.994 63.9827 179.16 64.0494 179.31 64.1327C179.527 64.2327 179.744 64.3494 179.944 64.4994C180.044 64.5661 180.16 64.6494 180.26 64.7327C180.377 64.8161 180.494 64.916 180.594 65.016C180.727 65.1327 180.877 65.266 180.994 65.416C181.11 65.5494 181.244 65.6994 181.36 65.8494C181.36 65.866 181.36 65.8827 181.377 65.8994C182.194 67.7493 183.044 70.2492 182.544 71.9825C182.477 72.2492 182.377 72.4992 182.227 72.7325C181.177 74.3991 180.577 79.3323 180.16 84.1321C180.16 84.2821 180.144 84.4321 180.127 84.5821C180.094 85.0988 180.044 85.6154 180.01 86.1321L179.96 86.8821C179.91 87.3987 179.877 87.882 179.844 88.3653L179.794 89.2153C179.794 89.2153 179.777 89.3486 179.777 89.4153C179.76 89.732 179.727 90.0486 179.71 90.3486C179.627 91.4486 179.56 92.4152 179.494 93.1819C179.027 98.5484 184.61 109.915 196.71 104.048C201.01 106.315 205.46 107.115 205.46 108.481Z" fill="#F09C3C"/>
<path fill-rule="evenodd" clip-rule="evenodd" d="M204.593 75.0996V75.1663C204.593 76.4163 205.043 77.4162 205.61 77.4662L211.476 77.9329C210.143 80.6495 208.41 83.3661 206.277 85.766C206.21 85.8493 206.127 85.9326 206.06 86.016C206.043 86.0326 206.027 86.0493 206.01 86.0493C204.527 87.4659 202.66 88.6159 201.577 86.8493C199.577 83.5994 197.593 80.3328 192.894 81.4161C188.777 82.3661 184.561 67.3332 183.561 63.55C183.627 63.25 183.694 62.95 183.761 62.65C183.811 62.3834 183.877 62.1334 183.961 61.8834C183.977 61.8167 183.994 61.7667 184.011 61.7C184.077 61.4334 184.161 61.1834 184.261 60.9334C184.344 60.6501 184.444 60.3834 184.561 60.1168C184.661 59.8501 184.761 59.6001 184.877 59.3334C184.977 59.0835 185.094 58.8335 185.227 58.6001C185.344 58.3501 185.46 58.1168 185.61 57.9002C185.86 57.4335 186.144 57.0002 186.444 56.6169C186.594 56.4169 186.744 56.2169 186.91 56.0335C187.06 55.8502 187.227 55.6669 187.394 55.5002C187.61 55.2669 187.86 55.0336 188.094 54.8503C188.244 54.7169 188.41 54.6003 188.56 54.4836C188.594 54.4503 188.644 54.4169 188.677 54.4003C188.86 54.2669 189.044 54.1503 189.244 54.0503C189.544 53.8503 189.86 53.7003 190.177 53.567C190.844 53.3003 193.91 52.0503 196.327 53.3836C197.943 54.2669 197.793 55.4836 199.777 57.5502C199.877 57.6668 202.177 60.0168 205.56 61.1667C209.776 62.6 211.576 60.7501 213.16 61.9C214.96 63.1833 215.076 67.3332 213.66 72.2331L205.66 72.8497H205.61C205.06 72.9164 204.61 73.883 204.593 75.0996Z" fill="#F09C3C"/>
<path fill-rule="evenodd" clip-rule="evenodd" d="M218.876 71.849L213.659 72.2324C215.076 67.3325 214.959 63.1826 213.159 61.8993C211.576 60.7494 209.776 62.5993 205.559 61.166C202.176 60.0161 199.876 57.6661 199.776 57.5495C197.793 55.4829 197.943 54.2662 196.326 53.3829C193.91 52.0496 190.843 53.2996 190.176 53.5663C189.86 53.6996 189.543 53.8496 189.243 54.0496C189.043 54.1496 188.86 54.2662 188.677 54.3996C188.643 54.3996 188.593 54.4496 188.56 54.4829C188.393 54.5829 188.243 54.7162 188.093 54.8496C187.86 55.0329 187.61 55.2662 187.393 55.4995C187.21 55.6662 187.043 55.8495 186.91 56.0329C186.727 56.2162 186.577 56.4162 186.443 56.6162C186.143 56.9995 185.86 57.4328 185.61 57.8995C185.46 58.1161 185.343 58.3495 185.227 58.5994C185.093 58.8328 184.977 59.0828 184.877 59.3328C184.76 59.5994 184.66 59.8494 184.56 60.1161C184.443 60.3827 184.343 60.6494 184.26 60.9327C184.16 61.1827 184.077 61.4327 184.01 61.6994C183.993 61.766 183.977 61.816 183.96 61.8827C183.877 62.1327 183.81 62.3827 183.76 62.6493L183.56 63.5493C184.56 67.3325 188.777 82.3654 192.893 81.4154C197.593 80.3321 199.576 83.5987 201.576 86.8486C202.659 88.6152 204.526 87.4652 206.009 86.0486C206.026 86.0486 206.043 86.0319 206.059 86.0153C207.293 84.832 208.243 83.482 208.243 83.482C208.243 83.482 205.193 98.5482 200.11 102.048C198.926 102.865 197.793 103.531 196.71 104.048C184.61 109.915 179.027 98.5482 179.493 93.1817C179.56 92.4151 179.627 91.4484 179.71 90.3485C179.727 90.0485 179.76 89.7318 179.777 89.4152C179.777 89.3485 179.793 89.2818 179.793 89.2152L179.843 88.3652C179.877 87.8819 179.91 87.3986 179.96 86.8819L180.01 86.1319C180.043 85.6153 180.093 85.0986 180.127 84.582C180.143 84.432 180.16 84.282 180.16 84.132C180.577 79.3321 181.177 74.399 182.227 72.7323C182.377 72.499 182.477 72.249 182.543 71.9824C183.043 70.2491 182.193 67.7492 181.377 65.8992C181.36 65.8826 181.36 65.8659 181.36 65.8492C181.243 65.6992 181.11 65.5492 180.993 65.4159C180.877 65.2659 180.727 65.1326 180.593 65.0159C180.493 64.9159 180.377 64.8159 180.26 64.7326C180.16 64.6493 180.043 64.5659 179.943 64.4993C179.743 64.3493 179.527 64.2326 179.31 64.1326C179.16 64.0493 178.993 63.9826 178.843 63.9326C178.693 63.8826 178.56 63.8326 178.427 63.7993C178.243 63.7493 178.077 63.716 177.894 63.6993C177.727 63.6826 177.377 63.6826 176.96 63.7326C176.744 62.9826 176.644 62.216 176.76 61.3327C177.36 56.4162 176.927 46.8665 183.16 43.7166C187.627 41.4666 192.91 43.4999 194.16 43.9832C198.96 45.8165 198.86 48.4498 202.843 49.4164C207.776 50.5997 209.643 47.0165 214.542 47.8331C218.959 48.5831 223.125 52.4663 224.375 56.8328C225.892 62.166 223.042 68.0992 218.876 71.849Z" fill="#2E1B42"/>
<path fill-rule="evenodd" clip-rule="evenodd" d="M348.773 61.9492C346.439 62.6159 344.523 65.9991 343.74 70.5323C335.49 72.4989 327.457 75.7155 319.24 77.9487C316.49 78.7154 313.707 79.3654 310.874 79.8153C310.791 79.2987 310.624 78.8321 310.391 78.4321C310.174 78.0821 309.924 77.7321 309.541 77.5321C309.307 77.4154 309.024 77.3654 308.774 77.3488C308.157 77.3321 307.557 77.5154 307.057 77.8487C306.741 77.9987 306.457 78.2321 306.207 78.5154C305.791 78.9154 305.457 79.4154 305.224 79.932C305.174 80.0653 305.091 80.232 305.024 80.432C303.491 80.5153 301.941 80.532 300.408 80.482C285.391 80.1653 270.475 74.8655 255.342 75.1988C248.442 75.3488 241.609 76.6654 234.71 76.8321C234.193 76.8488 233.676 76.8488 233.16 76.8488C232.326 76.8488 231.493 76.8321 230.66 76.7988C229.876 76.7821 229.11 76.7488 228.326 76.6988C228.243 76.6988 228.176 76.6821 228.093 76.6821C227.243 76.6321 226.376 76.5655 225.526 76.4988C222.96 76.2988 220.393 76.0321 217.81 75.7821C217.027 75.6988 216.243 75.6321 215.46 75.5655C215.377 75.5488 215.31 75.5488 215.243 75.5488C214.393 75.4655 213.527 75.3988 212.677 75.3322H212.61C210.877 75.2155 209.144 75.1155 207.394 75.0822C206.46 75.0655 205.527 75.0822 204.594 75.0988C204.61 73.8822 205.06 72.9156 205.61 72.8656H205.66L213.66 72.2322L218.877 71.8489L310.374 64.8825L318.607 64.2492L348.773 61.9492Z" fill="#606060"/>
<path fill-rule="evenodd" clip-rule="evenodd" d="M305.024 80.4329C304.607 81.4829 303.924 83.3162 303.407 84.9328L299.508 84.6328L211.477 77.933L205.61 77.483C205.044 77.4163 204.594 76.4164 204.594 75.1664V75.0997C205.527 75.0831 206.46 75.0664 207.394 75.0831C209.144 75.1164 210.877 75.2164 212.61 75.3331H212.677C213.527 75.3997 214.393 75.4664 215.243 75.5497C215.31 75.5497 215.377 75.5497 215.46 75.5664C216.243 75.6331 217.027 75.6997 217.81 75.7831C220.393 76.033 222.96 76.2997 225.526 76.4997C226.376 76.5664 227.243 76.633 228.093 76.683C228.176 76.683 228.243 76.6997 228.326 76.6997C229.11 76.7497 229.876 76.783 230.66 76.7997C231.493 76.833 232.326 76.8497 233.16 76.8497C233.676 76.8497 234.193 76.8497 234.71 76.833C241.609 76.6664 248.442 75.3497 255.342 75.1997C270.475 74.8664 285.391 80.1663 300.408 80.4829C301.941 80.5329 303.491 80.5162 305.024 80.4329Z" fill="#3B3B3B"/>
<path fill-rule="evenodd" clip-rule="evenodd" d="M355.888 75.116C355.888 82.4658 353.071 88.4323 349.621 88.4323H349.455C349.455 88.4323 349.355 88.4156 349.305 88.4156L318.089 86.0323L310.289 85.449C310.822 83.3991 311.156 81.3825 310.872 79.8159C313.706 79.3659 316.489 78.7159 319.239 77.9493C327.455 75.716 335.488 72.4994 343.738 70.5328C344.521 65.9996 346.438 62.6164 348.771 61.9497C349.038 61.8664 349.338 61.8164 349.621 61.8164C353.071 61.8164 355.888 67.7662 355.888 75.116Z" fill="#3B3B3B"/>
<path fill-rule="evenodd" clip-rule="evenodd" d="M354.605 75.1329C354.605 80.9827 352.372 85.7326 349.622 85.7326C346.872 85.7326 344.639 80.9827 344.639 75.1329C344.639 69.2831 346.872 64.5332 349.622 64.5332C352.372 64.5332 354.605 69.2831 354.605 75.1329Z" fill="#72B7F6"/>
<path fill-rule="evenodd" clip-rule="evenodd" d="M318.09 86.0318C317.957 86.9984 317.79 87.9484 317.607 88.8984C317.257 90.6483 316.907 92.5649 315.957 94.0982C315.357 95.0648 314.574 95.7981 314.19 96.9148C313.84 97.9814 313.924 99.0814 314.107 100.148C314.19 100.648 314.307 101.165 314.44 101.648H313.99L306.974 101.915L305.424 101.965C305.324 100.598 305.057 99.2647 304.407 98.5481C304.107 98.2314 303.691 98.0981 303.391 97.7314C302.474 96.6148 302.124 95.0482 301.591 93.6482C300.674 91.2149 299.691 88.415 299.508 85.6818C299.491 85.3318 299.474 84.9818 299.508 84.6318L303.407 84.9318C303.924 83.3152 304.607 81.4819 305.024 80.4319C305.091 80.2319 305.174 80.0653 305.224 79.932C305.457 79.4153 305.791 78.9153 306.207 78.5153C306.457 78.232 306.741 77.9987 307.057 77.8487C307.557 77.5154 308.157 77.332 308.774 77.3487C309.024 77.3654 309.307 77.4154 309.541 77.532C309.924 77.732 310.174 78.082 310.391 78.432C310.624 78.832 310.791 79.2986 310.874 79.8153C311.157 81.3819 310.824 83.3985 310.291 85.4485L318.09 86.0318Z" fill="#F09C3C"/>
</svg>
