<svg width="714" height="322" viewBox="0 0 714 322" fill="none" xmlns="http://www.w3.org/2000/svg">
<g filter="url(#filter0_f_1719_32712)">
<path fill-rule="evenodd" clip-rule="evenodd" d="M619.254 172.829C619.046 175.886 617.634 178.735 615.33 180.751C613.025 182.767 610.015 183.786 606.961 183.584C603.905 183.374 601.058 181.959 599.044 179.649C597.029 177.34 596.013 174.324 596.218 171.266C596.43 168.209 597.845 165.362 600.152 163.349C602.459 161.335 605.47 160.32 608.523 160.526C611.575 160.738 614.418 162.152 616.429 164.458C618.441 166.764 619.457 169.775 619.254 172.829ZM589.306 170.803C588.617 180.979 596.331 189.811 606.492 190.501C616.64 191.19 625.475 183.481 626.164 173.305C626.854 163.13 619.14 154.298 608.992 153.609C598.833 152.919 589.996 160.628 589.306 170.803Z" fill="#CFCFCF"/>
<path fill-rule="evenodd" clip-rule="evenodd" d="M97.4326 277.912L108.078 278.635L108.798 268.001L115.179 268.434L114.459 279.068L125.076 279.789L124.643 286.176L114.028 285.455L113.307 296.103L106.926 295.67L107.647 285.02L97 284.297L97.4326 277.912Z" fill="#CFCFCF"/>
<path fill-rule="evenodd" clip-rule="evenodd" d="M9.84179 222.03C9.08671 221.978 8.34911 221.779 7.67111 221.442C6.9931 221.105 6.38799 220.639 5.89028 220.068C5.39258 219.497 5.01205 218.834 4.77041 218.116C4.52877 217.398 4.43075 216.64 4.48196 215.884C4.53145 215.127 4.72962 214.387 5.06515 213.706C5.40068 213.026 5.86696 212.418 6.43734 211.918C7.00772 211.418 7.67103 211.035 8.38925 210.792C9.10747 210.549 9.86648 210.45 10.623 210.501C12.1514 210.608 13.5752 211.317 14.5829 212.473C15.5905 213.628 16.1 215.136 16 216.666C15.8886 218.193 15.1787 219.613 14.0251 220.618C12.8715 221.623 11.3677 222.13 9.84179 222.03Z" fill="#CFCFCF"/>
<path fill-rule="evenodd" clip-rule="evenodd" d="M245.246 68.9368C243.082 66.7698 241.865 63.8318 241.863 60.7677C241.861 57.7036 243.074 54.7638 245.235 52.5937C247.403 50.4273 250.341 49.2107 253.404 49.211C256.467 49.2112 259.405 50.4284 261.573 52.5951C263.733 54.765 264.945 57.704 264.943 60.7673C264.941 63.8306 263.725 66.7679 261.561 68.9349C259.396 71.0964 256.463 72.3104 253.404 72.3107C250.346 72.3111 247.412 71.0978 245.246 68.9368ZM266.627 47.8494C259.422 40.6381 247.701 40.6465 240.5 47.8548C233.308 55.0533 233.3 66.7848 240.505 73.9962C247.71 81.2076 259.431 81.1992 266.623 74.0006C273.823 66.7939 273.832 55.0608 266.627 47.8494Z" fill="#CFCFCF"/>
<path fill-rule="evenodd" clip-rule="evenodd" d="M522.5 9.52398L514.956 17.0755L522.487 24.6137L517.965 29.1404L510.435 21.6038L502.91 29.1357L498.389 24.6108L505.913 17.0805L498.371 9.53257L502.894 5.00591L510.435 12.5539L517.981 5.00074L522.5 9.52398Z" fill="#CFCFCF"/>
<path fill-rule="evenodd" clip-rule="evenodd" d="M562.164 309.331L554.001 309.338L554.003 317.501L549.098 317.498L549.097 309.335L540.935 309.327L540.94 304.429L549.096 304.429L549.101 296.26L553.996 296.254L553.998 304.432L562.159 304.424L562.164 309.331Z" fill="#CFCFCF"/>
<path fill-rule="evenodd" clip-rule="evenodd" d="M680.5 269.231L691.724 269.222L691.719 258.001L698.461 258.002L698.464 269.226L709.688 269.24L709.679 275.976L698.466 275.973L698.458 287.208L691.73 287.216L691.726 275.97L680.502 275.978L680.5 269.231Z" fill="#CFCFCF"/>
<path fill-rule="evenodd" clip-rule="evenodd" d="M422.849 14.3111C421.769 15.3929 420.303 16.0006 418.774 16.0007C417.246 16.0007 415.78 15.393 414.699 14.3112C414.162 13.7759 413.735 13.1398 413.443 12.4393C413.152 11.7387 413.001 10.9875 413 10.2286C412.999 9.46974 413.147 8.71805 413.436 8.01657C413.726 7.31509 414.15 6.67759 414.686 6.14053C415.772 5.05866 417.242 4.4512 418.774 4.45117C420.306 4.45115 421.776 5.05855 422.862 6.14038C423.938 7.22828 424.54 8.69782 424.538 10.2285C424.536 11.7591 423.929 13.2266 422.849 14.3111Z" fill="#CFCFCF"/>
<path fill-rule="evenodd" clip-rule="evenodd" d="M160.351 179.663C161.41 180.733 162.002 182.179 162 183.685C161.998 185.191 161.4 186.636 160.338 187.703C159.275 188.767 157.832 189.364 156.329 189.364C154.825 189.364 153.383 188.767 152.319 187.703C151.79 187.176 151.37 186.55 151.083 185.861C150.796 185.172 150.648 184.432 150.647 183.686C150.646 182.939 150.791 182.199 151.076 181.509C151.361 180.819 151.779 180.191 152.306 179.663C153.374 178.598 154.821 178.001 156.329 178.001C157.836 178.001 159.283 178.598 160.351 179.663Z" fill="#CFCFCF"/>
</g>
<defs>
<filter id="filter0_f_1719_32712" x="0.46875" y="0.451172" width="713.219" height="321.049" filterUnits="userSpaceOnUse" color-interpolation-filters="sRGB">
<feFlood flood-opacity="0" result="BackgroundImageFix"/>
<feBlend mode="normal" in="SourceGraphic" in2="BackgroundImageFix" result="shape"/>
<feGaussianBlur stdDeviation="2" result="effect1_foregroundBlur_1719_32712"/>
</filter>
</defs>
</svg>
