<svg width="120" height="36" viewBox="0 0 120 36" fill="none" xmlns="http://www.w3.org/2000/svg">
<path fill-rule="evenodd" clip-rule="evenodd" d="M115.556 0C118.01 0 120 2.01472 120 4.5V31.5C120 33.9853 118.01 36 115.556 36H4.44444C1.98985 36 0 33.9853 0 31.5V4.5C0 2.01472 1.98985 0 4.44444 0H115.556Z" fill="black"/>
<path d="M41.1433 10.6894C40.6414 11.2047 39.9781 11.4667 39.1714 11.4667C38.3648 11.4667 37.7374 11.2047 37.1906 10.6807C36.6439 10.1568 36.375 9.5018 36.375 8.73333C36.375 7.96485 36.6439 7.3099 37.1906 6.78594C37.7374 6.26198 38.3917 6 39.1714 6C39.5569 6 39.9243 6.06986 40.2739 6.21832C40.6234 6.36677 40.9013 6.55889 41.1164 6.80341L40.6414 7.26624C40.2829 6.8558 39.7989 6.64622 39.1714 6.64622C38.6068 6.64622 38.1138 6.83834 37.7015 7.23131C37.2892 7.61554 37.0831 8.12204 37.0831 8.74206C37.0831 9.36208 37.2892 9.86857 37.7015 10.2528C38.1138 10.637 38.6068 10.8379 39.1714 10.8379C39.772 10.8379 40.2739 10.6458 40.6772 10.2528C40.9372 9.99956 41.0895 9.64153 41.1254 9.18743H39.1714V8.55867H41.7797C41.8066 8.6984 41.8155 8.82939 41.8155 8.95164V8.94291C41.8155 9.67646 41.5914 10.2615 41.1433 10.6894Z" fill="white" stroke="white" stroke-width="0.2"/>
<path d="M43.5007 6.7595V8.41871H45.7056V9.04746H43.5007V10.7067H45.9476V11.3529H42.8105V6.11328H45.9476V6.7595H43.5007Z" fill="white" stroke="white" stroke-width="0.2"/>
<path d="M48.1708 11.3529V6.7595H46.665V6.11328H50.3578V6.7595H48.852V11.3529H48.861H48.1708Z" fill="white" stroke="white" stroke-width="0.2"/>
<path d="M53.0371 6.11328H53.7273V11.3529H53.0371V6.11328Z" fill="white" stroke="white" stroke-width="0.2"/>
<path d="M56.1034 11.3529V6.7595H54.5977V6.11328H58.2904V6.7595H56.7846V11.3529H56.7936H56.1034Z" fill="white" stroke="white" stroke-width="0.2"/>
<path fill-rule="evenodd" clip-rule="evenodd" d="M63.3182 11.4667C62.5295 11.4667 61.8752 11.2047 61.3464 10.672C60.8175 10.1393 60.5576 9.49307 60.5576 8.73333C60.5576 7.97358 60.8175 7.31863 61.3464 6.79467C61.8752 6.26198 62.5295 6 63.3182 6C64.107 6 64.7523 6.26198 65.2901 6.79467C65.8189 7.32737 66.0878 7.97358 66.0878 8.73333C66.0878 9.49307 65.8189 10.148 65.299 10.672H65.2901C64.7612 11.2047 64.107 11.4667 63.3182 11.4667ZM63.3182 10.8204C63.8918 10.8204 64.3848 10.6283 64.7792 10.2353C65.1735 9.84238 65.3797 9.34461 65.3797 8.73333C65.3797 8.12204 65.1825 7.62428 64.7792 7.23131C64.3848 6.83834 63.8918 6.64622 63.3182 6.64622C62.7446 6.64622 62.2516 6.83834 61.8572 7.23131C61.4629 7.62428 61.2567 8.12204 61.2567 8.73333C61.2567 9.34461 61.4539 9.84238 61.8572 10.2353C62.2516 10.6283 62.7446 10.8204 63.3182 10.8204Z" fill="white" stroke="white" stroke-width="0.2"/>
<path d="M67.0557 6.11328H67.8982L70.5154 10.1914H70.5423L70.5154 9.17845V6.11328H71.2055V11.3529H70.4885L67.7548 7.08261H67.7279L67.7548 8.0956V11.3616H67.0646L67.0557 11.3529V6.11328Z" fill="white" stroke="white" stroke-width="0.2"/>
<path fill-rule="evenodd" clip-rule="evenodd" d="M56.5589 22.7053C56.5589 24.8536 58.2798 26.4167 60.3861 26.4167C62.4924 26.4167 64.2133 24.8448 64.2133 22.7053C64.2133 20.5658 62.4924 18.9939 60.3861 18.9939C58.2798 18.9939 56.5589 20.5571 56.5589 22.7053ZM58.235 22.7053C58.235 21.378 59.2299 20.4523 60.3861 20.4523C61.5424 20.4523 62.5373 21.3692 62.5373 22.7053C62.5373 24.0414 61.5424 24.9584 60.3861 24.9584C59.2299 24.9584 58.235 24.0327 58.235 22.7053ZM48.2144 22.7053C48.2144 24.8536 49.9353 26.4167 52.0416 26.4167C54.1479 26.4167 55.8688 24.8448 55.8688 22.7053C55.8688 20.5658 54.1479 18.9939 52.0416 18.9939C49.9353 18.9939 48.2144 20.5571 48.2144 22.7053ZM49.8905 22.7053C49.8905 21.378 50.8854 20.4523 52.0416 20.4523C53.1978 20.4523 54.1927 21.3692 54.1927 22.7053C54.1927 24.0414 53.1978 24.9584 52.0416 24.9584C50.8854 24.9584 49.8905 24.0327 49.8905 22.7053ZM42.1107 21.7011H45.9827C45.8661 22.5918 45.5614 23.238 45.1043 23.6834C44.5396 24.2336 43.6612 24.8361 42.1196 24.8361C39.7355 24.8361 37.8712 22.9673 37.8712 20.6444C37.8712 18.3215 39.7355 16.4527 42.1196 16.4527C43.4013 16.4527 44.3424 16.9418 45.0326 17.5793L46.1709 16.4702C45.2029 15.5707 43.9212 14.8809 42.1107 14.8809C38.8481 14.8809 36.1055 17.4657 36.1055 20.6532C36.1055 23.8406 38.8481 26.4255 42.1107 26.4255C43.8764 26.4255 45.2029 25.8666 46.2426 24.8099C47.3092 23.7707 47.6408 22.3036 47.6408 21.1247C47.6408 20.7579 47.6139 20.4174 47.5512 20.1379H42.1107V20.1292V21.7011ZM79.4593 18.9852C77.4785 18.9852 75.8652 20.4872 75.8652 22.6966C75.8652 24.775 77.4785 26.408 79.6475 26.408C81.3953 26.408 82.4081 25.3688 82.8204 24.7662L81.5208 23.9192C81.0906 24.5392 80.499 24.9496 79.6475 24.9496C78.7961 24.9496 78.1866 24.5654 77.8012 23.8231L82.9011 21.7709L82.7308 21.3518H82.7218C82.4081 20.5222 81.4401 18.9852 79.4593 18.9852ZM79.5131 20.4261C80.1764 20.4261 80.741 20.7492 80.9292 21.212L77.5233 22.5918C77.4785 21.1597 78.6616 20.4261 79.5131 20.4261ZM75.0585 26.1897V15.2738H73.3824V26.1897H75.0585ZM70.586 19.8148C70.2095 19.3782 69.4925 18.9852 68.5783 18.9852C66.6692 18.9852 64.9214 20.6182 64.9214 22.7141C64.9214 24.8099 66.6692 26.4167 68.5783 26.4167C69.4925 26.4167 70.2095 26.0237 70.586 25.5696H70.6398V26.1023C70.6398 27.5258 69.86 28.2855 68.6052 28.2855C67.5834 28.2855 66.947 27.5694 66.6871 26.9669L65.2261 27.5607C65.6474 28.5475 66.7588 29.7526 68.6052 29.7526C70.5681 29.7526 72.2262 28.6261 72.2262 25.884V19.2123H70.6398V19.8148H70.586ZM66.5975 22.7141C66.5975 21.4216 67.5655 20.4523 68.7217 20.4523C69.8779 20.4523 70.7563 21.4129 70.7563 22.7141C70.7563 24.0152 69.86 24.9496 68.7217 24.9496C67.5655 24.9496 66.5975 24.0065 66.5975 22.7141ZM86.5669 15.2738V26.1897H88.243V22.0504H90.5824C92.4377 22.0504 94.2572 20.7405 94.2572 18.6621C94.2572 16.5837 92.4377 15.2738 90.5824 15.2738H90.5734H86.5669ZM88.243 20.5396V16.7933H90.6182C91.873 16.7933 92.5811 17.8063 92.5811 18.6621C92.5811 19.5179 91.873 20.5309 90.6182 20.5309V20.5396H88.243ZM97.9678 20.6357L99.4557 21.2382C99.7694 20.6357 100.361 20.4348 100.979 20.4348C101.84 20.4348 102.727 20.9413 102.736 21.8408V21.9543C102.431 21.7884 101.786 21.5352 100.988 21.5352C99.384 21.5352 97.7617 22.391 97.7617 23.989C97.7617 25.4474 99.0703 26.3905 100.54 26.3905C101.661 26.3905 102.288 25.9015 102.673 25.3251H102.727V26.1722H104.341V21.9893C104.341 20.0506 102.853 18.9677 100.935 18.9677H100.953C99.7425 18.9677 98.4877 19.4917 97.9678 20.6357ZM99.4378 24.024C99.4378 23.1856 100.388 22.8625 101.212 22.8625C101.947 22.8625 102.297 23.0197 102.736 23.2293C102.611 24.2423 101.714 24.9584 100.746 24.9584V24.9496C100.2 24.9496 99.4378 24.6789 99.4378 24.024ZM108.311 23.9366H108.257L106.268 19.2035H104.466L107.451 25.8229L105.748 29.4994H107.495L112.093 19.2035H110.238H110.229L108.311 23.9366ZM96.8385 26.1897V15.2738H95.1624V26.1897H96.8385Z" fill="white"/>
<path d="M8.25684 7.80909V27.1258C8.25684 27.6672 8.40921 28.0864 8.66913 28.3483L8.73187 28.4095L19.837 17.5897V17.3364L8.73187 6.52539L8.66913 6.58652C8.40921 6.85723 8.25684 7.2764 8.25684 7.80909Z" fill="url(#paint0_linear_2229_2478)"/>
<path d="M19.8369 17.5981V17.3449L23.5386 13.7383L23.6193 13.7819L28.0022 16.2096C29.257 16.8995 29.257 18.0348 28.0022 18.7334L23.6193 21.1611L23.5386 21.2047L19.8369 17.5981Z" fill="url(#paint1_linear_2229_2478)"/>
<path d="M23.6192 21.1617L19.8368 17.4766L8.66895 28.3575C9.08124 28.7854 9.76243 28.8378 10.5332 28.4099L23.6281 21.1617" fill="url(#paint2_linear_2229_2478)"/>
<path d="M10.5245 6.53421C9.75364 6.10631 9.07245 6.1587 8.66016 6.5866L19.828 17.4675L23.6104 13.7823H23.6193L10.5245 6.53421Z" fill="url(#paint3_linear_2229_2478)"/>
<path opacity="0.2" d="M10.5233 28.2806C9.7973 28.6823 9.14301 28.6561 8.73071 28.2894L8.66797 28.3505L8.73071 28.4116C9.15197 28.7784 9.7973 28.8046 10.5233 28.4029L23.6182 21.1548L23.5375 21.0762L10.5233 28.2806Z" fill="black"/>
<path opacity="0.12" d="M8.25586 27.0059V27.1368C8.25586 27.6783 8.40823 28.0974 8.66816 28.3594L8.7309 28.2983L8.66816 28.2372V28.2284C8.40823 27.9577 8.25586 27.5386 8.25586 27.0059Z" fill="black"/>
<path opacity="0.12" d="M23.5303 21.0753L23.6109 21.1539L27.9938 18.7263C28.6212 18.3769 28.9349 17.9228 28.9349 17.4688C28.8812 17.8792 28.5675 18.2896 27.9938 18.604H28.0028L23.5303 21.0753Z" fill="black"/>
<path opacity="0.25" d="M28.0024 16.3319C28.5671 16.6462 28.8898 17.0479 28.9435 17.4671C28.9435 17.013 28.6298 16.5502 28.0024 16.2096L10.5246 6.53381C9.26982 5.84393 8.24805 6.42028 8.24805 7.81751V7.9485C8.24805 6.55127 9.26982 5.97492 10.5246 6.6648V6.65606L28.0024 16.3319Z" fill="white"/>
<defs>
<linearGradient id="paint0_linear_2229_2478" x1="15.3921" y1="7.60824" x2="9.90626" y2="20.6822" gradientUnits="userSpaceOnUse">
<stop stop-color="#00A1FF"/>
<stop offset="0.26" stop-color="#00BEFF"/>
<stop offset="0.51" stop-color="#00D2FF"/>
<stop offset="0.76" stop-color="#00DFFF"/>
<stop offset="1" stop-color="#00E3FF"/>
</linearGradient>
<linearGradient id="paint1_linear_2229_2478" x1="29.6334" y1="17.4671" x2="31.7218" y2="17.4671" gradientUnits="userSpaceOnUse">
<stop stop-color="#FFE000"/>
<stop offset="0.41" stop-color="#FFBD00"/>
<stop offset="0.78" stop-color="#FFA500"/>
<stop offset="1" stop-color="#FF9C00"/>
</linearGradient>
<linearGradient id="paint2_linear_2229_2478" x1="21.5666" y1="21.0543" x2="18.3644" y2="32.8447" gradientUnits="userSpaceOnUse">
<stop stop-color="#FF3A44"/>
<stop offset="1" stop-color="#C31162"/>
</linearGradient>
<linearGradient id="paint3_linear_2229_2478" x1="11.4656" y1="12.1145" x2="14.2454" y2="9.50175" gradientUnits="userSpaceOnUse">
<stop stop-color="#32A071"/>
<stop offset="0.07" stop-color="#2DA771"/>
<stop offset="0.48" stop-color="#15CF74"/>
<stop offset="0.8" stop-color="#06E775"/>
<stop offset="1" stop-color="#00F076"/>
</linearGradient>
</defs>
</svg>
