<svg width="25" height="24" viewBox="0 0 25 24" fill="none" xmlns="http://www.w3.org/2000/svg">
<path d="M2.51172 21.9669L3.89136 16.9302C3.04049 15.4559 2.59285 13.7837 2.59333 12.0708C2.59574 6.71164 6.95727 2.35156 12.316 2.35156C14.9169 2.35253 17.3584 3.36516 19.1934 5.20211C21.0294 7.03905 22.0396 9.48106 22.0386 12.0781C22.0362 17.4373 17.6747 21.7978 12.316 21.7978C12.3155 21.7978 12.3165 21.7978 12.316 21.7978H12.3116C10.6843 21.7974 9.0854 21.3888 7.66568 20.6147L2.51172 21.9669Z" fill="url(#paint0_linear_1700_1565)"/>
<path d="M2.16211 22.3189L3.591 17.1017C2.70972 15.5747 2.24613 13.8426 2.24662 12.0679C2.24903 6.51654 6.76654 2 12.3184 2C15.0125 2.00097 17.5409 3.04982 19.4426 4.95292C21.3438 6.85602 22.3907 9.38592 22.3897 12.0761C22.3873 17.627 17.8688 22.1445 12.3184 22.1445C12.3179 22.1445 12.3189 22.1445 12.3184 22.1445H12.3141C10.6287 22.1441 8.97241 21.721 7.50151 20.919L2.16211 22.3189ZM7.74875 19.096L8.05442 19.2771C9.33941 20.0396 10.8127 20.4428 12.315 20.4438H12.3184C16.932 20.4438 20.6875 16.6897 20.6894 12.0752C20.6899 9.83887 19.8202 7.73634 18.2397 6.15485C16.6592 4.57336 14.5576 3.70173 12.3213 3.70076C7.70384 3.70076 3.94883 7.45433 3.9469 12.0684C3.94642 13.6494 4.38875 15.1894 5.22658 16.5217L5.42601 16.8385L4.57998 19.9266L7.74875 19.096Z" fill="url(#paint1_linear_1700_1565)"/>
<path fill-rule="evenodd" clip-rule="evenodd" d="M9.8001 7.85839C9.61177 7.43923 9.4133 7.43102 9.23366 7.42378C9.08686 7.4175 8.9193 7.41798 8.75125 7.41798C8.58369 7.41798 8.31085 7.48125 8.08002 7.73283C7.8492 7.98442 7.19922 8.59336 7.19922 9.83151C7.19922 11.0697 8.10127 12.2663 8.22682 12.4343C8.35286 12.6019 9.96767 15.224 12.5256 16.2328C14.6513 17.0711 15.084 16.9045 15.5456 16.8625C16.0073 16.8205 17.0344 16.254 17.2444 15.6664C17.454 15.0787 17.454 14.575 17.3913 14.4697C17.3285 14.3649 17.1604 14.3022 16.9088 14.1761C16.6572 14.0501 15.4201 13.4412 15.1892 13.3576C14.9584 13.2741 14.7908 13.2316 14.6228 13.4837C14.4552 13.7352 13.9728 14.3022 13.826 14.4697C13.6792 14.6378 13.5324 14.659 13.2808 14.533C13.0292 14.407 12.2185 14.1414 11.257 13.2842C10.509 12.6173 10.0039 11.7935 9.85709 11.5414C9.71028 11.2899 9.84115 11.1532 9.96767 11.0281C10.0807 10.9156 10.2193 10.7345 10.3453 10.5872C10.4708 10.4404 10.5129 10.3357 10.5969 10.1676C10.6809 9.99955 10.6389 9.85275 10.5761 9.72672C10.5133 9.60068 10.0242 8.35577 9.8001 7.85839Z" fill="white"/>
<defs>
<linearGradient id="paint0_linear_1700_1565" x1="12.2751" y1="21.9669" x2="12.2751" y2="2.35192" gradientUnits="userSpaceOnUse">
<stop stop-color="#20B038"/>
<stop offset="1" stop-color="#60D66A"/>
</linearGradient>
<linearGradient id="paint1_linear_1700_1565" x1="12.2762" y1="22.3189" x2="12.2762" y2="2.00055" gradientUnits="userSpaceOnUse">
<stop stop-color="#F9F9F9"/>
<stop offset="1" stop-color="white"/>
</linearGradient>
</defs>
</svg>
