<svg width="24" height="24" viewBox="0 0 24 24" fill="none" xmlns="http://www.w3.org/2000/svg">
<path fill-rule="evenodd" clip-rule="evenodd" d="M12 0C5.38324 0 0 5.38324 0 12C0 18.6168 5.38324 24 12 24C18.6168 24 24 18.6168 24 12C24 5.38324 18.6168 0 12 0ZM12 1.8C17.644 1.8 22.2 6.35604 22.2 12C22.2 17.644 17.644 22.2 12 22.2C6.35603 22.2 1.8 17.644 1.8 12C1.8 6.35604 6.35603 1.8 12 1.8ZM8.4 7.5C7.57157 7.5 6.9 8.17157 6.9 9C6.9 9.82843 7.57157 10.5 8.4 10.5C9.22843 10.5 9.9 9.82843 9.9 9C9.9 8.17157 9.22843 7.5 8.4 7.5ZM15.6 7.5C14.7716 7.5 14.1 8.17157 14.1 9C14.1 9.82843 14.7716 10.5 15.6 10.5C16.4284 10.5 17.1 9.82843 17.1 9C17.1 8.17157 16.4284 7.5 15.6 7.5ZM12 17.4095C9.71576 17.4095 7.6658 16.3393 6.34922 14.6662C6.14518 14.4139 6.09268 14.0714 6.21179 13.7696C6.33091 13.4679 6.60321 13.2535 6.92452 13.2087C7.24583 13.1638 7.56643 13.2953 7.76367 13.5529C8.75109 14.8077 10.2762 15.6095 12 15.6095C13.7238 15.6095 15.2489 14.8077 16.2363 13.5529C16.4336 13.2953 16.7542 13.1638 17.0755 13.2087C17.3968 13.2535 17.6691 13.4679 17.7882 13.7696C17.9073 14.0714 17.8548 14.4139 17.6508 14.6662C16.3342 16.3393 14.2842 17.4095 12 17.4095Z" fill="white"/>
</svg>
