<svg width="51" height="51" viewBox="0 0 51 51" fill="none" xmlns="http://www.w3.org/2000/svg">
<path d="M25.5 51C39.5833 51 51 39.5833 51 25.5C51 11.4167 39.5833 0 25.5 0C11.4167 0 0 11.4167 0 25.5C0 39.5833 11.4167 51 25.5 51Z" fill="#FFD93B"/>
<path d="M24.2853 41.2854C17.647 41.2854 11.8134 37.0166 9.77007 30.6628C9.57392 30.0521 9.90753 29.3964 10.5161 29.1996C11.1277 29.0012 11.7779 29.3375 11.9741 29.9483C13.7086 35.3378 18.6556 38.9603 24.2853 38.9603C29.915 38.9603 34.862 35.3394 36.5965 29.9483C36.7927 29.3375 37.4429 29.0012 38.0545 29.1996C38.6631 29.3964 38.9967 30.0521 38.8005 30.6628C36.7571 37.0166 30.9236 41.2854 24.2853 41.2854Z" fill="#3E4347"/>
<path d="M51.0003 25.0546C51.0003 39.3896 39.3815 51.0003 25.0546 51.0003C16.8979 51.0003 9.61684 47.2381 4.85742 41.3436C9.30874 44.9436 14.9763 47.0922 21.1465 47.0922C35.4734 47.0922 47.0922 35.4815 47.0922 21.1465C47.0922 14.9763 44.9436 9.30874 41.3436 4.85742C47.23 9.61684 51.0003 16.8979 51.0003 25.0546Z" fill="#F4C534"/>
<path d="M21.2895 19.4199C20.0995 18.0322 17.9537 17.1097 15.5072 17.1097C13.0497 17.1192 10.9039 18.0417 9.71387 19.4294C9.76925 16.7391 12.3391 14.5723 15.5072 14.5723C18.6531 14.5723 21.2341 16.7296 21.2895 19.4199Z" fill="#3E4347"/>
<path d="M41.2865 19.4199C40.0965 18.0322 37.9507 17.1097 35.5043 17.1097C33.0467 17.1192 30.9009 18.0417 29.7109 19.4294C29.7663 16.7391 32.3362 14.5723 35.5043 14.5723C38.6518 14.5723 41.2312 16.7296 41.2865 19.4199Z" fill="#3E4347"/>
</svg>
