<svg width="67" height="78" viewBox="0 0 67 78" fill="none" xmlns="http://www.w3.org/2000/svg">
<path d="M62.3679 19.5329L61.6898 19.3969C61.8277 20.3641 61.8001 21.3818 61.5729 22.4173L55.2351 51.0171C55.16 51.3481 55.0707 51.6676 54.9648 51.9788C53.6968 55.6578 50.1346 57.9871 46.5953 57.275L20.9428 52.116C21.0971 55.0509 22.4991 57.3778 24.6427 57.8042L40.4132 60.9764L47.9083 77.8889L49.8309 62.8691L52.646 63.4318C55.1681 63.938 57.8711 61.6457 59.0933 58.1541C59.2424 57.7263 59.3697 57.2753 59.4728 56.8158L65.8106 28.216C66.476 25.2083 65.8836 22.3683 64.464 20.7771C64.4284 20.7344 64.3907 20.6934 64.3511 20.6543C64.3286 20.6287 64.3045 20.6047 64.2788 20.5822L64.2521 20.5547C64.1796 20.4828 64.1039 20.4142 64.0252 20.3491C63.553 19.9366 62.9814 19.6551 62.3668 19.5325L62.3679 19.5329Z" fill="#EB37A0"/>
<path d="M53.4024 7.89537L15.1552 0.1329C11.5909 -0.591354 8.00195 1.71303 6.73667 5.3769C6.62756 5.68993 6.53871 6.0087 6.46525 6.33942L0.198773 34.8643C-0.483377 37.9648 0.63804 40.9893 2.82977 42.6749C3.60843 43.275 4.52005 43.711 5.53752 43.9184L9.37626 44.6949L4.3073 59.0321L22.2352 47.3071L43.7755 51.6776C47.351 52.4032 50.9385 50.0956 52.2007 46.4294C52.3076 46.1151 52.3973 45.7952 52.4693 45.4712L58.7381 16.9471C58.9453 15.9972 58.9887 15.0193 58.8664 14.0559C58.7889 13.4687 58.6462 12.8924 58.4409 12.3377C58.4394 12.3345 58.4402 12.3322 58.4379 12.3313C58.4116 12.2643 58.386 12.1989 58.3628 12.1343C57.7701 10.6746 56.7507 9.45289 55.4306 8.67064C55.0588 8.4538 54.6672 8.27309 54.2609 8.13147C53.9804 8.03369 53.6935 7.95508 53.4024 7.89537ZM31.7422 19.0558C33.768 17.24 36.6858 17.0934 38.7235 18.6924C40.602 20.1597 41.4511 22.867 40.6416 25.1856C40.5915 25.3181 40.5407 25.4529 40.4824 25.5824C40.0042 26.6622 39.2288 27.6608 38.4176 28.5075C35.7794 31.2445 32.6059 33.148 29.4672 35.0939L29.4444 35.107C28.1086 35.9681 26.3378 35.6111 25.4437 34.3003C23.2985 31.2254 21.2063 28.1295 19.8813 24.4858C19.2131 22.6541 19.1496 21.0029 19.6571 19.5691C20.0043 18.5883 20.6207 17.7119 21.4932 16.9444C24.325 14.4655 28.3621 15.3401 30.0441 18.627C30.3176 19.1693 30.398 19.5497 30.6007 20.2278C31.0253 19.7894 31.3641 19.3947 31.7406 19.0566L31.7422 19.0558Z" fill="#EB37A0"/>
</svg>
