<svg width="28" height="23" viewBox="0 0 28 23" fill="none" xmlns="http://www.w3.org/2000/svg">
<path fill-rule="evenodd" clip-rule="evenodd" d="M7.70307 0C5.90845 0 4.53738 1.36618 3.46198 3.09144C2.38659 4.81671 1.5405 7.05062 0.942177 9.38621C0.343853 11.7218 0 14.1507 0 16.2648C0 18.379 0.243407 20.1994 1.33173 21.4009C1.83303 21.9544 2.48891 22.3129 3.16432 22.3847C3.83973 22.4565 4.47717 22.2681 5.04349 21.977C6.17615 21.3949 7.14423 20.389 8.04992 19.3177C8.9556 18.2463 9.77531 17.0955 10.417 16.2352C10.7379 15.8051 11.0177 15.4453 11.2104 15.2309C11.2554 15.1808 11.266 15.1752 11.2984 15.1435H13.9981H14.0032H16.7029C16.7352 15.1751 16.7461 15.181 16.7909 15.2309C16.9836 15.4453 17.2634 15.8051 17.5843 16.2352C18.226 17.0955 19.0457 18.2463 19.9514 19.3177C20.8571 20.389 21.8251 21.3949 22.9578 21.977C23.5241 22.2681 24.1603 22.4565 24.8357 22.3847C25.5111 22.3129 26.167 21.9544 26.6683 21.4009C27.7567 20.1993 28.0004 18.379 28 16.2648C27.9996 14.1507 27.6551 11.7205 27.0565 9.38493C26.4579 7.04938 25.6118 4.81662 24.5367 3.09144C23.4616 1.36627 22.0922 0 20.2982 0C18.4382 0 17.1812 0.619769 16.2758 1.14579C15.3705 1.67181 14.8722 2.02153 14.0032 2.02153H13.9981C13.1291 2.02153 12.6308 1.67181 11.7254 1.14579C10.8201 0.619769 9.56308 0 7.70307 0ZM7.70307 1.97523C9.15622 1.97523 9.88705 2.36633 10.7211 2.85097C11.5552 3.33561 12.5478 3.99676 13.9981 3.99676H14.0032C15.4534 3.99676 16.4448 3.33561 17.2789 2.85097C18.113 2.36633 18.8451 1.97523 20.2982 1.97523C20.9868 1.97523 21.9341 2.6665 22.8465 4.1305C23.7588 5.5945 24.5692 7.68257 25.1308 9.87359C25.6923 12.0646 26.0118 14.3668 26.0121 16.2648C26.0125 18.1629 25.5941 19.6346 25.1916 20.079C24.9474 20.3485 24.7957 20.4016 24.6247 20.4197C24.4537 20.4379 24.2046 20.3949 23.8702 20.223C23.2013 19.8792 22.3071 19.0333 21.4734 18.0471C20.6396 17.0609 19.8442 15.9485 19.1813 15.0599C18.8499 14.6156 18.5551 14.2294 18.2741 13.9166C18.1336 13.7603 17.9997 13.6206 17.8302 13.4884C17.6607 13.3562 17.4613 13.1682 16.9851 13.1682H14.0032H13.9981H11.0162C10.54 13.1682 10.3406 13.3562 10.1711 13.4884C10.0016 13.6206 9.86771 13.7603 9.7272 13.9166C9.44618 14.2294 9.15139 14.6156 8.81997 15.0599C8.15712 15.9485 7.36166 17.0609 6.52794 18.0471C5.69422 19.0333 4.79866 19.8792 4.12979 20.223C3.79535 20.3949 3.54756 20.4379 3.37657 20.4197C3.20557 20.4016 3.05386 20.3485 2.80971 20.079C2.40711 19.6345 1.98789 18.1629 1.98789 16.2648C1.98789 14.3668 2.30667 12.0633 2.86795 9.87231C3.42922 7.68132 4.23971 5.59442 5.15221 4.1305C6.0647 2.66658 7.01283 1.97523 7.70307 1.97523ZM19.6304 5.26729C19.0815 5.26729 18.6365 5.70946 18.6365 6.2549C18.6365 6.80035 19.0815 7.24252 19.6304 7.24252C20.1794 7.24252 20.6244 6.80035 20.6244 6.2549C20.6244 5.70946 20.1794 5.26729 19.6304 5.26729ZM8.35017 5.91155C7.80174 5.92007 7.36389 6.36836 7.37176 6.91331V7.90093H6.37781C6.01936 7.89589 5.68595 8.08302 5.50524 8.39066C5.32454 8.6983 5.32454 9.07879 5.50524 9.38643C5.68595 9.69407 6.01936 9.8812 6.37781 9.87616H7.37176V10.8638C7.36669 11.22 7.55502 11.5512 7.86463 11.7308C8.17424 11.9104 8.55717 11.9104 8.86678 11.7308C9.17639 11.5512 9.36472 11.22 9.35965 10.8638V9.87616H10.3536C10.712 9.8812 11.0455 9.69407 11.2262 9.38643C11.4069 9.07879 11.4069 8.6983 11.2262 8.39066C11.0455 8.08302 10.712 7.89589 10.3536 7.90093H9.35965V6.91331C9.3635 6.64625 9.25834 6.38902 9.06815 6.20028C8.87796 6.01154 8.61894 5.90738 8.35017 5.91155ZM16.9799 7.90093C16.431 7.90093 15.9859 8.3431 15.9859 8.88855C15.9859 9.43399 16.431 9.87616 16.9799 9.87616C17.5288 9.87616 17.9738 9.43399 17.9738 8.88855C17.9738 8.3431 17.5288 7.90093 16.9799 7.90093ZM22.2809 7.90093C21.732 7.90093 21.287 8.3431 21.287 8.88855C21.287 9.43399 21.732 9.87616 22.2809 9.87616C22.8299 9.87616 23.2749 9.43399 23.2749 8.88855C23.2749 8.3431 22.8299 7.90093 22.2809 7.90093ZM19.6304 10.5346C19.0815 10.5346 18.6365 10.9767 18.6365 11.5222C18.6365 12.0676 19.0815 12.5098 19.6304 12.5098C20.1794 12.5098 20.6244 12.0676 20.6244 11.5222C20.6244 10.9767 20.1794 10.5346 19.6304 10.5346Z" fill="white"/>
</svg>
