<svg width="20" height="16" viewBox="0 0 20 16" fill="none" xmlns="http://www.w3.org/2000/svg">
<path fill-rule="evenodd" clip-rule="evenodd" d="M5.5022 0C4.22032 0 3.24098 0.975846 2.47284 2.20817C1.70471 3.4405 1.10036 5.03616 0.672984 6.70444C0.245609 8.37272 0 10.1076 0 11.6177C0 13.1278 0.173862 14.4281 0.951236 15.2864C1.30931 15.6817 1.77779 15.9378 2.26023 15.9891C2.74266 16.0404 3.19798 15.9058 3.6025 15.6979C4.41153 15.2821 5.10302 14.5636 5.74994 13.7983C6.39686 13.0331 6.98236 12.2111 7.44072 11.5966C7.6699 11.2894 7.86978 11.0324 8.00739 10.8792C8.03955 10.8434 8.04718 10.8394 8.07026 10.8168H9.99861H10.0023H11.9307C11.9537 10.8394 11.9615 10.8435 11.9935 10.8792C12.1311 11.0324 12.331 11.2894 12.5602 11.5966C13.0186 12.2111 13.6041 13.0331 14.251 13.7983C14.8979 14.5636 15.5894 15.2821 16.3984 15.6979C16.8029 15.9058 17.2573 16.0404 17.7398 15.9891C18.2222 15.9378 18.6907 15.6817 19.0488 15.2864C19.8262 14.4281 20.0003 13.1278 20 11.6177C19.9997 10.1076 19.7537 8.37177 19.3261 6.70352C18.8985 5.03527 18.2942 3.44044 17.5262 2.20817C16.7583 0.975909 15.7801 0 14.4987 0C13.1702 0 12.2723 0.442692 11.6256 0.818421C10.979 1.19415 10.623 1.44395 10.0023 1.44395H9.99861C9.3779 1.44395 9.02197 1.19415 8.37532 0.818421C7.72867 0.442692 6.83077 0 5.5022 0ZM5.5022 1.41088C6.54016 1.41088 7.06218 1.69024 7.65796 2.03641C8.25374 2.38258 8.96275 2.85483 9.99861 2.85483H10.0023C11.0382 2.85483 11.7463 2.38258 12.342 2.03641C12.9378 1.69024 13.4608 1.41088 14.4987 1.41088C14.9906 1.41088 15.6672 1.90464 16.3189 2.95036C16.9706 3.99607 17.5494 5.48755 17.9505 7.05257C18.3517 8.61758 18.5798 10.262 18.5801 11.6177C18.5803 12.9735 18.2815 14.0247 17.994 14.3421C17.8196 14.5347 17.7112 14.5725 17.5891 14.5855C17.4669 14.5985 17.289 14.5678 17.0501 14.445C16.5724 14.1994 15.9336 13.5953 15.3381 12.8908C14.7426 12.1864 14.1744 11.3918 13.7009 10.757C13.4642 10.4397 13.2536 10.1639 13.0529 9.94046C12.9526 9.82875 12.8569 9.72901 12.7358 9.63459C12.6148 9.54017 12.4724 9.40587 12.1322 9.40587H10.0023H9.99861H7.86873C7.52854 9.40587 7.38616 9.54017 7.26508 9.63459C7.144 9.72901 7.04836 9.82875 6.948 9.94046C6.74727 10.1639 6.53671 10.4397 6.29998 10.757C5.82651 11.3918 5.25833 12.1864 4.66281 12.8908C4.0673 13.5953 3.42762 14.1994 2.94985 14.445C2.71097 14.5678 2.53397 14.5985 2.41183 14.5855C2.28969 14.5725 2.18133 14.5347 2.00693 14.3421C1.71937 14.0246 1.41992 12.9735 1.41992 11.6177C1.41992 10.262 1.64762 8.61664 2.04853 7.05165C2.44945 5.48666 3.02837 3.99601 3.68015 2.95036C4.33193 1.9047 5.00917 1.41088 5.5022 1.41088ZM14.0217 3.76235C13.6296 3.76235 13.3118 4.07818 13.3118 4.46779C13.3118 4.85739 13.6296 5.17323 14.0217 5.17323C14.4138 5.17323 14.7317 4.85739 14.7317 4.46779C14.7317 4.07818 14.4138 3.76235 14.0217 3.76235ZM5.96441 4.22254C5.57267 4.22862 5.25992 4.54883 5.26554 4.93808V5.64352H4.55558C4.29954 5.63993 4.06139 5.77359 3.93232 5.99333C3.80324 6.21307 3.80324 6.48485 3.93232 6.70459C4.06139 6.92434 4.29954 7.058 4.55558 7.0544H5.26554V7.75984C5.26192 8.01425 5.39644 8.25089 5.61759 8.37914C5.83874 8.50739 6.11226 8.50739 6.33341 8.37914C6.55456 8.25089 6.68908 8.01425 6.68546 7.75984V7.0544H7.39542C7.65146 7.058 7.88961 6.92434 8.01869 6.70459C8.14776 6.48485 8.14776 6.21307 8.01869 5.99333C7.88961 5.77359 7.65146 5.63993 7.39542 5.64352H6.68546V4.93808C6.68822 4.74732 6.6131 4.56359 6.47725 4.42877C6.3414 4.29396 6.15639 4.21956 5.96441 4.22254ZM12.1285 5.64352C11.7364 5.64352 11.4185 5.95936 11.4185 6.34896C11.4185 6.73857 11.7364 7.0544 12.1285 7.0544C12.5206 7.0544 12.8385 6.73857 12.8385 6.34896C12.8385 5.95936 12.5206 5.64352 12.1285 5.64352ZM15.915 5.64352C15.5229 5.64352 15.205 5.95936 15.205 6.34896C15.205 6.73857 15.5229 7.0544 15.915 7.0544C16.3071 7.0544 16.6249 6.73857 16.6249 6.34896C16.6249 5.95936 16.3071 5.64352 15.915 5.64352ZM14.0217 7.5247C13.6296 7.5247 13.3118 7.84053 13.3118 8.23014C13.3118 8.61974 13.6296 8.93558 14.0217 8.93558C14.4138 8.93558 14.7317 8.61974 14.7317 8.23014C14.7317 7.84053 14.4138 7.5247 14.0217 7.5247Z" fill="#EB37A0"/>
</svg>
