<svg width="20" height="18" viewBox="0 0 20 18" fill="none" xmlns="http://www.w3.org/2000/svg">
<path fill-rule="evenodd" clip-rule="evenodd" d="M15.0002 7.99984C16.3289 7.99984 17.4138 9.18649 17.4953 10.6818L17.5002 10.8626V15.1372C17.5002 16.6556 16.4664 17.9007 15.1584 17.9942L15.0002 17.9998H13.7502C13.1022 17.9998 12.5667 17.4314 12.5059 16.7085L12.5002 16.5713V9.42841C12.5002 8.68795 12.9976 8.07585 13.6301 8.0064L13.7502 7.99984H15.0002ZM6.2502 7.99984C6.89817 7.99984 7.43369 8.56838 7.49446 9.29118L7.5002 9.42841V16.5713C7.5002 17.3118 7.00279 17.9238 6.37029 17.9933L6.2502 17.9998H5.0002C3.67151 17.9998 2.5866 16.8132 2.50511 15.318L2.5002 15.1371V10.8626C2.5002 9.34406 3.534 8.09901 4.84197 8.00548L5.0002 7.99984H6.2502ZM15.0002 9.59984H14.1002V16.3998H15.0002C15.4156 16.3998 15.8396 15.9458 15.8943 15.2825L15.9002 15.1372V10.8626C15.9002 10.1706 15.5039 9.67032 15.0892 9.6067L15.0002 9.59984ZM5.9002 9.59984H5.0002C4.58476 9.59984 4.1608 10.0539 4.10612 10.7173L4.1002 10.8626V15.1371C4.1002 15.8291 4.49645 16.3294 4.91118 16.393L5.0002 16.3998H5.9002V9.59984ZM19.5465 10.3837L19.5502 10.6665V15.3332C19.5502 15.775 19.192 16.1332 18.7502 16.1332C18.3424 16.1332 18.0058 15.828 17.9564 15.4335L17.9502 15.3332V10.6665C17.9502 5.79032 14.1346 1.90436 9.60033 2.1438C5.47498 2.3616 2.17913 6.12278 2.05389 10.6694L2.0502 10.9378V15.3332C2.0502 15.775 1.69202 16.1332 1.2502 16.1332C0.842354 16.1332 0.505794 15.828 0.456428 15.4335L0.450195 15.3332V10.9378C0.450195 5.45441 4.42223 0.814949 9.51596 0.546022C14.9028 0.261566 19.4005 4.74759 19.5465 10.3837Z" fill="#EB37A0"/>
</svg>
