<svg width="24" height="21" viewBox="0 0 24 21" fill="none" xmlns="http://www.w3.org/2000/svg">
<path fill-rule="evenodd" clip-rule="evenodd" d="M17.8334 8.83315C19.3835 8.83315 20.6493 10.2176 20.7443 11.9621L20.7501 12.1731V17.1601C20.7501 18.9316 19.544 20.3841 18.018 20.4932L17.8334 20.4998H16.3751C15.6191 20.4998 14.9943 19.8366 14.9234 18.9933L14.9167 18.8331V10.4998C14.9167 9.63594 15.497 8.92182 16.235 8.8408L16.3751 8.83315H17.8334ZM7.62507 8.83315C8.38104 8.83315 9.00581 9.49644 9.0767 10.3397L9.0834 10.4998V18.8331C9.0834 19.6971 8.50309 20.4111 7.76517 20.4922L7.62507 20.4998H6.16673C4.6166 20.4998 3.35087 19.1154 3.2558 17.371L3.25006 17.16V12.173C3.25006 10.4014 4.45617 8.94884 5.98214 8.83973L6.16673 8.83315H7.62507ZM17.8334 10.6998H16.7834V18.6331H17.8334C18.3181 18.6331 18.8127 18.1034 18.8765 17.3295L18.8834 17.1601V12.1731C18.8834 11.3657 18.4211 10.782 17.9373 10.7078L17.8334 10.6998ZM7.21673 10.6998H6.16673C5.68206 10.6998 5.18744 11.2296 5.12365 12.0035L5.11673 12.173V17.16C5.11673 17.9673 5.57903 18.5509 6.06288 18.6251L6.16673 18.6331H7.21673V10.6998ZM23.1375 11.6144L23.1417 11.9442V17.3887C23.1417 17.9042 22.7239 18.322 22.2084 18.322C21.7326 18.322 21.3399 17.966 21.2823 17.5058L21.2751 17.3887V11.9442C21.2751 6.25537 16.8235 1.72176 11.5336 2.0011C6.72065 2.2552 2.87548 6.64325 2.72937 11.9477L2.72507 12.2607V17.3887C2.72507 17.9042 2.3072 18.322 1.79173 18.322C1.31592 18.322 0.923263 17.966 0.86567 17.5058L0.858398 17.3887V12.2607C0.858398 5.86348 5.49244 0.450774 11.4351 0.137026C17.7198 -0.194839 22.9671 5.03886 23.1375 11.6144Z" fill="white"/>
</svg>
