<svg width="20" height="14" viewBox="0 0 20 14" fill="none" xmlns="http://www.w3.org/2000/svg">
<path fill-rule="evenodd" clip-rule="evenodd" d="M11.4563 0H2.71845C1.21709 0 0 1.20208 0 2.68493V11.3151C0 12.7979 1.21709 14 2.71845 14H11.4563C12.9577 14 14.1748 12.7979 14.1748 11.3151V2.68493C14.1748 1.20208 12.9577 0 11.4563 0ZM2.71845 1.53425H11.4563C12.0997 1.53425 12.6214 2.04943 12.6214 2.68493V11.3151C12.6214 11.9506 12.0997 12.4658 11.4563 12.4658H2.71845C2.07501 12.4658 1.5534 11.9506 1.5534 11.3151V2.68493C1.5534 2.04943 2.07501 1.53425 2.71845 1.53425ZM18.7573 1.59178C19.2409 1.23357 19.9195 1.53553 19.9934 2.10271L20 2.20548V11.7945C20 12.3616 19.4056 12.7203 18.9044 12.4944L18.8117 12.445L14.9282 10.0478C14.5644 9.82323 14.4538 9.34996 14.6812 8.99069C14.8896 8.66135 15.3096 8.54214 15.6583 8.69751L15.7515 8.74674L18.4466 10.4108V3.73973L15.8058 5.69589C15.4913 5.92891 15.056 5.89061 14.7874 5.62154L14.7184 5.54247C14.4825 5.23177 14.5213 4.80185 14.7937 4.53655L14.8738 4.46849L18.7573 1.59178Z" fill="#EB37A0"/>
</svg>
