<svg width="24" height="18" viewBox="0 0 24 18" fill="none" xmlns="http://www.w3.org/2000/svg">
<path fill-rule="evenodd" clip-rule="evenodd" d="M13.6992 0.833336H3.50502C1.75343 0.833336 0.333496 2.23577 0.333496 3.96576V14.0343C0.333496 15.7642 1.75343 17.1667 3.50502 17.1667H13.6992C15.4508 17.1667 16.8707 15.7642 16.8707 14.0343V3.96576C16.8707 2.23577 15.4508 0.833336 13.6992 0.833336ZM3.50502 2.62329H13.6992C14.4499 2.62329 15.0584 3.22433 15.0584 3.96576V14.0343C15.0584 14.7757 14.4499 15.3767 13.6992 15.3767H3.50502C2.75434 15.3767 2.14579 14.7757 2.14579 14.0343V3.96576C2.14579 3.22433 2.75434 2.62329 3.50502 2.62329ZM22.217 2.69041C22.7812 2.2725 23.5729 2.62478 23.6591 3.2865L23.6668 3.4064V14.5936C23.6668 15.2552 22.9734 15.6737 22.3886 15.4101L22.2804 15.3525L17.7497 12.5557C17.3253 12.2938 17.1963 11.7416 17.4615 11.3225C17.7047 10.9382 18.1947 10.7992 18.6015 10.9804L18.7102 11.0379L21.8545 12.9793V5.19635L18.7736 7.47854C18.4066 7.7504 17.8988 7.70571 17.5854 7.3918L17.505 7.29955C17.2298 6.93707 17.275 6.43549 17.5928 6.12598L17.6862 6.04658L22.217 2.69041Z" fill="white"/>
</svg>
