<svg width="18" height="20" viewBox="0 0 18 20" fill="none" xmlns="http://www.w3.org/2000/svg">
<path d="M8.88889 12.1875C7.58433 12.1875 6.34921 12.5244 6.34921 13.8965C6.34921 15.1904 6.86012 17.9736 7.16766 19.082C7.37103 19.8291 8.13988 20 8.88889 20C9.6379 20 10.4067 19.8291 10.6101 19.0869C10.9177 17.9639 11.4286 15.1855 11.4286 13.8965C11.4286 12.5244 10.1935 12.1875 8.88889 12.1875ZM9.40476 18.6914C9.16667 18.7695 8.61111 18.7695 8.37302 18.6914C8.0754 17.5586 7.61905 14.9756 7.61905 13.8965C7.61905 13.2617 10.1587 13.2568 10.1587 13.8965C10.1587 14.9756 9.70238 17.5635 9.40476 18.6914ZM8.88889 6.25C7.48512 6.25 6.34921 7.36816 6.34921 8.75C6.34921 10.1318 7.48512 11.25 8.88889 11.25C10.2927 11.25 11.4286 10.1318 11.4286 8.75C11.4286 7.36816 10.2927 6.25 8.88889 6.25ZM8.88889 10C8.18948 10 7.61905 9.43848 7.61905 8.75C7.61905 8.06152 8.18948 7.5 8.88889 7.5C9.58829 7.5 10.1587 8.06152 10.1587 8.75C10.1587 9.43848 9.58829 10 8.88889 10ZM8.88889 0C3.9881 0 0 3.92517 0 8.75C0 11.4606 1.24628 13.9746 3.4189 15.6476C3.69172 15.8588 4.09226 15.8118 4.30928 15.5402C4.52625 15.2679 4.47665 14.8755 4.20015 14.6625C2.33755 13.2288 1.26984 11.0736 1.26984 8.75C1.26984 4.61426 4.6875 1.25 8.88889 1.25C13.0903 1.25 16.5079 4.61426 16.5079 8.75C16.5079 11.0736 15.4402 13.2288 13.5776 14.6625C13.3011 14.8755 13.2515 15.2679 13.4685 15.5402C13.5937 15.6976 13.7798 15.78 13.9683 15.78C14.1059 15.78 14.2436 15.7367 14.3589 15.6476C16.5315 13.9746 17.7778 11.4606 17.7778 8.75C17.7778 3.92517 13.7897 0 8.88889 0ZM14.6032 8.75C14.6032 5.64819 12.0399 3.125 8.88889 3.125C5.73785 3.125 3.1746 5.64819 3.1746 8.75C3.1746 9.73999 3.43874 10.7129 3.93973 11.5631C4.11582 11.8628 4.50521 11.9617 4.80779 11.7908C5.11037 11.618 5.21453 11.2354 5.03844 10.9369C4.65034 10.2765 4.44444 9.52026 4.44444 8.75C4.44444 6.33789 6.43849 4.375 8.88889 4.375C11.3393 4.375 13.3333 6.33789 13.3333 8.75C13.3333 9.52026 13.1274 10.2765 12.7393 10.9369C12.5632 11.2354 12.6674 11.618 12.97 11.7908C13.0704 11.8481 13.1796 11.875 13.2887 11.875C13.5069 11.875 13.7202 11.7633 13.838 11.5631C14.339 10.7129 14.6032 9.73999 14.6032 8.75Z" fill="#EB37A0"/>
</svg>
