<svg width="22" height="24" viewBox="0 0 22 24" fill="none" xmlns="http://www.w3.org/2000/svg">
<path d="M10.8704 14.5521C9.34838 14.5521 7.90741 14.9452 7.90741 16.5459C7.90741 18.0555 8.50347 21.3026 8.86227 22.5957C9.09954 23.4673 9.99653 23.6667 10.8704 23.6667C11.7442 23.6667 12.6412 23.4673 12.8785 22.6014C13.2373 21.2912 13.8333 18.0498 13.8333 16.5459C13.8333 14.9452 12.3924 14.5521 10.8704 14.5521ZM11.4722 22.14C11.1944 22.2311 10.5463 22.2311 10.2685 22.14C9.9213 20.8184 9.38889 17.8049 9.38889 16.5459C9.38889 15.8053 12.3519 15.7996 12.3519 16.5459C12.3519 17.8049 11.8194 20.8241 11.4722 22.14ZM10.8704 7.625C9.23264 7.625 7.90741 8.92953 7.90741 10.5417C7.90741 12.1538 9.23264 13.4583 10.8704 13.4583C12.5081 13.4583 13.8333 12.1538 13.8333 10.5417C13.8333 8.92953 12.5081 7.625 10.8704 7.625ZM10.8704 12C10.0544 12 9.38889 11.3449 9.38889 10.5417C9.38889 9.73845 10.0544 9.08334 10.8704 9.08334C11.6863 9.08334 12.3519 9.73845 12.3519 10.5417C12.3519 11.3449 11.6863 12 10.8704 12ZM10.8704 0.333336C5.15278 0.333336 0.5 4.9127 0.5 10.5417C0.5 13.704 1.95399 16.637 4.48872 18.5889C4.807 18.8352 5.27431 18.7804 5.52749 18.4635C5.78063 18.1459 5.72276 17.688 5.40017 17.4396C3.22714 15.7669 1.98148 13.2525 1.98148 10.5417C1.98148 5.71664 5.96875 1.79167 10.8704 1.79167C15.772 1.79167 19.7593 5.71664 19.7593 10.5417C19.7593 13.2525 18.5136 15.7669 16.3406 17.4396C16.018 17.6881 15.9601 18.1459 16.2133 18.4635C16.3593 18.6472 16.5764 18.7434 16.7963 18.7434C16.9569 18.7434 17.1175 18.6928 17.252 18.5889C19.7867 16.637 21.2407 13.704 21.2407 10.5417C21.2407 4.9127 16.588 0.333336 10.8704 0.333336ZM17.537 10.5417C17.537 6.9229 14.5466 3.97917 10.8704 3.97917C7.19416 3.97917 4.2037 6.9229 4.2037 10.5417C4.2037 11.6967 4.51186 12.8317 5.09635 13.8236C5.30179 14.1733 5.75608 14.2886 6.10909 14.0892C6.46209 13.8877 6.58362 13.4412 6.37818 13.093C5.92539 12.3226 5.68519 11.4403 5.68519 10.5417C5.68519 7.72754 8.01157 5.4375 10.8704 5.4375C13.7292 5.4375 16.0556 7.72754 16.0556 10.5417C16.0556 11.4403 15.8153 12.3226 15.3626 13.093C15.1571 13.4412 15.2786 13.8877 15.6317 14.0892C15.7488 14.1561 15.8762 14.1875 16.0035 14.1875C16.2581 14.1875 16.5069 14.0572 16.6444 13.8236C17.2289 12.8317 17.537 11.6967 17.537 10.5417Z" fill="white"/>
</svg>
