<svg width="606" height="255" viewBox="0 0 606 255" fill="none" xmlns="http://www.w3.org/2000/svg">
<path fill-rule="evenodd" clip-rule="evenodd" d="M120.406 68.3119C119.163 68.3121 117.971 68.8056 117.091 69.6839C116.212 70.5622 115.717 71.7536 115.715 72.9966C115.716 74.2404 116.21 75.4329 117.09 76.3124C117.969 77.1918 119.162 77.6861 120.406 77.6869C121.649 77.6847 122.84 77.1896 123.718 76.3103C124.596 75.431 125.089 74.2392 125.09 72.9966C125.088 71.7548 124.594 70.5644 123.716 69.6862C122.838 68.8081 121.648 68.3139 120.406 68.3119ZM120.496 80.4994C116.359 80.4994 112.996 77.1319 112.996 72.9966C112.996 68.8669 116.359 65.4994 120.496 65.4994C124.633 65.4994 127.996 68.8669 127.996 72.9966C127.996 77.131 124.633 80.4994 120.496 80.4994Z" fill="#F7CFF0"/>
<path fill-rule="evenodd" clip-rule="evenodd" d="M563.308 87.9994C560.656 87.9999 558.113 89.0526 556.237 90.9263C554.36 92.8 553.304 95.3417 553.3 97.9934C553.302 100.647 554.357 103.191 556.234 105.067C558.11 106.943 560.655 107.998 563.308 107.999C565.959 107.995 568.5 106.938 570.373 105.063C572.246 103.187 573.299 100.644 573.3 97.9934C573.296 95.3443 572.242 92.8047 570.37 90.9314C568.497 89.058 565.957 88.0036 563.308 87.9994ZM563.5 113.999C554.674 113.999 547.5 106.815 547.5 97.9934C547.5 89.1834 554.674 81.9994 563.5 81.9994C572.326 81.9994 579.5 89.1834 579.5 97.9934C579.5 106.813 572.326 113.999 563.5 113.999Z" fill="#F7CFF0"/>
<path fill-rule="evenodd" clip-rule="evenodd" d="M202.026 148.867L207.931 142.973L213.815 148.868L217.355 145.335L211.472 139.441L217.362 133.563L213.83 130.025L207.942 135.902L202.051 129.999L198.511 133.532L204.402 139.435L198.496 145.33L202.026 148.867Z" fill="#F7CFF0"/>
<path fill-rule="evenodd" clip-rule="evenodd" d="M253.996 13.3369L262.339 13.3369V21.6654H267.34V13.3386L275.662 13.3386V8.33936L267.342 8.33936V4.37211e-07L262.341 0V8.33936L253.996 8.33936V13.3369Z" fill="#F7CFF0"/>
<path fill-rule="evenodd" clip-rule="evenodd" d="M136.996 241.478C136.977 237.901 135.545 234.477 133.012 231.952C130.479 229.428 127.051 228.007 123.474 227.999C119.9 228.001 116.473 229.421 113.945 231.949C111.418 234.476 109.998 237.903 109.996 241.478C109.992 243.251 110.337 245.007 111.012 246.647C111.688 248.287 112.68 249.777 113.931 251.033C115.183 252.289 116.67 253.286 118.308 253.966C119.945 254.647 121.701 254.998 123.474 254.999C127.058 254.991 130.492 253.563 133.026 251.029C135.56 248.495 136.987 245.061 136.996 241.478Z" fill="#F7CFF0"/>
<path fill-rule="evenodd" clip-rule="evenodd" d="M394.996 67.4937C395.001 66.5665 395.372 65.6788 396.029 65.0243C396.686 64.3697 397.574 64.0013 398.502 63.9994C399.428 63.9998 400.317 64.368 400.972 65.0233C401.627 65.6785 401.996 66.5671 401.996 67.4937C401.997 67.9535 401.908 68.4089 401.733 68.834C401.557 69.2591 401.3 69.6455 400.976 69.9711C400.651 70.2967 400.266 70.5551 399.841 70.7316C399.417 70.908 398.961 70.999 398.502 70.9994C397.573 70.9972 396.682 70.6271 396.025 69.9701C395.368 69.3132 394.998 68.4228 394.996 67.4937Z" fill="#F7CFF0"/>
<path fill-rule="evenodd" clip-rule="evenodd" d="M6.92151 209.999L18.4764 198.444L30.0115 209.979L36.9379 203.053L25.4054 191.52L36.9303 179.995L30.0063 173.072L18.4839 184.594L6.93396 173.044L0.00756836 179.971L11.5575 191.52L0 203.078L6.92151 209.999Z" fill="#F7CFF0"/>
<path fill-rule="evenodd" clip-rule="evenodd" d="M577 219.851H588.167V230.999H594.862V219.854H606V213.162H594.864V201.999H588.17V213.162H577V219.851Z" fill="#F7CFF0"/>
</svg>
