<svg width="20" height="19" viewBox="0 0 20 19" fill="none" xmlns="http://www.w3.org/2000/svg">
<path fill-rule="evenodd" clip-rule="evenodd" d="M18 0C19.11 0 20 0.89 20 1.99V13.62C20 14.73 19.1 15.62 18 15.62H2C0.89 15.62 0 14.72 0 13.62V2C0 0.89 0.9 0 2 0H18ZM18 1.59H2C1.78 1.59 1.6 1.77 1.6 1.99V13.62C1.6 13.84 1.78 14.02 2 14.02H18C18.22 14.02 18.4 13.84 18.4 13.62V2C18.4 1.78 18.22 1.6 18 1.6V1.59ZM5.45 4.03C5.82 4.28 5.91 4.77 5.66 5.14C5.1 5.96 4.81 6.92 4.81 7.92C4.81 8.92 5.1 9.88 5.66 10.7C5.91 11.07 5.81 11.56 5.44 11.81C5.31 11.9 5.16 11.94 5 11.94C4.74 11.94 4.49 11.82 4.34 11.59C3.61 10.5 3.22 9.23 3.22 7.92C3.22 6.6 3.61 5.33 4.34 4.24C4.59 3.87 5.08 3.78 5.45 4.03ZM15.66 4.24C16.39 5.33 16.78 6.6 16.78 7.92C16.78 9.24 16.39 10.51 15.66 11.59C15.51 11.82 15.25 11.94 15 11.94C14.85 11.94 14.69 11.9 14.55 11.8C14.18 11.55 14.09 11.06 14.33 10.69C14.88 9.87 15.18 8.91 15.18 7.91C15.18 6.91 14.89 5.95 14.33 5.13C14.08 4.76 14.18 4.27 14.55 4.02C14.92 3.77 15.41 3.87 15.66 4.24ZM7.43 5.41C7.8 5.66 7.89 6.15 7.65 6.52C7.37 6.93 7.22 7.42 7.22 7.92C7.22 8.42 7.37 8.9 7.64 9.31C7.89 9.68 7.79 10.17 7.42 10.42C7.29 10.51 7.14 10.56 6.98 10.56C6.72 10.56 6.47 10.44 6.32 10.21C5.86 9.53 5.62 8.74 5.62 7.92C5.62 7.1 5.86 6.31 6.32 5.63C6.57 5.26 7.07 5.17 7.43 5.41ZM13.67 5.63C14.13 6.31 14.37 7.1 14.37 7.92C14.37 8.74 14.13 9.53 13.67 10.21C13.53 10.43 13.28 10.56 13.02 10.56C12.87 10.56 12.71 10.52 12.57 10.42C12.2 10.17 12.11 9.68 12.35 9.31C12.63 8.9 12.77 8.42 12.77 7.92C12.77 7.42 12.62 6.94 12.34 6.52C12.09 6.15 12.19 5.66 12.56 5.41C12.92 5.16 13.42 5.26 13.67 5.63ZM10 6.57C10.85 6.57 11.54 7.26 11.54 8.11C11.54 8.96 10.85 9.65 10 9.65C9.15 9.65 8.46 8.96 8.46 8.11C8.46 7.26 9.15 6.57 10 6.57ZM15.24 18.29H4.76C4.32 18.29 3.96 17.93 3.96 17.49C3.96 17.05 4.32 16.69 4.76 16.69H15.24C15.68 16.69 16.04 17.05 16.04 17.49C16.04 17.93 15.68 18.29 15.24 18.29Z" fill="#EB37A0"/>
</svg>
