<svg width="28" height="26" viewBox="0 0 28 26" fill="none" xmlns="http://www.w3.org/2000/svg">
<path fill-rule="evenodd" clip-rule="evenodd" d="M25.2 0C26.754 0 28 1.246 28 2.786V19.068C28 20.622 26.74 21.868 25.2 21.868H2.8C1.246 21.868 0 20.608 0 19.068V2.8C0 1.246 1.26 0 2.8 0H25.2ZM25.2 2.226H2.8C2.492 2.226 2.24 2.478 2.24 2.786V19.068C2.24 19.376 2.492 19.628 2.8 19.628H25.2C25.508 19.628 25.76 19.376 25.76 19.068V2.8C25.76 2.492 25.508 2.24 25.2 2.24V2.226ZM7.63 5.642C8.148 5.992 8.274 6.678 7.924 7.196C7.14 8.344 6.734 9.688 6.734 11.088C6.734 12.488 7.14 13.832 7.924 14.98C8.274 15.498 8.134 16.184 7.616 16.534C7.434 16.66 7.224 16.716 7 16.716C6.636 16.716 6.286 16.548 6.076 16.226C5.054 14.7 4.508 12.922 4.508 11.088C4.508 9.24 5.054 7.462 6.076 5.936C6.426 5.418 7.112 5.292 7.63 5.642ZM21.924 5.936C22.946 7.462 23.492 9.24 23.492 11.088C23.492 12.936 22.946 14.714 21.924 16.226C21.714 16.548 21.35 16.716 21 16.716C20.79 16.716 20.566 16.66 20.37 16.52C19.852 16.17 19.726 15.484 20.062 14.966C20.832 13.818 21.252 12.474 21.252 11.074C21.252 9.674 20.846 8.33 20.062 7.182C19.712 6.664 19.852 5.978 20.37 5.628C20.888 5.278 21.574 5.418 21.924 5.936ZM10.402 7.574C10.92 7.924 11.046 8.61 10.71 9.128C10.318 9.702 10.108 10.388 10.108 11.088C10.108 11.788 10.318 12.46 10.696 13.034C11.046 13.552 10.906 14.238 10.388 14.588C10.206 14.714 9.996 14.784 9.772 14.784C9.408 14.784 9.058 14.616 8.848 14.294C8.204 13.342 7.868 12.236 7.868 11.088C7.868 9.94 8.204 8.834 8.848 7.882C9.198 7.364 9.898 7.238 10.402 7.574ZM19.138 7.882C19.782 8.834 20.118 9.94 20.118 11.088C20.118 12.236 19.782 13.342 19.138 14.294C18.942 14.602 18.592 14.784 18.228 14.784C18.018 14.784 17.794 14.728 17.598 14.588C17.08 14.238 16.954 13.552 17.29 13.034C17.682 12.46 17.878 11.788 17.878 11.088C17.878 10.388 17.668 9.716 17.276 9.128C16.926 8.61 17.066 7.924 17.584 7.574C18.088 7.224 18.788 7.364 19.138 7.882ZM14 9.198C15.19 9.198 16.156 10.164 16.156 11.354C16.156 12.544 15.19 13.51 14 13.51C12.81 13.51 11.844 12.544 11.844 11.354C11.844 10.164 12.81 9.198 14 9.198ZM21.336 25.606H6.664C6.048 25.606 5.544 25.102 5.544 24.486C5.544 23.87 6.048 23.366 6.664 23.366H21.336C21.952 23.366 22.456 23.87 22.456 24.486C22.456 25.102 21.952 25.606 21.336 25.606Z" fill="white"/>
</svg>
